%TF.GenerationSoftware,KiCad,Pcbnew,8.0.1*%
%TF.CreationDate,2024-11-14T23:23:29-08:00*%
%TF.ProjectId,roo_left_auto_routed,726f6f5f-6c65-4667-945f-6175746f5f72,0.1.0*%
%TF.SameCoordinates,Original*%
%TF.FileFunction,Drillmap*%
%TF.FilePolarity,Positive*%
%FSLAX45Y45*%
G04 Gerber Fmt 4.5, Leading zero omitted, Abs format (unit mm)*
G04 Created by KiCad (PCBNEW 8.0.1) date 2024-11-14 23:23:29*
%MOMM*%
%LPD*%
G01*
G04 APERTURE LIST*
%ADD10C,0.150000*%
%ADD11C,0.200000*%
%ADD12C,0.109220*%
G04 APERTURE END LIST*
D10*
X20808579Y-14983579D02*
X20788683Y-14983579D01*
X19308579Y-11858579D02*
G75*
G02*
X18708579Y-11858579I-300000J0D01*
G01*
X18708579Y-11858579D02*
G75*
G02*
X19308579Y-11858579I300000J0D01*
G01*
X24858579Y-18358579D02*
G75*
G02*
X24658579Y-18558579I-199999J-1D01*
G01*
X21058579Y-10458579D02*
X21058579Y-9708579D01*
X20788683Y-14983578D02*
G75*
G02*
X20808579Y-14991421I119897J274999D01*
G01*
X17308579Y-14033579D02*
G75*
G02*
X16708579Y-14033579I-300000J0D01*
G01*
X16708579Y-14033579D02*
G75*
G02*
X17308579Y-14033579I300000J0D01*
G01*
X23008579Y-17833579D02*
G75*
G02*
X22408579Y-17833579I-300000J0D01*
G01*
X22408579Y-17833579D02*
G75*
G02*
X23008579Y-17833579I300000J0D01*
G01*
X17258579Y-17883579D02*
G75*
G02*
X17058579Y-18083579I-199999J-1D01*
G01*
X15058579Y-18083579D02*
X17058579Y-18083579D01*
X17258579Y-16658579D02*
X18958579Y-16658579D01*
X19158579Y-16458579D02*
X19158579Y-15933579D01*
X18658579Y-10458579D02*
X16958579Y-10458579D01*
X24858579Y-16208579D02*
X24858579Y-12808579D01*
X22758579Y-10458579D02*
G75*
G02*
X22958581Y-10658579I1J-200001D01*
G01*
X16758579Y-10658579D02*
G75*
G02*
X16958579Y-10458579I200001J-1D01*
G01*
X15058579Y-18083579D02*
G75*
G02*
X14858581Y-17883579I1J199999D01*
G01*
X22533579Y-12608579D02*
G75*
G02*
X21933579Y-12608579I-300000J0D01*
G01*
X21933579Y-12608579D02*
G75*
G02*
X22533579Y-12608579I300000J0D01*
G01*
X20558579Y-18358579D02*
X20558579Y-15933579D01*
X17308579Y-15933579D02*
G75*
G02*
X16708579Y-15933579I-300000J0D01*
G01*
X16708579Y-15933579D02*
G75*
G02*
X17308579Y-15933579I300000J0D01*
G01*
X24858579Y-18358579D02*
X24858579Y-16358579D01*
X22958579Y-12608579D02*
X22958579Y-10658579D01*
X24658579Y-12608579D02*
X22958579Y-12608579D01*
X18658579Y-9708579D02*
X18658579Y-10458579D01*
X20758579Y-18558579D02*
G75*
G02*
X20558581Y-18358579I1J199999D01*
G01*
X18658579Y-9708579D02*
G75*
G02*
X18858579Y-9508579I200001J-1D01*
G01*
X19158579Y-16458579D02*
G75*
G02*
X18958579Y-16658579I-199999J-1D01*
G01*
X20858579Y-9508579D02*
G75*
G02*
X21058581Y-9708579I1J-200001D01*
G01*
X16758579Y-10658579D02*
X16758579Y-11883579D01*
X20858579Y-9508579D02*
X18858579Y-9508579D01*
X24658579Y-12608579D02*
G75*
G02*
X24858581Y-12808579I1J-200001D01*
G01*
X19158579Y-15933579D02*
X20558579Y-15933579D01*
X24843983Y-16283579D02*
G75*
G02*
X24858579Y-16358579I-185404J-75001D01*
G01*
X20758579Y-18558579D02*
X24658579Y-18558579D01*
X14858579Y-17883579D02*
X14858579Y-12083579D01*
X24858579Y-16208579D02*
G75*
G02*
X24843984Y-16283579I-199999J-1D01*
G01*
X17258579Y-17883579D02*
X17258579Y-16658579D01*
X14858579Y-12083579D02*
G75*
G02*
X15058579Y-11883579I200001J-1D01*
G01*
X22758579Y-10458579D02*
X21058579Y-10458579D01*
X20808579Y-14991421D02*
X20808579Y-14983579D01*
X16758579Y-11883579D02*
X15058579Y-11883579D01*
D11*
D12*
X22841970Y-13056970D02*
X22951190Y-13166190D01*
X22951190Y-13056970D02*
X22841970Y-13166190D01*
X22841970Y-13310970D02*
X22951190Y-13420190D01*
X22951190Y-13310970D02*
X22841970Y-13420190D01*
X22841970Y-13564970D02*
X22951190Y-13674190D01*
X22951190Y-13564970D02*
X22841970Y-13674190D01*
X22841970Y-13818970D02*
X22951190Y-13928190D01*
X22951190Y-13818970D02*
X22841970Y-13928190D01*
X22841970Y-14072970D02*
X22951190Y-14182190D01*
X22951190Y-14072970D02*
X22841970Y-14182190D01*
X22841970Y-14326970D02*
X22951190Y-14436190D01*
X22951190Y-14326970D02*
X22841970Y-14436190D01*
X22841970Y-14580970D02*
X22951190Y-14690190D01*
X22951190Y-14580970D02*
X22841970Y-14690190D01*
X22841970Y-14834970D02*
X22951190Y-14944190D01*
X22951190Y-14834970D02*
X22841970Y-14944190D01*
X22841970Y-15088970D02*
X22951190Y-15198190D01*
X22951190Y-15088970D02*
X22841970Y-15198190D01*
X22841970Y-15342970D02*
X22951190Y-15452190D01*
X22951190Y-15342970D02*
X22841970Y-15452190D01*
X22841970Y-15596970D02*
X22951190Y-15706190D01*
X22951190Y-15596970D02*
X22841970Y-15706190D01*
X22841970Y-15850970D02*
X22951190Y-15960190D01*
X22951190Y-15850970D02*
X22841970Y-15960190D01*
X24365970Y-13056970D02*
X24475190Y-13166190D01*
X24475190Y-13056970D02*
X24365970Y-13166190D01*
X24365970Y-13310970D02*
X24475190Y-13420190D01*
X24475190Y-13310970D02*
X24365970Y-13420190D01*
X24365970Y-13564970D02*
X24475190Y-13674190D01*
X24475190Y-13564970D02*
X24365970Y-13674190D01*
X24365970Y-13818970D02*
X24475190Y-13928190D01*
X24475190Y-13818970D02*
X24365970Y-13928190D01*
X24365970Y-14072970D02*
X24475190Y-14182190D01*
X24475190Y-14072970D02*
X24365970Y-14182190D01*
X24365970Y-14326970D02*
X24475190Y-14436190D01*
X24475190Y-14326970D02*
X24365970Y-14436190D01*
X24365970Y-14580970D02*
X24475190Y-14690190D01*
X24475190Y-14580970D02*
X24365970Y-14690190D01*
X24365970Y-14834970D02*
X24475190Y-14944190D01*
X24475190Y-14834970D02*
X24365970Y-14944190D01*
X24365970Y-15088970D02*
X24475190Y-15198190D01*
X24475190Y-15088970D02*
X24365970Y-15198190D01*
X24365970Y-15342970D02*
X24475190Y-15452190D01*
X24475190Y-15342970D02*
X24365970Y-15452190D01*
X24365970Y-15596970D02*
X24475190Y-15706190D01*
X24475190Y-15596970D02*
X24365970Y-15706190D01*
X24365970Y-15850970D02*
X24475190Y-15960190D01*
X24475190Y-15850970D02*
X24365970Y-15960190D01*
D11*
X15111855Y-18877562D02*
X15111855Y-18677562D01*
X15111855Y-18677562D02*
X15159474Y-18677562D01*
X15159474Y-18677562D02*
X15188046Y-18687086D01*
X15188046Y-18687086D02*
X15207093Y-18706134D01*
X15207093Y-18706134D02*
X15216617Y-18725181D01*
X15216617Y-18725181D02*
X15226141Y-18763277D01*
X15226141Y-18763277D02*
X15226141Y-18791848D01*
X15226141Y-18791848D02*
X15216617Y-18829943D01*
X15216617Y-18829943D02*
X15207093Y-18848991D01*
X15207093Y-18848991D02*
X15188046Y-18868039D01*
X15188046Y-18868039D02*
X15159474Y-18877562D01*
X15159474Y-18877562D02*
X15111855Y-18877562D01*
X15311855Y-18877562D02*
X15311855Y-18744229D01*
X15311855Y-18782324D02*
X15321379Y-18763277D01*
X15321379Y-18763277D02*
X15330903Y-18753753D01*
X15330903Y-18753753D02*
X15349951Y-18744229D01*
X15349951Y-18744229D02*
X15368998Y-18744229D01*
X15435665Y-18877562D02*
X15435665Y-18744229D01*
X15435665Y-18677562D02*
X15426141Y-18687086D01*
X15426141Y-18687086D02*
X15435665Y-18696610D01*
X15435665Y-18696610D02*
X15445189Y-18687086D01*
X15445189Y-18687086D02*
X15435665Y-18677562D01*
X15435665Y-18677562D02*
X15435665Y-18696610D01*
X15559474Y-18877562D02*
X15540427Y-18868039D01*
X15540427Y-18868039D02*
X15530903Y-18848991D01*
X15530903Y-18848991D02*
X15530903Y-18677562D01*
X15664236Y-18877562D02*
X15645189Y-18868039D01*
X15645189Y-18868039D02*
X15635665Y-18848991D01*
X15635665Y-18848991D02*
X15635665Y-18677562D01*
X15892808Y-18877562D02*
X15892808Y-18677562D01*
X15892808Y-18677562D02*
X15959474Y-18820420D01*
X15959474Y-18820420D02*
X16026141Y-18677562D01*
X16026141Y-18677562D02*
X16026141Y-18877562D01*
X16207093Y-18877562D02*
X16207093Y-18772801D01*
X16207093Y-18772801D02*
X16197570Y-18753753D01*
X16197570Y-18753753D02*
X16178522Y-18744229D01*
X16178522Y-18744229D02*
X16140427Y-18744229D01*
X16140427Y-18744229D02*
X16121379Y-18753753D01*
X16207093Y-18868039D02*
X16188046Y-18877562D01*
X16188046Y-18877562D02*
X16140427Y-18877562D01*
X16140427Y-18877562D02*
X16121379Y-18868039D01*
X16121379Y-18868039D02*
X16111855Y-18848991D01*
X16111855Y-18848991D02*
X16111855Y-18829943D01*
X16111855Y-18829943D02*
X16121379Y-18810896D01*
X16121379Y-18810896D02*
X16140427Y-18801372D01*
X16140427Y-18801372D02*
X16188046Y-18801372D01*
X16188046Y-18801372D02*
X16207093Y-18791848D01*
X16302332Y-18744229D02*
X16302332Y-18944229D01*
X16302332Y-18753753D02*
X16321379Y-18744229D01*
X16321379Y-18744229D02*
X16359474Y-18744229D01*
X16359474Y-18744229D02*
X16378522Y-18753753D01*
X16378522Y-18753753D02*
X16388046Y-18763277D01*
X16388046Y-18763277D02*
X16397570Y-18782324D01*
X16397570Y-18782324D02*
X16397570Y-18839467D01*
X16397570Y-18839467D02*
X16388046Y-18858515D01*
X16388046Y-18858515D02*
X16378522Y-18868039D01*
X16378522Y-18868039D02*
X16359474Y-18877562D01*
X16359474Y-18877562D02*
X16321379Y-18877562D01*
X16321379Y-18877562D02*
X16302332Y-18868039D01*
X16483284Y-18858515D02*
X16492808Y-18868039D01*
X16492808Y-18868039D02*
X16483284Y-18877562D01*
X16483284Y-18877562D02*
X16473760Y-18868039D01*
X16473760Y-18868039D02*
X16483284Y-18858515D01*
X16483284Y-18858515D02*
X16483284Y-18877562D01*
X16483284Y-18753753D02*
X16492808Y-18763277D01*
X16492808Y-18763277D02*
X16483284Y-18772801D01*
X16483284Y-18772801D02*
X16473760Y-18763277D01*
X16473760Y-18763277D02*
X16483284Y-18753753D01*
X16483284Y-18753753D02*
X16483284Y-18772801D01*
D12*
X14741859Y-19151469D02*
X14851079Y-19260689D01*
X14851079Y-19151469D02*
X14741859Y-19260689D01*
D11*
X15216617Y-19297562D02*
X15102332Y-19297562D01*
X15159474Y-19297562D02*
X15159474Y-19097562D01*
X15159474Y-19097562D02*
X15140427Y-19126134D01*
X15140427Y-19126134D02*
X15121379Y-19145181D01*
X15121379Y-19145181D02*
X15102332Y-19154705D01*
X15302332Y-19278515D02*
X15311855Y-19288039D01*
X15311855Y-19288039D02*
X15302332Y-19297562D01*
X15302332Y-19297562D02*
X15292808Y-19288039D01*
X15292808Y-19288039D02*
X15302332Y-19278515D01*
X15302332Y-19278515D02*
X15302332Y-19297562D01*
X15435665Y-19097562D02*
X15454713Y-19097562D01*
X15454713Y-19097562D02*
X15473760Y-19107086D01*
X15473760Y-19107086D02*
X15483284Y-19116610D01*
X15483284Y-19116610D02*
X15492808Y-19135658D01*
X15492808Y-19135658D02*
X15502332Y-19173753D01*
X15502332Y-19173753D02*
X15502332Y-19221372D01*
X15502332Y-19221372D02*
X15492808Y-19259467D01*
X15492808Y-19259467D02*
X15483284Y-19278515D01*
X15483284Y-19278515D02*
X15473760Y-19288039D01*
X15473760Y-19288039D02*
X15454713Y-19297562D01*
X15454713Y-19297562D02*
X15435665Y-19297562D01*
X15435665Y-19297562D02*
X15416617Y-19288039D01*
X15416617Y-19288039D02*
X15407093Y-19278515D01*
X15407093Y-19278515D02*
X15397570Y-19259467D01*
X15397570Y-19259467D02*
X15388046Y-19221372D01*
X15388046Y-19221372D02*
X15388046Y-19173753D01*
X15388046Y-19173753D02*
X15397570Y-19135658D01*
X15397570Y-19135658D02*
X15407093Y-19116610D01*
X15407093Y-19116610D02*
X15416617Y-19107086D01*
X15416617Y-19107086D02*
X15435665Y-19097562D01*
X15597570Y-19297562D02*
X15635665Y-19297562D01*
X15635665Y-19297562D02*
X15654713Y-19288039D01*
X15654713Y-19288039D02*
X15664236Y-19278515D01*
X15664236Y-19278515D02*
X15683284Y-19249943D01*
X15683284Y-19249943D02*
X15692808Y-19211848D01*
X15692808Y-19211848D02*
X15692808Y-19135658D01*
X15692808Y-19135658D02*
X15683284Y-19116610D01*
X15683284Y-19116610D02*
X15673760Y-19107086D01*
X15673760Y-19107086D02*
X15654713Y-19097562D01*
X15654713Y-19097562D02*
X15616617Y-19097562D01*
X15616617Y-19097562D02*
X15597570Y-19107086D01*
X15597570Y-19107086D02*
X15588046Y-19116610D01*
X15588046Y-19116610D02*
X15578522Y-19135658D01*
X15578522Y-19135658D02*
X15578522Y-19183277D01*
X15578522Y-19183277D02*
X15588046Y-19202324D01*
X15588046Y-19202324D02*
X15597570Y-19211848D01*
X15597570Y-19211848D02*
X15616617Y-19221372D01*
X15616617Y-19221372D02*
X15654713Y-19221372D01*
X15654713Y-19221372D02*
X15673760Y-19211848D01*
X15673760Y-19211848D02*
X15683284Y-19202324D01*
X15683284Y-19202324D02*
X15692808Y-19183277D01*
X15768998Y-19116610D02*
X15778522Y-19107086D01*
X15778522Y-19107086D02*
X15797570Y-19097562D01*
X15797570Y-19097562D02*
X15845189Y-19097562D01*
X15845189Y-19097562D02*
X15864236Y-19107086D01*
X15864236Y-19107086D02*
X15873760Y-19116610D01*
X15873760Y-19116610D02*
X15883284Y-19135658D01*
X15883284Y-19135658D02*
X15883284Y-19154705D01*
X15883284Y-19154705D02*
X15873760Y-19183277D01*
X15873760Y-19183277D02*
X15759474Y-19297562D01*
X15759474Y-19297562D02*
X15883284Y-19297562D01*
X15968998Y-19297562D02*
X15968998Y-19164229D01*
X15968998Y-19183277D02*
X15978522Y-19173753D01*
X15978522Y-19173753D02*
X15997570Y-19164229D01*
X15997570Y-19164229D02*
X16026141Y-19164229D01*
X16026141Y-19164229D02*
X16045189Y-19173753D01*
X16045189Y-19173753D02*
X16054713Y-19192801D01*
X16054713Y-19192801D02*
X16054713Y-19297562D01*
X16054713Y-19192801D02*
X16064236Y-19173753D01*
X16064236Y-19173753D02*
X16083284Y-19164229D01*
X16083284Y-19164229D02*
X16111855Y-19164229D01*
X16111855Y-19164229D02*
X16130903Y-19173753D01*
X16130903Y-19173753D02*
X16140427Y-19192801D01*
X16140427Y-19192801D02*
X16140427Y-19297562D01*
X16235665Y-19297562D02*
X16235665Y-19164229D01*
X16235665Y-19183277D02*
X16245189Y-19173753D01*
X16245189Y-19173753D02*
X16264236Y-19164229D01*
X16264236Y-19164229D02*
X16292808Y-19164229D01*
X16292808Y-19164229D02*
X16311855Y-19173753D01*
X16311855Y-19173753D02*
X16321379Y-19192801D01*
X16321379Y-19192801D02*
X16321379Y-19297562D01*
X16321379Y-19192801D02*
X16330903Y-19173753D01*
X16330903Y-19173753D02*
X16349951Y-19164229D01*
X16349951Y-19164229D02*
X16378522Y-19164229D01*
X16378522Y-19164229D02*
X16397570Y-19173753D01*
X16397570Y-19173753D02*
X16407094Y-19192801D01*
X16407094Y-19192801D02*
X16407094Y-19297562D01*
X16797570Y-19088039D02*
X16626141Y-19345181D01*
X17054713Y-19097562D02*
X17073760Y-19097562D01*
X17073760Y-19097562D02*
X17092808Y-19107086D01*
X17092808Y-19107086D02*
X17102332Y-19116610D01*
X17102332Y-19116610D02*
X17111856Y-19135658D01*
X17111856Y-19135658D02*
X17121379Y-19173753D01*
X17121379Y-19173753D02*
X17121379Y-19221372D01*
X17121379Y-19221372D02*
X17111856Y-19259467D01*
X17111856Y-19259467D02*
X17102332Y-19278515D01*
X17102332Y-19278515D02*
X17092808Y-19288039D01*
X17092808Y-19288039D02*
X17073760Y-19297562D01*
X17073760Y-19297562D02*
X17054713Y-19297562D01*
X17054713Y-19297562D02*
X17035665Y-19288039D01*
X17035665Y-19288039D02*
X17026141Y-19278515D01*
X17026141Y-19278515D02*
X17016618Y-19259467D01*
X17016618Y-19259467D02*
X17007094Y-19221372D01*
X17007094Y-19221372D02*
X17007094Y-19173753D01*
X17007094Y-19173753D02*
X17016618Y-19135658D01*
X17016618Y-19135658D02*
X17026141Y-19116610D01*
X17026141Y-19116610D02*
X17035665Y-19107086D01*
X17035665Y-19107086D02*
X17054713Y-19097562D01*
X17207094Y-19278515D02*
X17216618Y-19288039D01*
X17216618Y-19288039D02*
X17207094Y-19297562D01*
X17207094Y-19297562D02*
X17197570Y-19288039D01*
X17197570Y-19288039D02*
X17207094Y-19278515D01*
X17207094Y-19278515D02*
X17207094Y-19297562D01*
X17340427Y-19097562D02*
X17359475Y-19097562D01*
X17359475Y-19097562D02*
X17378522Y-19107086D01*
X17378522Y-19107086D02*
X17388046Y-19116610D01*
X17388046Y-19116610D02*
X17397570Y-19135658D01*
X17397570Y-19135658D02*
X17407094Y-19173753D01*
X17407094Y-19173753D02*
X17407094Y-19221372D01*
X17407094Y-19221372D02*
X17397570Y-19259467D01*
X17397570Y-19259467D02*
X17388046Y-19278515D01*
X17388046Y-19278515D02*
X17378522Y-19288039D01*
X17378522Y-19288039D02*
X17359475Y-19297562D01*
X17359475Y-19297562D02*
X17340427Y-19297562D01*
X17340427Y-19297562D02*
X17321379Y-19288039D01*
X17321379Y-19288039D02*
X17311856Y-19278515D01*
X17311856Y-19278515D02*
X17302332Y-19259467D01*
X17302332Y-19259467D02*
X17292808Y-19221372D01*
X17292808Y-19221372D02*
X17292808Y-19173753D01*
X17292808Y-19173753D02*
X17302332Y-19135658D01*
X17302332Y-19135658D02*
X17311856Y-19116610D01*
X17311856Y-19116610D02*
X17321379Y-19107086D01*
X17321379Y-19107086D02*
X17340427Y-19097562D01*
X17578522Y-19164229D02*
X17578522Y-19297562D01*
X17530903Y-19088039D02*
X17483284Y-19230896D01*
X17483284Y-19230896D02*
X17607094Y-19230896D01*
X17664237Y-19097562D02*
X17788046Y-19097562D01*
X17788046Y-19097562D02*
X17721379Y-19173753D01*
X17721379Y-19173753D02*
X17749951Y-19173753D01*
X17749951Y-19173753D02*
X17768999Y-19183277D01*
X17768999Y-19183277D02*
X17778522Y-19192801D01*
X17778522Y-19192801D02*
X17788046Y-19211848D01*
X17788046Y-19211848D02*
X17788046Y-19259467D01*
X17788046Y-19259467D02*
X17778522Y-19278515D01*
X17778522Y-19278515D02*
X17768999Y-19288039D01*
X17768999Y-19288039D02*
X17749951Y-19297562D01*
X17749951Y-19297562D02*
X17692808Y-19297562D01*
X17692808Y-19297562D02*
X17673760Y-19288039D01*
X17673760Y-19288039D02*
X17664237Y-19278515D01*
X17911856Y-19097562D02*
X17930903Y-19097562D01*
X17930903Y-19097562D02*
X17949951Y-19107086D01*
X17949951Y-19107086D02*
X17959475Y-19116610D01*
X17959475Y-19116610D02*
X17968999Y-19135658D01*
X17968999Y-19135658D02*
X17978522Y-19173753D01*
X17978522Y-19173753D02*
X17978522Y-19221372D01*
X17978522Y-19221372D02*
X17968999Y-19259467D01*
X17968999Y-19259467D02*
X17959475Y-19278515D01*
X17959475Y-19278515D02*
X17949951Y-19288039D01*
X17949951Y-19288039D02*
X17930903Y-19297562D01*
X17930903Y-19297562D02*
X17911856Y-19297562D01*
X17911856Y-19297562D02*
X17892808Y-19288039D01*
X17892808Y-19288039D02*
X17883284Y-19278515D01*
X17883284Y-19278515D02*
X17873760Y-19259467D01*
X17873760Y-19259467D02*
X17864237Y-19221372D01*
X17864237Y-19221372D02*
X17864237Y-19173753D01*
X17864237Y-19173753D02*
X17873760Y-19135658D01*
X17873760Y-19135658D02*
X17883284Y-19116610D01*
X17883284Y-19116610D02*
X17892808Y-19107086D01*
X17892808Y-19107086D02*
X17911856Y-19097562D01*
X18054713Y-19097562D02*
X18054713Y-19135658D01*
X18130903Y-19097562D02*
X18130903Y-19135658D01*
X18426142Y-19373753D02*
X18416618Y-19364229D01*
X18416618Y-19364229D02*
X18397570Y-19335658D01*
X18397570Y-19335658D02*
X18388046Y-19316610D01*
X18388046Y-19316610D02*
X18378522Y-19288039D01*
X18378522Y-19288039D02*
X18368999Y-19240420D01*
X18368999Y-19240420D02*
X18368999Y-19202324D01*
X18368999Y-19202324D02*
X18378522Y-19154705D01*
X18378522Y-19154705D02*
X18388046Y-19126134D01*
X18388046Y-19126134D02*
X18397570Y-19107086D01*
X18397570Y-19107086D02*
X18416618Y-19078515D01*
X18416618Y-19078515D02*
X18426142Y-19068991D01*
X18492808Y-19116610D02*
X18502332Y-19107086D01*
X18502332Y-19107086D02*
X18521380Y-19097562D01*
X18521380Y-19097562D02*
X18568999Y-19097562D01*
X18568999Y-19097562D02*
X18588046Y-19107086D01*
X18588046Y-19107086D02*
X18597570Y-19116610D01*
X18597570Y-19116610D02*
X18607094Y-19135658D01*
X18607094Y-19135658D02*
X18607094Y-19154705D01*
X18607094Y-19154705D02*
X18597570Y-19183277D01*
X18597570Y-19183277D02*
X18483284Y-19297562D01*
X18483284Y-19297562D02*
X18607094Y-19297562D01*
X18778522Y-19164229D02*
X18778522Y-19297562D01*
X18730903Y-19088039D02*
X18683284Y-19230896D01*
X18683284Y-19230896D02*
X18807094Y-19230896D01*
X19035665Y-19297562D02*
X19035665Y-19097562D01*
X19121380Y-19297562D02*
X19121380Y-19192801D01*
X19121380Y-19192801D02*
X19111856Y-19173753D01*
X19111856Y-19173753D02*
X19092808Y-19164229D01*
X19092808Y-19164229D02*
X19064237Y-19164229D01*
X19064237Y-19164229D02*
X19045189Y-19173753D01*
X19045189Y-19173753D02*
X19035665Y-19183277D01*
X19245189Y-19297562D02*
X19226142Y-19288039D01*
X19226142Y-19288039D02*
X19216618Y-19278515D01*
X19216618Y-19278515D02*
X19207094Y-19259467D01*
X19207094Y-19259467D02*
X19207094Y-19202324D01*
X19207094Y-19202324D02*
X19216618Y-19183277D01*
X19216618Y-19183277D02*
X19226142Y-19173753D01*
X19226142Y-19173753D02*
X19245189Y-19164229D01*
X19245189Y-19164229D02*
X19273761Y-19164229D01*
X19273761Y-19164229D02*
X19292808Y-19173753D01*
X19292808Y-19173753D02*
X19302332Y-19183277D01*
X19302332Y-19183277D02*
X19311856Y-19202324D01*
X19311856Y-19202324D02*
X19311856Y-19259467D01*
X19311856Y-19259467D02*
X19302332Y-19278515D01*
X19302332Y-19278515D02*
X19292808Y-19288039D01*
X19292808Y-19288039D02*
X19273761Y-19297562D01*
X19273761Y-19297562D02*
X19245189Y-19297562D01*
X19426142Y-19297562D02*
X19407094Y-19288039D01*
X19407094Y-19288039D02*
X19397570Y-19268991D01*
X19397570Y-19268991D02*
X19397570Y-19097562D01*
X19578523Y-19288039D02*
X19559475Y-19297562D01*
X19559475Y-19297562D02*
X19521380Y-19297562D01*
X19521380Y-19297562D02*
X19502332Y-19288039D01*
X19502332Y-19288039D02*
X19492808Y-19268991D01*
X19492808Y-19268991D02*
X19492808Y-19192801D01*
X19492808Y-19192801D02*
X19502332Y-19173753D01*
X19502332Y-19173753D02*
X19521380Y-19164229D01*
X19521380Y-19164229D02*
X19559475Y-19164229D01*
X19559475Y-19164229D02*
X19578523Y-19173753D01*
X19578523Y-19173753D02*
X19588046Y-19192801D01*
X19588046Y-19192801D02*
X19588046Y-19211848D01*
X19588046Y-19211848D02*
X19492808Y-19230896D01*
X19664237Y-19288039D02*
X19683284Y-19297562D01*
X19683284Y-19297562D02*
X19721380Y-19297562D01*
X19721380Y-19297562D02*
X19740427Y-19288039D01*
X19740427Y-19288039D02*
X19749951Y-19268991D01*
X19749951Y-19268991D02*
X19749951Y-19259467D01*
X19749951Y-19259467D02*
X19740427Y-19240420D01*
X19740427Y-19240420D02*
X19721380Y-19230896D01*
X19721380Y-19230896D02*
X19692808Y-19230896D01*
X19692808Y-19230896D02*
X19673761Y-19221372D01*
X19673761Y-19221372D02*
X19664237Y-19202324D01*
X19664237Y-19202324D02*
X19664237Y-19192801D01*
X19664237Y-19192801D02*
X19673761Y-19173753D01*
X19673761Y-19173753D02*
X19692808Y-19164229D01*
X19692808Y-19164229D02*
X19721380Y-19164229D01*
X19721380Y-19164229D02*
X19740427Y-19173753D01*
X19816618Y-19373753D02*
X19826142Y-19364229D01*
X19826142Y-19364229D02*
X19845189Y-19335658D01*
X19845189Y-19335658D02*
X19854713Y-19316610D01*
X19854713Y-19316610D02*
X19864237Y-19288039D01*
X19864237Y-19288039D02*
X19873761Y-19240420D01*
X19873761Y-19240420D02*
X19873761Y-19202324D01*
X19873761Y-19202324D02*
X19864237Y-19154705D01*
X19864237Y-19154705D02*
X19854713Y-19126134D01*
X19854713Y-19126134D02*
X19845189Y-19107086D01*
X19845189Y-19107086D02*
X19826142Y-19078515D01*
X19826142Y-19078515D02*
X19816618Y-19068991D01*
M02*
