%TF.GenerationSoftware,KiCad,Pcbnew,8.0.1*%
%TF.CreationDate,2024-11-14T23:23:29-08:00*%
%TF.ProjectId,roo_left_auto_routed,726f6f5f-6c65-4667-945f-6175746f5f72,0.1.0*%
%TF.SameCoordinates,Original*%
%TF.FileFunction,Drillmap*%
%TF.FilePolarity,Positive*%
%FSLAX45Y45*%
G04 Gerber Fmt 4.5, Leading zero omitted, Abs format (unit mm)*
G04 Created by KiCad (PCBNEW 8.0.1) date 2024-11-14 23:23:29*
%MOMM*%
%LPD*%
G01*
G04 APERTURE LIST*
%ADD10C,0.150000*%
%ADD11C,0.200000*%
%ADD12C,0.170180*%
%ADD13C,0.300000*%
%ADD14C,0.342900*%
G04 APERTURE END LIST*
D10*
X20808579Y-14983579D02*
X20788683Y-14983579D01*
X19308579Y-11858579D02*
G75*
G02*
X18708579Y-11858579I-300000J0D01*
G01*
X18708579Y-11858579D02*
G75*
G02*
X19308579Y-11858579I300000J0D01*
G01*
X24858579Y-18358579D02*
G75*
G02*
X24658579Y-18558579I-199999J-1D01*
G01*
X21058579Y-10458579D02*
X21058579Y-9708579D01*
X20788683Y-14983578D02*
G75*
G02*
X20808579Y-14991421I119897J274999D01*
G01*
X17308579Y-14033579D02*
G75*
G02*
X16708579Y-14033579I-300000J0D01*
G01*
X16708579Y-14033579D02*
G75*
G02*
X17308579Y-14033579I300000J0D01*
G01*
X23008579Y-17833579D02*
G75*
G02*
X22408579Y-17833579I-300000J0D01*
G01*
X22408579Y-17833579D02*
G75*
G02*
X23008579Y-17833579I300000J0D01*
G01*
X17258579Y-17883579D02*
G75*
G02*
X17058579Y-18083579I-199999J-1D01*
G01*
X15058579Y-18083579D02*
X17058579Y-18083579D01*
X17258579Y-16658579D02*
X18958579Y-16658579D01*
X19158579Y-16458579D02*
X19158579Y-15933579D01*
X18658579Y-10458579D02*
X16958579Y-10458579D01*
X24858579Y-16208579D02*
X24858579Y-12808579D01*
X22758579Y-10458579D02*
G75*
G02*
X22958581Y-10658579I1J-200001D01*
G01*
X16758579Y-10658579D02*
G75*
G02*
X16958579Y-10458579I200001J-1D01*
G01*
X15058579Y-18083579D02*
G75*
G02*
X14858581Y-17883579I1J199999D01*
G01*
X22533579Y-12608579D02*
G75*
G02*
X21933579Y-12608579I-300000J0D01*
G01*
X21933579Y-12608579D02*
G75*
G02*
X22533579Y-12608579I300000J0D01*
G01*
X20558579Y-18358579D02*
X20558579Y-15933579D01*
X17308579Y-15933579D02*
G75*
G02*
X16708579Y-15933579I-300000J0D01*
G01*
X16708579Y-15933579D02*
G75*
G02*
X17308579Y-15933579I300000J0D01*
G01*
X24858579Y-18358579D02*
X24858579Y-16358579D01*
X22958579Y-12608579D02*
X22958579Y-10658579D01*
X24658579Y-12608579D02*
X22958579Y-12608579D01*
X18658579Y-9708579D02*
X18658579Y-10458579D01*
X20758579Y-18558579D02*
G75*
G02*
X20558581Y-18358579I1J199999D01*
G01*
X18658579Y-9708579D02*
G75*
G02*
X18858579Y-9508579I200001J-1D01*
G01*
X19158579Y-16458579D02*
G75*
G02*
X18958579Y-16658579I-199999J-1D01*
G01*
X20858579Y-9508579D02*
G75*
G02*
X21058581Y-9708579I1J-200001D01*
G01*
X16758579Y-10658579D02*
X16758579Y-11883579D01*
X20858579Y-9508579D02*
X18858579Y-9508579D01*
X24658579Y-12608579D02*
G75*
G02*
X24858581Y-12808579I1J-200001D01*
G01*
X19158579Y-15933579D02*
X20558579Y-15933579D01*
X24843983Y-16283579D02*
G75*
G02*
X24858579Y-16358579I-185404J-75001D01*
G01*
X20758579Y-18558579D02*
X24658579Y-18558579D01*
X14858579Y-17883579D02*
X14858579Y-12083579D01*
X24858579Y-16208579D02*
G75*
G02*
X24843984Y-16283579I-199999J-1D01*
G01*
X17258579Y-17883579D02*
X17258579Y-16658579D01*
X14858579Y-12083579D02*
G75*
G02*
X15058579Y-11883579I200001J-1D01*
G01*
X22758579Y-10458579D02*
X21058579Y-10458579D01*
X20808579Y-14991421D02*
X20808579Y-14983579D01*
X16758579Y-11883579D02*
X15058579Y-11883579D01*
D11*
D12*
X15423490Y-12998490D02*
X15593670Y-13168670D01*
X15593670Y-12998490D02*
X15423490Y-13168670D01*
X15423490Y-14898490D02*
X15593670Y-15068670D01*
X15593670Y-14898490D02*
X15423490Y-15068670D01*
X15423490Y-16798490D02*
X15593670Y-16968670D01*
X15593670Y-16798490D02*
X15423490Y-16968670D01*
X16523490Y-12998490D02*
X16693670Y-13168670D01*
X16693670Y-12998490D02*
X16523490Y-13168670D01*
X16523490Y-14898490D02*
X16693670Y-15068670D01*
X16693670Y-14898490D02*
X16523490Y-15068670D01*
X16523490Y-16798490D02*
X16693670Y-16968670D01*
X16693670Y-16798490D02*
X16523490Y-16968670D01*
X17323490Y-11573490D02*
X17493670Y-11743670D01*
X17493670Y-11573490D02*
X17323490Y-11743670D01*
X17323490Y-13473490D02*
X17493670Y-13643670D01*
X17493670Y-13473490D02*
X17323490Y-13643670D01*
X17323490Y-15373490D02*
X17493670Y-15543670D01*
X17493670Y-15373490D02*
X17323490Y-15543670D01*
X18423490Y-11573490D02*
X18593670Y-11743670D01*
X18593670Y-11573490D02*
X18423490Y-11743670D01*
X18423490Y-13473490D02*
X18593670Y-13643670D01*
X18593670Y-13473490D02*
X18423490Y-13643670D01*
X18423490Y-15373490D02*
X18593670Y-15543670D01*
X18593670Y-15373490D02*
X18423490Y-15543670D01*
X19223490Y-10623490D02*
X19393670Y-10793670D01*
X19393670Y-10623490D02*
X19223490Y-10793670D01*
X19223490Y-12523490D02*
X19393670Y-12693670D01*
X19393670Y-12523490D02*
X19223490Y-12693670D01*
X19223490Y-14423490D02*
X19393670Y-14593670D01*
X19393670Y-14423490D02*
X19223490Y-14593670D01*
X20323490Y-10623490D02*
X20493670Y-10793670D01*
X20493670Y-10623490D02*
X20323490Y-10793670D01*
X20323490Y-12523490D02*
X20493670Y-12693670D01*
X20493670Y-12523490D02*
X20323490Y-12693670D01*
X20323490Y-14423490D02*
X20493670Y-14593670D01*
X20493670Y-14423490D02*
X20323490Y-14593670D01*
X21123490Y-11573490D02*
X21293670Y-11743670D01*
X21293670Y-11573490D02*
X21123490Y-11743670D01*
X21123490Y-13473490D02*
X21293670Y-13643670D01*
X21293670Y-13473490D02*
X21123490Y-13643670D01*
X21123490Y-15373490D02*
X21293670Y-15543670D01*
X21293670Y-15373490D02*
X21123490Y-15543670D01*
X21123490Y-17273490D02*
X21293670Y-17443670D01*
X21293670Y-17273490D02*
X21123490Y-17443670D01*
X22223490Y-11573490D02*
X22393670Y-11743670D01*
X22393670Y-11573490D02*
X22223490Y-11743670D01*
X22223490Y-13473490D02*
X22393670Y-13643670D01*
X22393670Y-13473490D02*
X22223490Y-13643670D01*
X22223490Y-15373490D02*
X22393670Y-15543670D01*
X22393670Y-15373490D02*
X22223490Y-15543670D01*
X22223490Y-17273490D02*
X22393670Y-17443670D01*
X22393670Y-17273490D02*
X22223490Y-17443670D01*
X23023490Y-17273490D02*
X23193670Y-17443670D01*
X23193670Y-17273490D02*
X23023490Y-17443670D01*
X24123490Y-17273490D02*
X24293670Y-17443670D01*
X24293670Y-17273490D02*
X24123490Y-17443670D01*
D13*
X16208580Y-12488580D02*
G75*
G02*
X15908580Y-12488580I-150000J0D01*
G01*
X15908580Y-12488580D02*
G75*
G02*
X16208580Y-12488580I150000J0D01*
G01*
X16208580Y-14388580D02*
G75*
G02*
X15908580Y-14388580I-150000J0D01*
G01*
X15908580Y-14388580D02*
G75*
G02*
X16208580Y-14388580I150000J0D01*
G01*
X16208580Y-16288580D02*
G75*
G02*
X15908580Y-16288580I-150000J0D01*
G01*
X15908580Y-16288580D02*
G75*
G02*
X16208580Y-16288580I150000J0D01*
G01*
X16708580Y-12708580D02*
G75*
G02*
X16408580Y-12708580I-150000J0D01*
G01*
X16408580Y-12708580D02*
G75*
G02*
X16708580Y-12708580I150000J0D01*
G01*
X16708580Y-14608580D02*
G75*
G02*
X16408580Y-14608580I-150000J0D01*
G01*
X16408580Y-14608580D02*
G75*
G02*
X16708580Y-14608580I150000J0D01*
G01*
X16708580Y-16508580D02*
G75*
G02*
X16408580Y-16508580I-150000J0D01*
G01*
X16408580Y-16508580D02*
G75*
G02*
X16708580Y-16508580I150000J0D01*
G01*
X18108580Y-11063580D02*
G75*
G02*
X17808580Y-11063580I-150000J0D01*
G01*
X17808580Y-11063580D02*
G75*
G02*
X18108580Y-11063580I150000J0D01*
G01*
X18108580Y-12963580D02*
G75*
G02*
X17808580Y-12963580I-150000J0D01*
G01*
X17808580Y-12963580D02*
G75*
G02*
X18108580Y-12963580I150000J0D01*
G01*
X18108580Y-14863580D02*
G75*
G02*
X17808580Y-14863580I-150000J0D01*
G01*
X17808580Y-14863580D02*
G75*
G02*
X18108580Y-14863580I150000J0D01*
G01*
X18608580Y-11283580D02*
G75*
G02*
X18308580Y-11283580I-150000J0D01*
G01*
X18308580Y-11283580D02*
G75*
G02*
X18608580Y-11283580I150000J0D01*
G01*
X18608580Y-13183580D02*
G75*
G02*
X18308580Y-13183580I-150000J0D01*
G01*
X18308580Y-13183580D02*
G75*
G02*
X18608580Y-13183580I150000J0D01*
G01*
X18608580Y-15083580D02*
G75*
G02*
X18308580Y-15083580I-150000J0D01*
G01*
X18308580Y-15083580D02*
G75*
G02*
X18608580Y-15083580I150000J0D01*
G01*
X20008580Y-10113580D02*
G75*
G02*
X19708580Y-10113580I-150000J0D01*
G01*
X19708580Y-10113580D02*
G75*
G02*
X20008580Y-10113580I150000J0D01*
G01*
X20008580Y-12013580D02*
G75*
G02*
X19708580Y-12013580I-150000J0D01*
G01*
X19708580Y-12013580D02*
G75*
G02*
X20008580Y-12013580I150000J0D01*
G01*
X20008580Y-13913580D02*
G75*
G02*
X19708580Y-13913580I-150000J0D01*
G01*
X19708580Y-13913580D02*
G75*
G02*
X20008580Y-13913580I150000J0D01*
G01*
X20508580Y-10333580D02*
G75*
G02*
X20208580Y-10333580I-150000J0D01*
G01*
X20208580Y-10333580D02*
G75*
G02*
X20508580Y-10333580I150000J0D01*
G01*
X20508580Y-12233580D02*
G75*
G02*
X20208580Y-12233580I-150000J0D01*
G01*
X20208580Y-12233580D02*
G75*
G02*
X20508580Y-12233580I150000J0D01*
G01*
X20508580Y-14133580D02*
G75*
G02*
X20208580Y-14133580I-150000J0D01*
G01*
X20208580Y-14133580D02*
G75*
G02*
X20508580Y-14133580I150000J0D01*
G01*
X21908580Y-11063580D02*
G75*
G02*
X21608580Y-11063580I-150000J0D01*
G01*
X21608580Y-11063580D02*
G75*
G02*
X21908580Y-11063580I150000J0D01*
G01*
X21908580Y-12963580D02*
G75*
G02*
X21608580Y-12963580I-150000J0D01*
G01*
X21608580Y-12963580D02*
G75*
G02*
X21908580Y-12963580I150000J0D01*
G01*
X21908580Y-14863580D02*
G75*
G02*
X21608580Y-14863580I-150000J0D01*
G01*
X21608580Y-14863580D02*
G75*
G02*
X21908580Y-14863580I150000J0D01*
G01*
X21908580Y-16763580D02*
G75*
G02*
X21608580Y-16763580I-150000J0D01*
G01*
X21608580Y-16763580D02*
G75*
G02*
X21908580Y-16763580I150000J0D01*
G01*
X22408580Y-11283580D02*
G75*
G02*
X22108580Y-11283580I-150000J0D01*
G01*
X22108580Y-11283580D02*
G75*
G02*
X22408580Y-11283580I150000J0D01*
G01*
X22408580Y-13183580D02*
G75*
G02*
X22108580Y-13183580I-150000J0D01*
G01*
X22108580Y-13183580D02*
G75*
G02*
X22408580Y-13183580I150000J0D01*
G01*
X22408580Y-15083580D02*
G75*
G02*
X22108580Y-15083580I-150000J0D01*
G01*
X22108580Y-15083580D02*
G75*
G02*
X22408580Y-15083580I150000J0D01*
G01*
X22408580Y-16983580D02*
G75*
G02*
X22108580Y-16983580I-150000J0D01*
G01*
X22108580Y-16983580D02*
G75*
G02*
X22408580Y-16983580I150000J0D01*
G01*
X23808580Y-16763580D02*
G75*
G02*
X23508580Y-16763580I-150000J0D01*
G01*
X23508580Y-16763580D02*
G75*
G02*
X23808580Y-16763580I150000J0D01*
G01*
X24308580Y-16983580D02*
G75*
G02*
X24008580Y-16983580I-150000J0D01*
G01*
X24008580Y-16983580D02*
G75*
G02*
X24308580Y-16983580I150000J0D01*
G01*
D14*
X16058580Y-12912130D02*
X16058580Y-13255030D01*
X15887130Y-13083580D02*
X16230030Y-13083580D01*
X16058580Y-14812130D02*
X16058580Y-15155030D01*
X15887130Y-14983580D02*
X16230030Y-14983580D01*
X16058580Y-16712130D02*
X16058580Y-17055030D01*
X15887130Y-16883580D02*
X16230030Y-16883580D01*
X17958580Y-11487130D02*
X17958580Y-11830030D01*
X17787130Y-11658580D02*
X18130030Y-11658580D01*
X17958580Y-13387130D02*
X17958580Y-13730030D01*
X17787130Y-13558580D02*
X18130030Y-13558580D01*
X17958580Y-15287130D02*
X17958580Y-15630030D01*
X17787130Y-15458580D02*
X18130030Y-15458580D01*
X19858580Y-10537130D02*
X19858580Y-10880030D01*
X19687130Y-10708580D02*
X20030030Y-10708580D01*
X19858580Y-12437130D02*
X19858580Y-12780030D01*
X19687130Y-12608580D02*
X20030030Y-12608580D01*
X19858580Y-14337130D02*
X19858580Y-14680030D01*
X19687130Y-14508580D02*
X20030030Y-14508580D01*
X21758580Y-11487130D02*
X21758580Y-11830030D01*
X21587130Y-11658580D02*
X21930030Y-11658580D01*
X21758580Y-13387130D02*
X21758580Y-13730030D01*
X21587130Y-13558580D02*
X21930030Y-13558580D01*
X21758580Y-15287130D02*
X21758580Y-15630030D01*
X21587130Y-15458580D02*
X21930030Y-15458580D01*
X21758580Y-17187130D02*
X21758580Y-17530030D01*
X21587130Y-17358580D02*
X21930030Y-17358580D01*
X23658580Y-17187130D02*
X23658580Y-17530030D01*
X23487130Y-17358580D02*
X23830030Y-17358580D01*
D11*
X15111855Y-18877562D02*
X15111855Y-18677562D01*
X15111855Y-18677562D02*
X15159474Y-18677562D01*
X15159474Y-18677562D02*
X15188046Y-18687086D01*
X15188046Y-18687086D02*
X15207093Y-18706134D01*
X15207093Y-18706134D02*
X15216617Y-18725181D01*
X15216617Y-18725181D02*
X15226141Y-18763277D01*
X15226141Y-18763277D02*
X15226141Y-18791848D01*
X15226141Y-18791848D02*
X15216617Y-18829943D01*
X15216617Y-18829943D02*
X15207093Y-18848991D01*
X15207093Y-18848991D02*
X15188046Y-18868039D01*
X15188046Y-18868039D02*
X15159474Y-18877562D01*
X15159474Y-18877562D02*
X15111855Y-18877562D01*
X15311855Y-18877562D02*
X15311855Y-18744229D01*
X15311855Y-18782324D02*
X15321379Y-18763277D01*
X15321379Y-18763277D02*
X15330903Y-18753753D01*
X15330903Y-18753753D02*
X15349951Y-18744229D01*
X15349951Y-18744229D02*
X15368998Y-18744229D01*
X15435665Y-18877562D02*
X15435665Y-18744229D01*
X15435665Y-18677562D02*
X15426141Y-18687086D01*
X15426141Y-18687086D02*
X15435665Y-18696610D01*
X15435665Y-18696610D02*
X15445189Y-18687086D01*
X15445189Y-18687086D02*
X15435665Y-18677562D01*
X15435665Y-18677562D02*
X15435665Y-18696610D01*
X15559474Y-18877562D02*
X15540427Y-18868039D01*
X15540427Y-18868039D02*
X15530903Y-18848991D01*
X15530903Y-18848991D02*
X15530903Y-18677562D01*
X15664236Y-18877562D02*
X15645189Y-18868039D01*
X15645189Y-18868039D02*
X15635665Y-18848991D01*
X15635665Y-18848991D02*
X15635665Y-18677562D01*
X15892808Y-18877562D02*
X15892808Y-18677562D01*
X15892808Y-18677562D02*
X15959474Y-18820420D01*
X15959474Y-18820420D02*
X16026141Y-18677562D01*
X16026141Y-18677562D02*
X16026141Y-18877562D01*
X16207093Y-18877562D02*
X16207093Y-18772801D01*
X16207093Y-18772801D02*
X16197570Y-18753753D01*
X16197570Y-18753753D02*
X16178522Y-18744229D01*
X16178522Y-18744229D02*
X16140427Y-18744229D01*
X16140427Y-18744229D02*
X16121379Y-18753753D01*
X16207093Y-18868039D02*
X16188046Y-18877562D01*
X16188046Y-18877562D02*
X16140427Y-18877562D01*
X16140427Y-18877562D02*
X16121379Y-18868039D01*
X16121379Y-18868039D02*
X16111855Y-18848991D01*
X16111855Y-18848991D02*
X16111855Y-18829943D01*
X16111855Y-18829943D02*
X16121379Y-18810896D01*
X16121379Y-18810896D02*
X16140427Y-18801372D01*
X16140427Y-18801372D02*
X16188046Y-18801372D01*
X16188046Y-18801372D02*
X16207093Y-18791848D01*
X16302332Y-18744229D02*
X16302332Y-18944229D01*
X16302332Y-18753753D02*
X16321379Y-18744229D01*
X16321379Y-18744229D02*
X16359474Y-18744229D01*
X16359474Y-18744229D02*
X16378522Y-18753753D01*
X16378522Y-18753753D02*
X16388046Y-18763277D01*
X16388046Y-18763277D02*
X16397570Y-18782324D01*
X16397570Y-18782324D02*
X16397570Y-18839467D01*
X16397570Y-18839467D02*
X16388046Y-18858515D01*
X16388046Y-18858515D02*
X16378522Y-18868039D01*
X16378522Y-18868039D02*
X16359474Y-18877562D01*
X16359474Y-18877562D02*
X16321379Y-18877562D01*
X16321379Y-18877562D02*
X16302332Y-18868039D01*
X16483284Y-18858515D02*
X16492808Y-18868039D01*
X16492808Y-18868039D02*
X16483284Y-18877562D01*
X16483284Y-18877562D02*
X16473760Y-18868039D01*
X16473760Y-18868039D02*
X16483284Y-18858515D01*
X16483284Y-18858515D02*
X16483284Y-18877562D01*
X16483284Y-18753753D02*
X16492808Y-18763277D01*
X16492808Y-18763277D02*
X16483284Y-18772801D01*
X16483284Y-18772801D02*
X16473760Y-18763277D01*
X16473760Y-18763277D02*
X16483284Y-18753753D01*
X16483284Y-18753753D02*
X16483284Y-18772801D01*
D12*
X14680899Y-19120989D02*
X14851079Y-19291169D01*
X14851079Y-19120989D02*
X14680899Y-19291169D01*
D11*
X15216617Y-19297562D02*
X15102332Y-19297562D01*
X15159474Y-19297562D02*
X15159474Y-19097562D01*
X15159474Y-19097562D02*
X15140427Y-19126134D01*
X15140427Y-19126134D02*
X15121379Y-19145181D01*
X15121379Y-19145181D02*
X15102332Y-19154705D01*
X15302332Y-19278515D02*
X15311855Y-19288039D01*
X15311855Y-19288039D02*
X15302332Y-19297562D01*
X15302332Y-19297562D02*
X15292808Y-19288039D01*
X15292808Y-19288039D02*
X15302332Y-19278515D01*
X15302332Y-19278515D02*
X15302332Y-19297562D01*
X15378522Y-19097562D02*
X15511855Y-19097562D01*
X15511855Y-19097562D02*
X15426141Y-19297562D01*
X15626141Y-19097562D02*
X15645189Y-19097562D01*
X15645189Y-19097562D02*
X15664236Y-19107086D01*
X15664236Y-19107086D02*
X15673760Y-19116610D01*
X15673760Y-19116610D02*
X15683284Y-19135658D01*
X15683284Y-19135658D02*
X15692808Y-19173753D01*
X15692808Y-19173753D02*
X15692808Y-19221372D01*
X15692808Y-19221372D02*
X15683284Y-19259467D01*
X15683284Y-19259467D02*
X15673760Y-19278515D01*
X15673760Y-19278515D02*
X15664236Y-19288039D01*
X15664236Y-19288039D02*
X15645189Y-19297562D01*
X15645189Y-19297562D02*
X15626141Y-19297562D01*
X15626141Y-19297562D02*
X15607093Y-19288039D01*
X15607093Y-19288039D02*
X15597570Y-19278515D01*
X15597570Y-19278515D02*
X15588046Y-19259467D01*
X15588046Y-19259467D02*
X15578522Y-19221372D01*
X15578522Y-19221372D02*
X15578522Y-19173753D01*
X15578522Y-19173753D02*
X15588046Y-19135658D01*
X15588046Y-19135658D02*
X15597570Y-19116610D01*
X15597570Y-19116610D02*
X15607093Y-19107086D01*
X15607093Y-19107086D02*
X15626141Y-19097562D01*
X15768998Y-19116610D02*
X15778522Y-19107086D01*
X15778522Y-19107086D02*
X15797570Y-19097562D01*
X15797570Y-19097562D02*
X15845189Y-19097562D01*
X15845189Y-19097562D02*
X15864236Y-19107086D01*
X15864236Y-19107086D02*
X15873760Y-19116610D01*
X15873760Y-19116610D02*
X15883284Y-19135658D01*
X15883284Y-19135658D02*
X15883284Y-19154705D01*
X15883284Y-19154705D02*
X15873760Y-19183277D01*
X15873760Y-19183277D02*
X15759474Y-19297562D01*
X15759474Y-19297562D02*
X15883284Y-19297562D01*
X15968998Y-19297562D02*
X15968998Y-19164229D01*
X15968998Y-19183277D02*
X15978522Y-19173753D01*
X15978522Y-19173753D02*
X15997570Y-19164229D01*
X15997570Y-19164229D02*
X16026141Y-19164229D01*
X16026141Y-19164229D02*
X16045189Y-19173753D01*
X16045189Y-19173753D02*
X16054713Y-19192801D01*
X16054713Y-19192801D02*
X16054713Y-19297562D01*
X16054713Y-19192801D02*
X16064236Y-19173753D01*
X16064236Y-19173753D02*
X16083284Y-19164229D01*
X16083284Y-19164229D02*
X16111855Y-19164229D01*
X16111855Y-19164229D02*
X16130903Y-19173753D01*
X16130903Y-19173753D02*
X16140427Y-19192801D01*
X16140427Y-19192801D02*
X16140427Y-19297562D01*
X16235665Y-19297562D02*
X16235665Y-19164229D01*
X16235665Y-19183277D02*
X16245189Y-19173753D01*
X16245189Y-19173753D02*
X16264236Y-19164229D01*
X16264236Y-19164229D02*
X16292808Y-19164229D01*
X16292808Y-19164229D02*
X16311855Y-19173753D01*
X16311855Y-19173753D02*
X16321379Y-19192801D01*
X16321379Y-19192801D02*
X16321379Y-19297562D01*
X16321379Y-19192801D02*
X16330903Y-19173753D01*
X16330903Y-19173753D02*
X16349951Y-19164229D01*
X16349951Y-19164229D02*
X16378522Y-19164229D01*
X16378522Y-19164229D02*
X16397570Y-19173753D01*
X16397570Y-19173753D02*
X16407094Y-19192801D01*
X16407094Y-19192801D02*
X16407094Y-19297562D01*
X16797570Y-19088039D02*
X16626141Y-19345181D01*
X17054713Y-19097562D02*
X17073760Y-19097562D01*
X17073760Y-19097562D02*
X17092808Y-19107086D01*
X17092808Y-19107086D02*
X17102332Y-19116610D01*
X17102332Y-19116610D02*
X17111856Y-19135658D01*
X17111856Y-19135658D02*
X17121379Y-19173753D01*
X17121379Y-19173753D02*
X17121379Y-19221372D01*
X17121379Y-19221372D02*
X17111856Y-19259467D01*
X17111856Y-19259467D02*
X17102332Y-19278515D01*
X17102332Y-19278515D02*
X17092808Y-19288039D01*
X17092808Y-19288039D02*
X17073760Y-19297562D01*
X17073760Y-19297562D02*
X17054713Y-19297562D01*
X17054713Y-19297562D02*
X17035665Y-19288039D01*
X17035665Y-19288039D02*
X17026141Y-19278515D01*
X17026141Y-19278515D02*
X17016618Y-19259467D01*
X17016618Y-19259467D02*
X17007094Y-19221372D01*
X17007094Y-19221372D02*
X17007094Y-19173753D01*
X17007094Y-19173753D02*
X17016618Y-19135658D01*
X17016618Y-19135658D02*
X17026141Y-19116610D01*
X17026141Y-19116610D02*
X17035665Y-19107086D01*
X17035665Y-19107086D02*
X17054713Y-19097562D01*
X17207094Y-19278515D02*
X17216618Y-19288039D01*
X17216618Y-19288039D02*
X17207094Y-19297562D01*
X17207094Y-19297562D02*
X17197570Y-19288039D01*
X17197570Y-19288039D02*
X17207094Y-19278515D01*
X17207094Y-19278515D02*
X17207094Y-19297562D01*
X17340427Y-19097562D02*
X17359475Y-19097562D01*
X17359475Y-19097562D02*
X17378522Y-19107086D01*
X17378522Y-19107086D02*
X17388046Y-19116610D01*
X17388046Y-19116610D02*
X17397570Y-19135658D01*
X17397570Y-19135658D02*
X17407094Y-19173753D01*
X17407094Y-19173753D02*
X17407094Y-19221372D01*
X17407094Y-19221372D02*
X17397570Y-19259467D01*
X17397570Y-19259467D02*
X17388046Y-19278515D01*
X17388046Y-19278515D02*
X17378522Y-19288039D01*
X17378522Y-19288039D02*
X17359475Y-19297562D01*
X17359475Y-19297562D02*
X17340427Y-19297562D01*
X17340427Y-19297562D02*
X17321379Y-19288039D01*
X17321379Y-19288039D02*
X17311856Y-19278515D01*
X17311856Y-19278515D02*
X17302332Y-19259467D01*
X17302332Y-19259467D02*
X17292808Y-19221372D01*
X17292808Y-19221372D02*
X17292808Y-19173753D01*
X17292808Y-19173753D02*
X17302332Y-19135658D01*
X17302332Y-19135658D02*
X17311856Y-19116610D01*
X17311856Y-19116610D02*
X17321379Y-19107086D01*
X17321379Y-19107086D02*
X17340427Y-19097562D01*
X17578522Y-19097562D02*
X17540427Y-19097562D01*
X17540427Y-19097562D02*
X17521379Y-19107086D01*
X17521379Y-19107086D02*
X17511856Y-19116610D01*
X17511856Y-19116610D02*
X17492808Y-19145181D01*
X17492808Y-19145181D02*
X17483284Y-19183277D01*
X17483284Y-19183277D02*
X17483284Y-19259467D01*
X17483284Y-19259467D02*
X17492808Y-19278515D01*
X17492808Y-19278515D02*
X17502332Y-19288039D01*
X17502332Y-19288039D02*
X17521379Y-19297562D01*
X17521379Y-19297562D02*
X17559475Y-19297562D01*
X17559475Y-19297562D02*
X17578522Y-19288039D01*
X17578522Y-19288039D02*
X17588046Y-19278515D01*
X17588046Y-19278515D02*
X17597570Y-19259467D01*
X17597570Y-19259467D02*
X17597570Y-19211848D01*
X17597570Y-19211848D02*
X17588046Y-19192801D01*
X17588046Y-19192801D02*
X17578522Y-19183277D01*
X17578522Y-19183277D02*
X17559475Y-19173753D01*
X17559475Y-19173753D02*
X17521379Y-19173753D01*
X17521379Y-19173753D02*
X17502332Y-19183277D01*
X17502332Y-19183277D02*
X17492808Y-19192801D01*
X17492808Y-19192801D02*
X17483284Y-19211848D01*
X17664237Y-19097562D02*
X17797570Y-19097562D01*
X17797570Y-19097562D02*
X17711856Y-19297562D01*
X17911856Y-19097562D02*
X17930903Y-19097562D01*
X17930903Y-19097562D02*
X17949951Y-19107086D01*
X17949951Y-19107086D02*
X17959475Y-19116610D01*
X17959475Y-19116610D02*
X17968999Y-19135658D01*
X17968999Y-19135658D02*
X17978522Y-19173753D01*
X17978522Y-19173753D02*
X17978522Y-19221372D01*
X17978522Y-19221372D02*
X17968999Y-19259467D01*
X17968999Y-19259467D02*
X17959475Y-19278515D01*
X17959475Y-19278515D02*
X17949951Y-19288039D01*
X17949951Y-19288039D02*
X17930903Y-19297562D01*
X17930903Y-19297562D02*
X17911856Y-19297562D01*
X17911856Y-19297562D02*
X17892808Y-19288039D01*
X17892808Y-19288039D02*
X17883284Y-19278515D01*
X17883284Y-19278515D02*
X17873760Y-19259467D01*
X17873760Y-19259467D02*
X17864237Y-19221372D01*
X17864237Y-19221372D02*
X17864237Y-19173753D01*
X17864237Y-19173753D02*
X17873760Y-19135658D01*
X17873760Y-19135658D02*
X17883284Y-19116610D01*
X17883284Y-19116610D02*
X17892808Y-19107086D01*
X17892808Y-19107086D02*
X17911856Y-19097562D01*
X18054713Y-19097562D02*
X18054713Y-19135658D01*
X18130903Y-19097562D02*
X18130903Y-19135658D01*
X18426142Y-19373753D02*
X18416618Y-19364229D01*
X18416618Y-19364229D02*
X18397570Y-19335658D01*
X18397570Y-19335658D02*
X18388046Y-19316610D01*
X18388046Y-19316610D02*
X18378522Y-19288039D01*
X18378522Y-19288039D02*
X18368999Y-19240420D01*
X18368999Y-19240420D02*
X18368999Y-19202324D01*
X18368999Y-19202324D02*
X18378522Y-19154705D01*
X18378522Y-19154705D02*
X18388046Y-19126134D01*
X18388046Y-19126134D02*
X18397570Y-19107086D01*
X18397570Y-19107086D02*
X18416618Y-19078515D01*
X18416618Y-19078515D02*
X18426142Y-19068991D01*
X18492808Y-19116610D02*
X18502332Y-19107086D01*
X18502332Y-19107086D02*
X18521380Y-19097562D01*
X18521380Y-19097562D02*
X18568999Y-19097562D01*
X18568999Y-19097562D02*
X18588046Y-19107086D01*
X18588046Y-19107086D02*
X18597570Y-19116610D01*
X18597570Y-19116610D02*
X18607094Y-19135658D01*
X18607094Y-19135658D02*
X18607094Y-19154705D01*
X18607094Y-19154705D02*
X18597570Y-19183277D01*
X18597570Y-19183277D02*
X18483284Y-19297562D01*
X18483284Y-19297562D02*
X18607094Y-19297562D01*
X18721380Y-19183277D02*
X18702332Y-19173753D01*
X18702332Y-19173753D02*
X18692808Y-19164229D01*
X18692808Y-19164229D02*
X18683284Y-19145181D01*
X18683284Y-19145181D02*
X18683284Y-19135658D01*
X18683284Y-19135658D02*
X18692808Y-19116610D01*
X18692808Y-19116610D02*
X18702332Y-19107086D01*
X18702332Y-19107086D02*
X18721380Y-19097562D01*
X18721380Y-19097562D02*
X18759475Y-19097562D01*
X18759475Y-19097562D02*
X18778522Y-19107086D01*
X18778522Y-19107086D02*
X18788046Y-19116610D01*
X18788046Y-19116610D02*
X18797570Y-19135658D01*
X18797570Y-19135658D02*
X18797570Y-19145181D01*
X18797570Y-19145181D02*
X18788046Y-19164229D01*
X18788046Y-19164229D02*
X18778522Y-19173753D01*
X18778522Y-19173753D02*
X18759475Y-19183277D01*
X18759475Y-19183277D02*
X18721380Y-19183277D01*
X18721380Y-19183277D02*
X18702332Y-19192801D01*
X18702332Y-19192801D02*
X18692808Y-19202324D01*
X18692808Y-19202324D02*
X18683284Y-19221372D01*
X18683284Y-19221372D02*
X18683284Y-19259467D01*
X18683284Y-19259467D02*
X18692808Y-19278515D01*
X18692808Y-19278515D02*
X18702332Y-19288039D01*
X18702332Y-19288039D02*
X18721380Y-19297562D01*
X18721380Y-19297562D02*
X18759475Y-19297562D01*
X18759475Y-19297562D02*
X18778522Y-19288039D01*
X18778522Y-19288039D02*
X18788046Y-19278515D01*
X18788046Y-19278515D02*
X18797570Y-19259467D01*
X18797570Y-19259467D02*
X18797570Y-19221372D01*
X18797570Y-19221372D02*
X18788046Y-19202324D01*
X18788046Y-19202324D02*
X18778522Y-19192801D01*
X18778522Y-19192801D02*
X18759475Y-19183277D01*
X19035665Y-19297562D02*
X19035665Y-19097562D01*
X19121380Y-19297562D02*
X19121380Y-19192801D01*
X19121380Y-19192801D02*
X19111856Y-19173753D01*
X19111856Y-19173753D02*
X19092808Y-19164229D01*
X19092808Y-19164229D02*
X19064237Y-19164229D01*
X19064237Y-19164229D02*
X19045189Y-19173753D01*
X19045189Y-19173753D02*
X19035665Y-19183277D01*
X19245189Y-19297562D02*
X19226142Y-19288039D01*
X19226142Y-19288039D02*
X19216618Y-19278515D01*
X19216618Y-19278515D02*
X19207094Y-19259467D01*
X19207094Y-19259467D02*
X19207094Y-19202324D01*
X19207094Y-19202324D02*
X19216618Y-19183277D01*
X19216618Y-19183277D02*
X19226142Y-19173753D01*
X19226142Y-19173753D02*
X19245189Y-19164229D01*
X19245189Y-19164229D02*
X19273761Y-19164229D01*
X19273761Y-19164229D02*
X19292808Y-19173753D01*
X19292808Y-19173753D02*
X19302332Y-19183277D01*
X19302332Y-19183277D02*
X19311856Y-19202324D01*
X19311856Y-19202324D02*
X19311856Y-19259467D01*
X19311856Y-19259467D02*
X19302332Y-19278515D01*
X19302332Y-19278515D02*
X19292808Y-19288039D01*
X19292808Y-19288039D02*
X19273761Y-19297562D01*
X19273761Y-19297562D02*
X19245189Y-19297562D01*
X19426142Y-19297562D02*
X19407094Y-19288039D01*
X19407094Y-19288039D02*
X19397570Y-19268991D01*
X19397570Y-19268991D02*
X19397570Y-19097562D01*
X19578523Y-19288039D02*
X19559475Y-19297562D01*
X19559475Y-19297562D02*
X19521380Y-19297562D01*
X19521380Y-19297562D02*
X19502332Y-19288039D01*
X19502332Y-19288039D02*
X19492808Y-19268991D01*
X19492808Y-19268991D02*
X19492808Y-19192801D01*
X19492808Y-19192801D02*
X19502332Y-19173753D01*
X19502332Y-19173753D02*
X19521380Y-19164229D01*
X19521380Y-19164229D02*
X19559475Y-19164229D01*
X19559475Y-19164229D02*
X19578523Y-19173753D01*
X19578523Y-19173753D02*
X19588046Y-19192801D01*
X19588046Y-19192801D02*
X19588046Y-19211848D01*
X19588046Y-19211848D02*
X19492808Y-19230896D01*
X19664237Y-19288039D02*
X19683284Y-19297562D01*
X19683284Y-19297562D02*
X19721380Y-19297562D01*
X19721380Y-19297562D02*
X19740427Y-19288039D01*
X19740427Y-19288039D02*
X19749951Y-19268991D01*
X19749951Y-19268991D02*
X19749951Y-19259467D01*
X19749951Y-19259467D02*
X19740427Y-19240420D01*
X19740427Y-19240420D02*
X19721380Y-19230896D01*
X19721380Y-19230896D02*
X19692808Y-19230896D01*
X19692808Y-19230896D02*
X19673761Y-19221372D01*
X19673761Y-19221372D02*
X19664237Y-19202324D01*
X19664237Y-19202324D02*
X19664237Y-19192801D01*
X19664237Y-19192801D02*
X19673761Y-19173753D01*
X19673761Y-19173753D02*
X19692808Y-19164229D01*
X19692808Y-19164229D02*
X19721380Y-19164229D01*
X19721380Y-19164229D02*
X19740427Y-19173753D01*
X19816618Y-19373753D02*
X19826142Y-19364229D01*
X19826142Y-19364229D02*
X19845189Y-19335658D01*
X19845189Y-19335658D02*
X19854713Y-19316610D01*
X19854713Y-19316610D02*
X19864237Y-19288039D01*
X19864237Y-19288039D02*
X19873761Y-19240420D01*
X19873761Y-19240420D02*
X19873761Y-19202324D01*
X19873761Y-19202324D02*
X19864237Y-19154705D01*
X19864237Y-19154705D02*
X19854713Y-19126134D01*
X19854713Y-19126134D02*
X19845189Y-19107086D01*
X19845189Y-19107086D02*
X19826142Y-19078515D01*
X19826142Y-19078515D02*
X19816618Y-19068991D01*
X20178523Y-19373753D02*
X20168999Y-19364229D01*
X20168999Y-19364229D02*
X20149951Y-19335658D01*
X20149951Y-19335658D02*
X20140427Y-19316610D01*
X20140427Y-19316610D02*
X20130904Y-19288039D01*
X20130904Y-19288039D02*
X20121380Y-19240420D01*
X20121380Y-19240420D02*
X20121380Y-19202324D01*
X20121380Y-19202324D02*
X20130904Y-19154705D01*
X20130904Y-19154705D02*
X20140427Y-19126134D01*
X20140427Y-19126134D02*
X20149951Y-19107086D01*
X20149951Y-19107086D02*
X20168999Y-19078515D01*
X20168999Y-19078515D02*
X20178523Y-19068991D01*
X20254713Y-19164229D02*
X20254713Y-19297562D01*
X20254713Y-19183277D02*
X20264237Y-19173753D01*
X20264237Y-19173753D02*
X20283284Y-19164229D01*
X20283284Y-19164229D02*
X20311856Y-19164229D01*
X20311856Y-19164229D02*
X20330904Y-19173753D01*
X20330904Y-19173753D02*
X20340427Y-19192801D01*
X20340427Y-19192801D02*
X20340427Y-19297562D01*
X20464237Y-19297562D02*
X20445189Y-19288039D01*
X20445189Y-19288039D02*
X20435665Y-19278515D01*
X20435665Y-19278515D02*
X20426142Y-19259467D01*
X20426142Y-19259467D02*
X20426142Y-19202324D01*
X20426142Y-19202324D02*
X20435665Y-19183277D01*
X20435665Y-19183277D02*
X20445189Y-19173753D01*
X20445189Y-19173753D02*
X20464237Y-19164229D01*
X20464237Y-19164229D02*
X20492808Y-19164229D01*
X20492808Y-19164229D02*
X20511856Y-19173753D01*
X20511856Y-19173753D02*
X20521380Y-19183277D01*
X20521380Y-19183277D02*
X20530904Y-19202324D01*
X20530904Y-19202324D02*
X20530904Y-19259467D01*
X20530904Y-19259467D02*
X20521380Y-19278515D01*
X20521380Y-19278515D02*
X20511856Y-19288039D01*
X20511856Y-19288039D02*
X20492808Y-19297562D01*
X20492808Y-19297562D02*
X20464237Y-19297562D01*
X20588046Y-19164229D02*
X20664237Y-19164229D01*
X20616618Y-19097562D02*
X20616618Y-19268991D01*
X20616618Y-19268991D02*
X20626142Y-19288039D01*
X20626142Y-19288039D02*
X20645189Y-19297562D01*
X20645189Y-19297562D02*
X20664237Y-19297562D01*
X20883285Y-19164229D02*
X20883285Y-19364229D01*
X20883285Y-19173753D02*
X20902332Y-19164229D01*
X20902332Y-19164229D02*
X20940427Y-19164229D01*
X20940427Y-19164229D02*
X20959475Y-19173753D01*
X20959475Y-19173753D02*
X20968999Y-19183277D01*
X20968999Y-19183277D02*
X20978523Y-19202324D01*
X20978523Y-19202324D02*
X20978523Y-19259467D01*
X20978523Y-19259467D02*
X20968999Y-19278515D01*
X20968999Y-19278515D02*
X20959475Y-19288039D01*
X20959475Y-19288039D02*
X20940427Y-19297562D01*
X20940427Y-19297562D02*
X20902332Y-19297562D01*
X20902332Y-19297562D02*
X20883285Y-19288039D01*
X21092808Y-19297562D02*
X21073761Y-19288039D01*
X21073761Y-19288039D02*
X21064237Y-19268991D01*
X21064237Y-19268991D02*
X21064237Y-19097562D01*
X21254713Y-19297562D02*
X21254713Y-19192801D01*
X21254713Y-19192801D02*
X21245189Y-19173753D01*
X21245189Y-19173753D02*
X21226142Y-19164229D01*
X21226142Y-19164229D02*
X21188046Y-19164229D01*
X21188046Y-19164229D02*
X21168999Y-19173753D01*
X21254713Y-19288039D02*
X21235666Y-19297562D01*
X21235666Y-19297562D02*
X21188046Y-19297562D01*
X21188046Y-19297562D02*
X21168999Y-19288039D01*
X21168999Y-19288039D02*
X21159475Y-19268991D01*
X21159475Y-19268991D02*
X21159475Y-19249943D01*
X21159475Y-19249943D02*
X21168999Y-19230896D01*
X21168999Y-19230896D02*
X21188046Y-19221372D01*
X21188046Y-19221372D02*
X21235666Y-19221372D01*
X21235666Y-19221372D02*
X21254713Y-19211848D01*
X21321380Y-19164229D02*
X21397570Y-19164229D01*
X21349951Y-19097562D02*
X21349951Y-19268991D01*
X21349951Y-19268991D02*
X21359475Y-19288039D01*
X21359475Y-19288039D02*
X21378523Y-19297562D01*
X21378523Y-19297562D02*
X21397570Y-19297562D01*
X21540427Y-19288039D02*
X21521380Y-19297562D01*
X21521380Y-19297562D02*
X21483285Y-19297562D01*
X21483285Y-19297562D02*
X21464237Y-19288039D01*
X21464237Y-19288039D02*
X21454713Y-19268991D01*
X21454713Y-19268991D02*
X21454713Y-19192801D01*
X21454713Y-19192801D02*
X21464237Y-19173753D01*
X21464237Y-19173753D02*
X21483285Y-19164229D01*
X21483285Y-19164229D02*
X21521380Y-19164229D01*
X21521380Y-19164229D02*
X21540427Y-19173753D01*
X21540427Y-19173753D02*
X21549951Y-19192801D01*
X21549951Y-19192801D02*
X21549951Y-19211848D01*
X21549951Y-19211848D02*
X21454713Y-19230896D01*
X21721380Y-19297562D02*
X21721380Y-19097562D01*
X21721380Y-19288039D02*
X21702332Y-19297562D01*
X21702332Y-19297562D02*
X21664237Y-19297562D01*
X21664237Y-19297562D02*
X21645189Y-19288039D01*
X21645189Y-19288039D02*
X21635666Y-19278515D01*
X21635666Y-19278515D02*
X21626142Y-19259467D01*
X21626142Y-19259467D02*
X21626142Y-19202324D01*
X21626142Y-19202324D02*
X21635666Y-19183277D01*
X21635666Y-19183277D02*
X21645189Y-19173753D01*
X21645189Y-19173753D02*
X21664237Y-19164229D01*
X21664237Y-19164229D02*
X21702332Y-19164229D01*
X21702332Y-19164229D02*
X21721380Y-19173753D01*
X21797570Y-19373753D02*
X21807094Y-19364229D01*
X21807094Y-19364229D02*
X21826142Y-19335658D01*
X21826142Y-19335658D02*
X21835666Y-19316610D01*
X21835666Y-19316610D02*
X21845189Y-19288039D01*
X21845189Y-19288039D02*
X21854713Y-19240420D01*
X21854713Y-19240420D02*
X21854713Y-19202324D01*
X21854713Y-19202324D02*
X21845189Y-19154705D01*
X21845189Y-19154705D02*
X21835666Y-19126134D01*
X21835666Y-19126134D02*
X21826142Y-19107086D01*
X21826142Y-19107086D02*
X21807094Y-19078515D01*
X21807094Y-19078515D02*
X21797570Y-19068991D01*
X14851079Y-19496259D02*
G75*
G02*
X14651079Y-19496259I-100000J0D01*
G01*
X14651079Y-19496259D02*
G75*
G02*
X14851079Y-19496259I100000J0D01*
G01*
X15092808Y-19387742D02*
X15216617Y-19387742D01*
X15216617Y-19387742D02*
X15149951Y-19463933D01*
X15149951Y-19463933D02*
X15178522Y-19463933D01*
X15178522Y-19463933D02*
X15197570Y-19473457D01*
X15197570Y-19473457D02*
X15207093Y-19482981D01*
X15207093Y-19482981D02*
X15216617Y-19502028D01*
X15216617Y-19502028D02*
X15216617Y-19549647D01*
X15216617Y-19549647D02*
X15207093Y-19568695D01*
X15207093Y-19568695D02*
X15197570Y-19578219D01*
X15197570Y-19578219D02*
X15178522Y-19587742D01*
X15178522Y-19587742D02*
X15121379Y-19587742D01*
X15121379Y-19587742D02*
X15102332Y-19578219D01*
X15102332Y-19578219D02*
X15092808Y-19568695D01*
X15302332Y-19568695D02*
X15311855Y-19578219D01*
X15311855Y-19578219D02*
X15302332Y-19587742D01*
X15302332Y-19587742D02*
X15292808Y-19578219D01*
X15292808Y-19578219D02*
X15302332Y-19568695D01*
X15302332Y-19568695D02*
X15302332Y-19587742D01*
X15435665Y-19387742D02*
X15454713Y-19387742D01*
X15454713Y-19387742D02*
X15473760Y-19397266D01*
X15473760Y-19397266D02*
X15483284Y-19406790D01*
X15483284Y-19406790D02*
X15492808Y-19425838D01*
X15492808Y-19425838D02*
X15502332Y-19463933D01*
X15502332Y-19463933D02*
X15502332Y-19511552D01*
X15502332Y-19511552D02*
X15492808Y-19549647D01*
X15492808Y-19549647D02*
X15483284Y-19568695D01*
X15483284Y-19568695D02*
X15473760Y-19578219D01*
X15473760Y-19578219D02*
X15454713Y-19587742D01*
X15454713Y-19587742D02*
X15435665Y-19587742D01*
X15435665Y-19587742D02*
X15416617Y-19578219D01*
X15416617Y-19578219D02*
X15407093Y-19568695D01*
X15407093Y-19568695D02*
X15397570Y-19549647D01*
X15397570Y-19549647D02*
X15388046Y-19511552D01*
X15388046Y-19511552D02*
X15388046Y-19463933D01*
X15388046Y-19463933D02*
X15397570Y-19425838D01*
X15397570Y-19425838D02*
X15407093Y-19406790D01*
X15407093Y-19406790D02*
X15416617Y-19397266D01*
X15416617Y-19397266D02*
X15435665Y-19387742D01*
X15626141Y-19387742D02*
X15645189Y-19387742D01*
X15645189Y-19387742D02*
X15664236Y-19397266D01*
X15664236Y-19397266D02*
X15673760Y-19406790D01*
X15673760Y-19406790D02*
X15683284Y-19425838D01*
X15683284Y-19425838D02*
X15692808Y-19463933D01*
X15692808Y-19463933D02*
X15692808Y-19511552D01*
X15692808Y-19511552D02*
X15683284Y-19549647D01*
X15683284Y-19549647D02*
X15673760Y-19568695D01*
X15673760Y-19568695D02*
X15664236Y-19578219D01*
X15664236Y-19578219D02*
X15645189Y-19587742D01*
X15645189Y-19587742D02*
X15626141Y-19587742D01*
X15626141Y-19587742D02*
X15607093Y-19578219D01*
X15607093Y-19578219D02*
X15597570Y-19568695D01*
X15597570Y-19568695D02*
X15588046Y-19549647D01*
X15588046Y-19549647D02*
X15578522Y-19511552D01*
X15578522Y-19511552D02*
X15578522Y-19463933D01*
X15578522Y-19463933D02*
X15588046Y-19425838D01*
X15588046Y-19425838D02*
X15597570Y-19406790D01*
X15597570Y-19406790D02*
X15607093Y-19397266D01*
X15607093Y-19397266D02*
X15626141Y-19387742D01*
X15816617Y-19387742D02*
X15835665Y-19387742D01*
X15835665Y-19387742D02*
X15854713Y-19397266D01*
X15854713Y-19397266D02*
X15864236Y-19406790D01*
X15864236Y-19406790D02*
X15873760Y-19425838D01*
X15873760Y-19425838D02*
X15883284Y-19463933D01*
X15883284Y-19463933D02*
X15883284Y-19511552D01*
X15883284Y-19511552D02*
X15873760Y-19549647D01*
X15873760Y-19549647D02*
X15864236Y-19568695D01*
X15864236Y-19568695D02*
X15854713Y-19578219D01*
X15854713Y-19578219D02*
X15835665Y-19587742D01*
X15835665Y-19587742D02*
X15816617Y-19587742D01*
X15816617Y-19587742D02*
X15797570Y-19578219D01*
X15797570Y-19578219D02*
X15788046Y-19568695D01*
X15788046Y-19568695D02*
X15778522Y-19549647D01*
X15778522Y-19549647D02*
X15768998Y-19511552D01*
X15768998Y-19511552D02*
X15768998Y-19463933D01*
X15768998Y-19463933D02*
X15778522Y-19425838D01*
X15778522Y-19425838D02*
X15788046Y-19406790D01*
X15788046Y-19406790D02*
X15797570Y-19397266D01*
X15797570Y-19397266D02*
X15816617Y-19387742D01*
X15968998Y-19587742D02*
X15968998Y-19454409D01*
X15968998Y-19473457D02*
X15978522Y-19463933D01*
X15978522Y-19463933D02*
X15997570Y-19454409D01*
X15997570Y-19454409D02*
X16026141Y-19454409D01*
X16026141Y-19454409D02*
X16045189Y-19463933D01*
X16045189Y-19463933D02*
X16054713Y-19482981D01*
X16054713Y-19482981D02*
X16054713Y-19587742D01*
X16054713Y-19482981D02*
X16064236Y-19463933D01*
X16064236Y-19463933D02*
X16083284Y-19454409D01*
X16083284Y-19454409D02*
X16111855Y-19454409D01*
X16111855Y-19454409D02*
X16130903Y-19463933D01*
X16130903Y-19463933D02*
X16140427Y-19482981D01*
X16140427Y-19482981D02*
X16140427Y-19587742D01*
X16235665Y-19587742D02*
X16235665Y-19454409D01*
X16235665Y-19473457D02*
X16245189Y-19463933D01*
X16245189Y-19463933D02*
X16264236Y-19454409D01*
X16264236Y-19454409D02*
X16292808Y-19454409D01*
X16292808Y-19454409D02*
X16311855Y-19463933D01*
X16311855Y-19463933D02*
X16321379Y-19482981D01*
X16321379Y-19482981D02*
X16321379Y-19587742D01*
X16321379Y-19482981D02*
X16330903Y-19463933D01*
X16330903Y-19463933D02*
X16349951Y-19454409D01*
X16349951Y-19454409D02*
X16378522Y-19454409D01*
X16378522Y-19454409D02*
X16397570Y-19463933D01*
X16397570Y-19463933D02*
X16407094Y-19482981D01*
X16407094Y-19482981D02*
X16407094Y-19587742D01*
X16797570Y-19378219D02*
X16626141Y-19635361D01*
X17054713Y-19387742D02*
X17073760Y-19387742D01*
X17073760Y-19387742D02*
X17092808Y-19397266D01*
X17092808Y-19397266D02*
X17102332Y-19406790D01*
X17102332Y-19406790D02*
X17111856Y-19425838D01*
X17111856Y-19425838D02*
X17121379Y-19463933D01*
X17121379Y-19463933D02*
X17121379Y-19511552D01*
X17121379Y-19511552D02*
X17111856Y-19549647D01*
X17111856Y-19549647D02*
X17102332Y-19568695D01*
X17102332Y-19568695D02*
X17092808Y-19578219D01*
X17092808Y-19578219D02*
X17073760Y-19587742D01*
X17073760Y-19587742D02*
X17054713Y-19587742D01*
X17054713Y-19587742D02*
X17035665Y-19578219D01*
X17035665Y-19578219D02*
X17026141Y-19568695D01*
X17026141Y-19568695D02*
X17016618Y-19549647D01*
X17016618Y-19549647D02*
X17007094Y-19511552D01*
X17007094Y-19511552D02*
X17007094Y-19463933D01*
X17007094Y-19463933D02*
X17016618Y-19425838D01*
X17016618Y-19425838D02*
X17026141Y-19406790D01*
X17026141Y-19406790D02*
X17035665Y-19397266D01*
X17035665Y-19397266D02*
X17054713Y-19387742D01*
X17207094Y-19568695D02*
X17216618Y-19578219D01*
X17216618Y-19578219D02*
X17207094Y-19587742D01*
X17207094Y-19587742D02*
X17197570Y-19578219D01*
X17197570Y-19578219D02*
X17207094Y-19568695D01*
X17207094Y-19568695D02*
X17207094Y-19587742D01*
X17407094Y-19587742D02*
X17292808Y-19587742D01*
X17349951Y-19587742D02*
X17349951Y-19387742D01*
X17349951Y-19387742D02*
X17330903Y-19416314D01*
X17330903Y-19416314D02*
X17311856Y-19435361D01*
X17311856Y-19435361D02*
X17292808Y-19444885D01*
X17597570Y-19587742D02*
X17483284Y-19587742D01*
X17540427Y-19587742D02*
X17540427Y-19387742D01*
X17540427Y-19387742D02*
X17521379Y-19416314D01*
X17521379Y-19416314D02*
X17502332Y-19435361D01*
X17502332Y-19435361D02*
X17483284Y-19444885D01*
X17711856Y-19473457D02*
X17692808Y-19463933D01*
X17692808Y-19463933D02*
X17683284Y-19454409D01*
X17683284Y-19454409D02*
X17673760Y-19435361D01*
X17673760Y-19435361D02*
X17673760Y-19425838D01*
X17673760Y-19425838D02*
X17683284Y-19406790D01*
X17683284Y-19406790D02*
X17692808Y-19397266D01*
X17692808Y-19397266D02*
X17711856Y-19387742D01*
X17711856Y-19387742D02*
X17749951Y-19387742D01*
X17749951Y-19387742D02*
X17768999Y-19397266D01*
X17768999Y-19397266D02*
X17778522Y-19406790D01*
X17778522Y-19406790D02*
X17788046Y-19425838D01*
X17788046Y-19425838D02*
X17788046Y-19435361D01*
X17788046Y-19435361D02*
X17778522Y-19454409D01*
X17778522Y-19454409D02*
X17768999Y-19463933D01*
X17768999Y-19463933D02*
X17749951Y-19473457D01*
X17749951Y-19473457D02*
X17711856Y-19473457D01*
X17711856Y-19473457D02*
X17692808Y-19482981D01*
X17692808Y-19482981D02*
X17683284Y-19492504D01*
X17683284Y-19492504D02*
X17673760Y-19511552D01*
X17673760Y-19511552D02*
X17673760Y-19549647D01*
X17673760Y-19549647D02*
X17683284Y-19568695D01*
X17683284Y-19568695D02*
X17692808Y-19578219D01*
X17692808Y-19578219D02*
X17711856Y-19587742D01*
X17711856Y-19587742D02*
X17749951Y-19587742D01*
X17749951Y-19587742D02*
X17768999Y-19578219D01*
X17768999Y-19578219D02*
X17778522Y-19568695D01*
X17778522Y-19568695D02*
X17788046Y-19549647D01*
X17788046Y-19549647D02*
X17788046Y-19511552D01*
X17788046Y-19511552D02*
X17778522Y-19492504D01*
X17778522Y-19492504D02*
X17768999Y-19482981D01*
X17768999Y-19482981D02*
X17749951Y-19473457D01*
X17978522Y-19587742D02*
X17864237Y-19587742D01*
X17921379Y-19587742D02*
X17921379Y-19387742D01*
X17921379Y-19387742D02*
X17902332Y-19416314D01*
X17902332Y-19416314D02*
X17883284Y-19435361D01*
X17883284Y-19435361D02*
X17864237Y-19444885D01*
X18054713Y-19387742D02*
X18054713Y-19425838D01*
X18130903Y-19387742D02*
X18130903Y-19425838D01*
X18426142Y-19663933D02*
X18416618Y-19654409D01*
X18416618Y-19654409D02*
X18397570Y-19625838D01*
X18397570Y-19625838D02*
X18388046Y-19606790D01*
X18388046Y-19606790D02*
X18378522Y-19578219D01*
X18378522Y-19578219D02*
X18368999Y-19530600D01*
X18368999Y-19530600D02*
X18368999Y-19492504D01*
X18368999Y-19492504D02*
X18378522Y-19444885D01*
X18378522Y-19444885D02*
X18388046Y-19416314D01*
X18388046Y-19416314D02*
X18397570Y-19397266D01*
X18397570Y-19397266D02*
X18416618Y-19368695D01*
X18416618Y-19368695D02*
X18426142Y-19359171D01*
X18492808Y-19406790D02*
X18502332Y-19397266D01*
X18502332Y-19397266D02*
X18521380Y-19387742D01*
X18521380Y-19387742D02*
X18568999Y-19387742D01*
X18568999Y-19387742D02*
X18588046Y-19397266D01*
X18588046Y-19397266D02*
X18597570Y-19406790D01*
X18597570Y-19406790D02*
X18607094Y-19425838D01*
X18607094Y-19425838D02*
X18607094Y-19444885D01*
X18607094Y-19444885D02*
X18597570Y-19473457D01*
X18597570Y-19473457D02*
X18483284Y-19587742D01*
X18483284Y-19587742D02*
X18607094Y-19587742D01*
X18721380Y-19473457D02*
X18702332Y-19463933D01*
X18702332Y-19463933D02*
X18692808Y-19454409D01*
X18692808Y-19454409D02*
X18683284Y-19435361D01*
X18683284Y-19435361D02*
X18683284Y-19425838D01*
X18683284Y-19425838D02*
X18692808Y-19406790D01*
X18692808Y-19406790D02*
X18702332Y-19397266D01*
X18702332Y-19397266D02*
X18721380Y-19387742D01*
X18721380Y-19387742D02*
X18759475Y-19387742D01*
X18759475Y-19387742D02*
X18778522Y-19397266D01*
X18778522Y-19397266D02*
X18788046Y-19406790D01*
X18788046Y-19406790D02*
X18797570Y-19425838D01*
X18797570Y-19425838D02*
X18797570Y-19435361D01*
X18797570Y-19435361D02*
X18788046Y-19454409D01*
X18788046Y-19454409D02*
X18778522Y-19463933D01*
X18778522Y-19463933D02*
X18759475Y-19473457D01*
X18759475Y-19473457D02*
X18721380Y-19473457D01*
X18721380Y-19473457D02*
X18702332Y-19482981D01*
X18702332Y-19482981D02*
X18692808Y-19492504D01*
X18692808Y-19492504D02*
X18683284Y-19511552D01*
X18683284Y-19511552D02*
X18683284Y-19549647D01*
X18683284Y-19549647D02*
X18692808Y-19568695D01*
X18692808Y-19568695D02*
X18702332Y-19578219D01*
X18702332Y-19578219D02*
X18721380Y-19587742D01*
X18721380Y-19587742D02*
X18759475Y-19587742D01*
X18759475Y-19587742D02*
X18778522Y-19578219D01*
X18778522Y-19578219D02*
X18788046Y-19568695D01*
X18788046Y-19568695D02*
X18797570Y-19549647D01*
X18797570Y-19549647D02*
X18797570Y-19511552D01*
X18797570Y-19511552D02*
X18788046Y-19492504D01*
X18788046Y-19492504D02*
X18778522Y-19482981D01*
X18778522Y-19482981D02*
X18759475Y-19473457D01*
X19035665Y-19587742D02*
X19035665Y-19387742D01*
X19121380Y-19587742D02*
X19121380Y-19482981D01*
X19121380Y-19482981D02*
X19111856Y-19463933D01*
X19111856Y-19463933D02*
X19092808Y-19454409D01*
X19092808Y-19454409D02*
X19064237Y-19454409D01*
X19064237Y-19454409D02*
X19045189Y-19463933D01*
X19045189Y-19463933D02*
X19035665Y-19473457D01*
X19245189Y-19587742D02*
X19226142Y-19578219D01*
X19226142Y-19578219D02*
X19216618Y-19568695D01*
X19216618Y-19568695D02*
X19207094Y-19549647D01*
X19207094Y-19549647D02*
X19207094Y-19492504D01*
X19207094Y-19492504D02*
X19216618Y-19473457D01*
X19216618Y-19473457D02*
X19226142Y-19463933D01*
X19226142Y-19463933D02*
X19245189Y-19454409D01*
X19245189Y-19454409D02*
X19273761Y-19454409D01*
X19273761Y-19454409D02*
X19292808Y-19463933D01*
X19292808Y-19463933D02*
X19302332Y-19473457D01*
X19302332Y-19473457D02*
X19311856Y-19492504D01*
X19311856Y-19492504D02*
X19311856Y-19549647D01*
X19311856Y-19549647D02*
X19302332Y-19568695D01*
X19302332Y-19568695D02*
X19292808Y-19578219D01*
X19292808Y-19578219D02*
X19273761Y-19587742D01*
X19273761Y-19587742D02*
X19245189Y-19587742D01*
X19426142Y-19587742D02*
X19407094Y-19578219D01*
X19407094Y-19578219D02*
X19397570Y-19559171D01*
X19397570Y-19559171D02*
X19397570Y-19387742D01*
X19578523Y-19578219D02*
X19559475Y-19587742D01*
X19559475Y-19587742D02*
X19521380Y-19587742D01*
X19521380Y-19587742D02*
X19502332Y-19578219D01*
X19502332Y-19578219D02*
X19492808Y-19559171D01*
X19492808Y-19559171D02*
X19492808Y-19482981D01*
X19492808Y-19482981D02*
X19502332Y-19463933D01*
X19502332Y-19463933D02*
X19521380Y-19454409D01*
X19521380Y-19454409D02*
X19559475Y-19454409D01*
X19559475Y-19454409D02*
X19578523Y-19463933D01*
X19578523Y-19463933D02*
X19588046Y-19482981D01*
X19588046Y-19482981D02*
X19588046Y-19502028D01*
X19588046Y-19502028D02*
X19492808Y-19521076D01*
X19664237Y-19578219D02*
X19683284Y-19587742D01*
X19683284Y-19587742D02*
X19721380Y-19587742D01*
X19721380Y-19587742D02*
X19740427Y-19578219D01*
X19740427Y-19578219D02*
X19749951Y-19559171D01*
X19749951Y-19559171D02*
X19749951Y-19549647D01*
X19749951Y-19549647D02*
X19740427Y-19530600D01*
X19740427Y-19530600D02*
X19721380Y-19521076D01*
X19721380Y-19521076D02*
X19692808Y-19521076D01*
X19692808Y-19521076D02*
X19673761Y-19511552D01*
X19673761Y-19511552D02*
X19664237Y-19492504D01*
X19664237Y-19492504D02*
X19664237Y-19482981D01*
X19664237Y-19482981D02*
X19673761Y-19463933D01*
X19673761Y-19463933D02*
X19692808Y-19454409D01*
X19692808Y-19454409D02*
X19721380Y-19454409D01*
X19721380Y-19454409D02*
X19740427Y-19463933D01*
X19816618Y-19663933D02*
X19826142Y-19654409D01*
X19826142Y-19654409D02*
X19845189Y-19625838D01*
X19845189Y-19625838D02*
X19854713Y-19606790D01*
X19854713Y-19606790D02*
X19864237Y-19578219D01*
X19864237Y-19578219D02*
X19873761Y-19530600D01*
X19873761Y-19530600D02*
X19873761Y-19492504D01*
X19873761Y-19492504D02*
X19864237Y-19444885D01*
X19864237Y-19444885D02*
X19854713Y-19416314D01*
X19854713Y-19416314D02*
X19845189Y-19397266D01*
X19845189Y-19397266D02*
X19826142Y-19368695D01*
X19826142Y-19368695D02*
X19816618Y-19359171D01*
X20178523Y-19663933D02*
X20168999Y-19654409D01*
X20168999Y-19654409D02*
X20149951Y-19625838D01*
X20149951Y-19625838D02*
X20140427Y-19606790D01*
X20140427Y-19606790D02*
X20130904Y-19578219D01*
X20130904Y-19578219D02*
X20121380Y-19530600D01*
X20121380Y-19530600D02*
X20121380Y-19492504D01*
X20121380Y-19492504D02*
X20130904Y-19444885D01*
X20130904Y-19444885D02*
X20140427Y-19416314D01*
X20140427Y-19416314D02*
X20149951Y-19397266D01*
X20149951Y-19397266D02*
X20168999Y-19368695D01*
X20168999Y-19368695D02*
X20178523Y-19359171D01*
X20254713Y-19454409D02*
X20254713Y-19587742D01*
X20254713Y-19473457D02*
X20264237Y-19463933D01*
X20264237Y-19463933D02*
X20283284Y-19454409D01*
X20283284Y-19454409D02*
X20311856Y-19454409D01*
X20311856Y-19454409D02*
X20330904Y-19463933D01*
X20330904Y-19463933D02*
X20340427Y-19482981D01*
X20340427Y-19482981D02*
X20340427Y-19587742D01*
X20464237Y-19587742D02*
X20445189Y-19578219D01*
X20445189Y-19578219D02*
X20435665Y-19568695D01*
X20435665Y-19568695D02*
X20426142Y-19549647D01*
X20426142Y-19549647D02*
X20426142Y-19492504D01*
X20426142Y-19492504D02*
X20435665Y-19473457D01*
X20435665Y-19473457D02*
X20445189Y-19463933D01*
X20445189Y-19463933D02*
X20464237Y-19454409D01*
X20464237Y-19454409D02*
X20492808Y-19454409D01*
X20492808Y-19454409D02*
X20511856Y-19463933D01*
X20511856Y-19463933D02*
X20521380Y-19473457D01*
X20521380Y-19473457D02*
X20530904Y-19492504D01*
X20530904Y-19492504D02*
X20530904Y-19549647D01*
X20530904Y-19549647D02*
X20521380Y-19568695D01*
X20521380Y-19568695D02*
X20511856Y-19578219D01*
X20511856Y-19578219D02*
X20492808Y-19587742D01*
X20492808Y-19587742D02*
X20464237Y-19587742D01*
X20588046Y-19454409D02*
X20664237Y-19454409D01*
X20616618Y-19387742D02*
X20616618Y-19559171D01*
X20616618Y-19559171D02*
X20626142Y-19578219D01*
X20626142Y-19578219D02*
X20645189Y-19587742D01*
X20645189Y-19587742D02*
X20664237Y-19587742D01*
X20883285Y-19454409D02*
X20883285Y-19654409D01*
X20883285Y-19463933D02*
X20902332Y-19454409D01*
X20902332Y-19454409D02*
X20940427Y-19454409D01*
X20940427Y-19454409D02*
X20959475Y-19463933D01*
X20959475Y-19463933D02*
X20968999Y-19473457D01*
X20968999Y-19473457D02*
X20978523Y-19492504D01*
X20978523Y-19492504D02*
X20978523Y-19549647D01*
X20978523Y-19549647D02*
X20968999Y-19568695D01*
X20968999Y-19568695D02*
X20959475Y-19578219D01*
X20959475Y-19578219D02*
X20940427Y-19587742D01*
X20940427Y-19587742D02*
X20902332Y-19587742D01*
X20902332Y-19587742D02*
X20883285Y-19578219D01*
X21092808Y-19587742D02*
X21073761Y-19578219D01*
X21073761Y-19578219D02*
X21064237Y-19559171D01*
X21064237Y-19559171D02*
X21064237Y-19387742D01*
X21254713Y-19587742D02*
X21254713Y-19482981D01*
X21254713Y-19482981D02*
X21245189Y-19463933D01*
X21245189Y-19463933D02*
X21226142Y-19454409D01*
X21226142Y-19454409D02*
X21188046Y-19454409D01*
X21188046Y-19454409D02*
X21168999Y-19463933D01*
X21254713Y-19578219D02*
X21235666Y-19587742D01*
X21235666Y-19587742D02*
X21188046Y-19587742D01*
X21188046Y-19587742D02*
X21168999Y-19578219D01*
X21168999Y-19578219D02*
X21159475Y-19559171D01*
X21159475Y-19559171D02*
X21159475Y-19540123D01*
X21159475Y-19540123D02*
X21168999Y-19521076D01*
X21168999Y-19521076D02*
X21188046Y-19511552D01*
X21188046Y-19511552D02*
X21235666Y-19511552D01*
X21235666Y-19511552D02*
X21254713Y-19502028D01*
X21321380Y-19454409D02*
X21397570Y-19454409D01*
X21349951Y-19387742D02*
X21349951Y-19559171D01*
X21349951Y-19559171D02*
X21359475Y-19578219D01*
X21359475Y-19578219D02*
X21378523Y-19587742D01*
X21378523Y-19587742D02*
X21397570Y-19587742D01*
X21540427Y-19578219D02*
X21521380Y-19587742D01*
X21521380Y-19587742D02*
X21483285Y-19587742D01*
X21483285Y-19587742D02*
X21464237Y-19578219D01*
X21464237Y-19578219D02*
X21454713Y-19559171D01*
X21454713Y-19559171D02*
X21454713Y-19482981D01*
X21454713Y-19482981D02*
X21464237Y-19463933D01*
X21464237Y-19463933D02*
X21483285Y-19454409D01*
X21483285Y-19454409D02*
X21521380Y-19454409D01*
X21521380Y-19454409D02*
X21540427Y-19463933D01*
X21540427Y-19463933D02*
X21549951Y-19482981D01*
X21549951Y-19482981D02*
X21549951Y-19502028D01*
X21549951Y-19502028D02*
X21454713Y-19521076D01*
X21721380Y-19587742D02*
X21721380Y-19387742D01*
X21721380Y-19578219D02*
X21702332Y-19587742D01*
X21702332Y-19587742D02*
X21664237Y-19587742D01*
X21664237Y-19587742D02*
X21645189Y-19578219D01*
X21645189Y-19578219D02*
X21635666Y-19568695D01*
X21635666Y-19568695D02*
X21626142Y-19549647D01*
X21626142Y-19549647D02*
X21626142Y-19492504D01*
X21626142Y-19492504D02*
X21635666Y-19473457D01*
X21635666Y-19473457D02*
X21645189Y-19463933D01*
X21645189Y-19463933D02*
X21664237Y-19454409D01*
X21664237Y-19454409D02*
X21702332Y-19454409D01*
X21702332Y-19454409D02*
X21721380Y-19463933D01*
X21797570Y-19663933D02*
X21807094Y-19654409D01*
X21807094Y-19654409D02*
X21826142Y-19625838D01*
X21826142Y-19625838D02*
X21835666Y-19606790D01*
X21835666Y-19606790D02*
X21845189Y-19578219D01*
X21845189Y-19578219D02*
X21854713Y-19530600D01*
X21854713Y-19530600D02*
X21854713Y-19492504D01*
X21854713Y-19492504D02*
X21845189Y-19444885D01*
X21845189Y-19444885D02*
X21835666Y-19416314D01*
X21835666Y-19416314D02*
X21826142Y-19397266D01*
X21826142Y-19397266D02*
X21807094Y-19368695D01*
X21807094Y-19368695D02*
X21797570Y-19359171D01*
X14751079Y-19716259D02*
X14751079Y-19916259D01*
X14651079Y-19816259D02*
X14851079Y-19816259D01*
X15092808Y-19707742D02*
X15216617Y-19707742D01*
X15216617Y-19707742D02*
X15149951Y-19783933D01*
X15149951Y-19783933D02*
X15178522Y-19783933D01*
X15178522Y-19783933D02*
X15197570Y-19793457D01*
X15197570Y-19793457D02*
X15207093Y-19802981D01*
X15207093Y-19802981D02*
X15216617Y-19822028D01*
X15216617Y-19822028D02*
X15216617Y-19869647D01*
X15216617Y-19869647D02*
X15207093Y-19888695D01*
X15207093Y-19888695D02*
X15197570Y-19898219D01*
X15197570Y-19898219D02*
X15178522Y-19907742D01*
X15178522Y-19907742D02*
X15121379Y-19907742D01*
X15121379Y-19907742D02*
X15102332Y-19898219D01*
X15102332Y-19898219D02*
X15092808Y-19888695D01*
X15302332Y-19888695D02*
X15311855Y-19898219D01*
X15311855Y-19898219D02*
X15302332Y-19907742D01*
X15302332Y-19907742D02*
X15292808Y-19898219D01*
X15292808Y-19898219D02*
X15302332Y-19888695D01*
X15302332Y-19888695D02*
X15302332Y-19907742D01*
X15483284Y-19774409D02*
X15483284Y-19907742D01*
X15435665Y-19698219D02*
X15388046Y-19841076D01*
X15388046Y-19841076D02*
X15511855Y-19841076D01*
X15578522Y-19726790D02*
X15588046Y-19717266D01*
X15588046Y-19717266D02*
X15607093Y-19707742D01*
X15607093Y-19707742D02*
X15654713Y-19707742D01*
X15654713Y-19707742D02*
X15673760Y-19717266D01*
X15673760Y-19717266D02*
X15683284Y-19726790D01*
X15683284Y-19726790D02*
X15692808Y-19745838D01*
X15692808Y-19745838D02*
X15692808Y-19764885D01*
X15692808Y-19764885D02*
X15683284Y-19793457D01*
X15683284Y-19793457D02*
X15568998Y-19907742D01*
X15568998Y-19907742D02*
X15692808Y-19907742D01*
X15788046Y-19907742D02*
X15826141Y-19907742D01*
X15826141Y-19907742D02*
X15845189Y-19898219D01*
X15845189Y-19898219D02*
X15854713Y-19888695D01*
X15854713Y-19888695D02*
X15873760Y-19860123D01*
X15873760Y-19860123D02*
X15883284Y-19822028D01*
X15883284Y-19822028D02*
X15883284Y-19745838D01*
X15883284Y-19745838D02*
X15873760Y-19726790D01*
X15873760Y-19726790D02*
X15864236Y-19717266D01*
X15864236Y-19717266D02*
X15845189Y-19707742D01*
X15845189Y-19707742D02*
X15807093Y-19707742D01*
X15807093Y-19707742D02*
X15788046Y-19717266D01*
X15788046Y-19717266D02*
X15778522Y-19726790D01*
X15778522Y-19726790D02*
X15768998Y-19745838D01*
X15768998Y-19745838D02*
X15768998Y-19793457D01*
X15768998Y-19793457D02*
X15778522Y-19812504D01*
X15778522Y-19812504D02*
X15788046Y-19822028D01*
X15788046Y-19822028D02*
X15807093Y-19831552D01*
X15807093Y-19831552D02*
X15845189Y-19831552D01*
X15845189Y-19831552D02*
X15864236Y-19822028D01*
X15864236Y-19822028D02*
X15873760Y-19812504D01*
X15873760Y-19812504D02*
X15883284Y-19793457D01*
X15968998Y-19907742D02*
X15968998Y-19774409D01*
X15968998Y-19793457D02*
X15978522Y-19783933D01*
X15978522Y-19783933D02*
X15997570Y-19774409D01*
X15997570Y-19774409D02*
X16026141Y-19774409D01*
X16026141Y-19774409D02*
X16045189Y-19783933D01*
X16045189Y-19783933D02*
X16054713Y-19802981D01*
X16054713Y-19802981D02*
X16054713Y-19907742D01*
X16054713Y-19802981D02*
X16064236Y-19783933D01*
X16064236Y-19783933D02*
X16083284Y-19774409D01*
X16083284Y-19774409D02*
X16111855Y-19774409D01*
X16111855Y-19774409D02*
X16130903Y-19783933D01*
X16130903Y-19783933D02*
X16140427Y-19802981D01*
X16140427Y-19802981D02*
X16140427Y-19907742D01*
X16235665Y-19907742D02*
X16235665Y-19774409D01*
X16235665Y-19793457D02*
X16245189Y-19783933D01*
X16245189Y-19783933D02*
X16264236Y-19774409D01*
X16264236Y-19774409D02*
X16292808Y-19774409D01*
X16292808Y-19774409D02*
X16311855Y-19783933D01*
X16311855Y-19783933D02*
X16321379Y-19802981D01*
X16321379Y-19802981D02*
X16321379Y-19907742D01*
X16321379Y-19802981D02*
X16330903Y-19783933D01*
X16330903Y-19783933D02*
X16349951Y-19774409D01*
X16349951Y-19774409D02*
X16378522Y-19774409D01*
X16378522Y-19774409D02*
X16397570Y-19783933D01*
X16397570Y-19783933D02*
X16407094Y-19802981D01*
X16407094Y-19802981D02*
X16407094Y-19907742D01*
X16797570Y-19698219D02*
X16626141Y-19955361D01*
X17054713Y-19707742D02*
X17073760Y-19707742D01*
X17073760Y-19707742D02*
X17092808Y-19717266D01*
X17092808Y-19717266D02*
X17102332Y-19726790D01*
X17102332Y-19726790D02*
X17111856Y-19745838D01*
X17111856Y-19745838D02*
X17121379Y-19783933D01*
X17121379Y-19783933D02*
X17121379Y-19831552D01*
X17121379Y-19831552D02*
X17111856Y-19869647D01*
X17111856Y-19869647D02*
X17102332Y-19888695D01*
X17102332Y-19888695D02*
X17092808Y-19898219D01*
X17092808Y-19898219D02*
X17073760Y-19907742D01*
X17073760Y-19907742D02*
X17054713Y-19907742D01*
X17054713Y-19907742D02*
X17035665Y-19898219D01*
X17035665Y-19898219D02*
X17026141Y-19888695D01*
X17026141Y-19888695D02*
X17016618Y-19869647D01*
X17016618Y-19869647D02*
X17007094Y-19831552D01*
X17007094Y-19831552D02*
X17007094Y-19783933D01*
X17007094Y-19783933D02*
X17016618Y-19745838D01*
X17016618Y-19745838D02*
X17026141Y-19726790D01*
X17026141Y-19726790D02*
X17035665Y-19717266D01*
X17035665Y-19717266D02*
X17054713Y-19707742D01*
X17207094Y-19888695D02*
X17216618Y-19898219D01*
X17216618Y-19898219D02*
X17207094Y-19907742D01*
X17207094Y-19907742D02*
X17197570Y-19898219D01*
X17197570Y-19898219D02*
X17207094Y-19888695D01*
X17207094Y-19888695D02*
X17207094Y-19907742D01*
X17407094Y-19907742D02*
X17292808Y-19907742D01*
X17349951Y-19907742D02*
X17349951Y-19707742D01*
X17349951Y-19707742D02*
X17330903Y-19736314D01*
X17330903Y-19736314D02*
X17311856Y-19755361D01*
X17311856Y-19755361D02*
X17292808Y-19764885D01*
X17473760Y-19707742D02*
X17597570Y-19707742D01*
X17597570Y-19707742D02*
X17530903Y-19783933D01*
X17530903Y-19783933D02*
X17559475Y-19783933D01*
X17559475Y-19783933D02*
X17578522Y-19793457D01*
X17578522Y-19793457D02*
X17588046Y-19802981D01*
X17588046Y-19802981D02*
X17597570Y-19822028D01*
X17597570Y-19822028D02*
X17597570Y-19869647D01*
X17597570Y-19869647D02*
X17588046Y-19888695D01*
X17588046Y-19888695D02*
X17578522Y-19898219D01*
X17578522Y-19898219D02*
X17559475Y-19907742D01*
X17559475Y-19907742D02*
X17502332Y-19907742D01*
X17502332Y-19907742D02*
X17483284Y-19898219D01*
X17483284Y-19898219D02*
X17473760Y-19888695D01*
X17778522Y-19707742D02*
X17683284Y-19707742D01*
X17683284Y-19707742D02*
X17673760Y-19802981D01*
X17673760Y-19802981D02*
X17683284Y-19793457D01*
X17683284Y-19793457D02*
X17702332Y-19783933D01*
X17702332Y-19783933D02*
X17749951Y-19783933D01*
X17749951Y-19783933D02*
X17768999Y-19793457D01*
X17768999Y-19793457D02*
X17778522Y-19802981D01*
X17778522Y-19802981D02*
X17788046Y-19822028D01*
X17788046Y-19822028D02*
X17788046Y-19869647D01*
X17788046Y-19869647D02*
X17778522Y-19888695D01*
X17778522Y-19888695D02*
X17768999Y-19898219D01*
X17768999Y-19898219D02*
X17749951Y-19907742D01*
X17749951Y-19907742D02*
X17702332Y-19907742D01*
X17702332Y-19907742D02*
X17683284Y-19898219D01*
X17683284Y-19898219D02*
X17673760Y-19888695D01*
X17911856Y-19707742D02*
X17930903Y-19707742D01*
X17930903Y-19707742D02*
X17949951Y-19717266D01*
X17949951Y-19717266D02*
X17959475Y-19726790D01*
X17959475Y-19726790D02*
X17968999Y-19745838D01*
X17968999Y-19745838D02*
X17978522Y-19783933D01*
X17978522Y-19783933D02*
X17978522Y-19831552D01*
X17978522Y-19831552D02*
X17968999Y-19869647D01*
X17968999Y-19869647D02*
X17959475Y-19888695D01*
X17959475Y-19888695D02*
X17949951Y-19898219D01*
X17949951Y-19898219D02*
X17930903Y-19907742D01*
X17930903Y-19907742D02*
X17911856Y-19907742D01*
X17911856Y-19907742D02*
X17892808Y-19898219D01*
X17892808Y-19898219D02*
X17883284Y-19888695D01*
X17883284Y-19888695D02*
X17873760Y-19869647D01*
X17873760Y-19869647D02*
X17864237Y-19831552D01*
X17864237Y-19831552D02*
X17864237Y-19783933D01*
X17864237Y-19783933D02*
X17873760Y-19745838D01*
X17873760Y-19745838D02*
X17883284Y-19726790D01*
X17883284Y-19726790D02*
X17892808Y-19717266D01*
X17892808Y-19717266D02*
X17911856Y-19707742D01*
X18054713Y-19707742D02*
X18054713Y-19745838D01*
X18130903Y-19707742D02*
X18130903Y-19745838D01*
X18426142Y-19983933D02*
X18416618Y-19974409D01*
X18416618Y-19974409D02*
X18397570Y-19945838D01*
X18397570Y-19945838D02*
X18388046Y-19926790D01*
X18388046Y-19926790D02*
X18378522Y-19898219D01*
X18378522Y-19898219D02*
X18368999Y-19850600D01*
X18368999Y-19850600D02*
X18368999Y-19812504D01*
X18368999Y-19812504D02*
X18378522Y-19764885D01*
X18378522Y-19764885D02*
X18388046Y-19736314D01*
X18388046Y-19736314D02*
X18397570Y-19717266D01*
X18397570Y-19717266D02*
X18416618Y-19688695D01*
X18416618Y-19688695D02*
X18426142Y-19679171D01*
X18607094Y-19907742D02*
X18492808Y-19907742D01*
X18549951Y-19907742D02*
X18549951Y-19707742D01*
X18549951Y-19707742D02*
X18530903Y-19736314D01*
X18530903Y-19736314D02*
X18511856Y-19755361D01*
X18511856Y-19755361D02*
X18492808Y-19764885D01*
X18778522Y-19774409D02*
X18778522Y-19907742D01*
X18730903Y-19698219D02*
X18683284Y-19841076D01*
X18683284Y-19841076D02*
X18807094Y-19841076D01*
X19035665Y-19907742D02*
X19035665Y-19707742D01*
X19121380Y-19907742D02*
X19121380Y-19802981D01*
X19121380Y-19802981D02*
X19111856Y-19783933D01*
X19111856Y-19783933D02*
X19092808Y-19774409D01*
X19092808Y-19774409D02*
X19064237Y-19774409D01*
X19064237Y-19774409D02*
X19045189Y-19783933D01*
X19045189Y-19783933D02*
X19035665Y-19793457D01*
X19245189Y-19907742D02*
X19226142Y-19898219D01*
X19226142Y-19898219D02*
X19216618Y-19888695D01*
X19216618Y-19888695D02*
X19207094Y-19869647D01*
X19207094Y-19869647D02*
X19207094Y-19812504D01*
X19207094Y-19812504D02*
X19216618Y-19793457D01*
X19216618Y-19793457D02*
X19226142Y-19783933D01*
X19226142Y-19783933D02*
X19245189Y-19774409D01*
X19245189Y-19774409D02*
X19273761Y-19774409D01*
X19273761Y-19774409D02*
X19292808Y-19783933D01*
X19292808Y-19783933D02*
X19302332Y-19793457D01*
X19302332Y-19793457D02*
X19311856Y-19812504D01*
X19311856Y-19812504D02*
X19311856Y-19869647D01*
X19311856Y-19869647D02*
X19302332Y-19888695D01*
X19302332Y-19888695D02*
X19292808Y-19898219D01*
X19292808Y-19898219D02*
X19273761Y-19907742D01*
X19273761Y-19907742D02*
X19245189Y-19907742D01*
X19426142Y-19907742D02*
X19407094Y-19898219D01*
X19407094Y-19898219D02*
X19397570Y-19879171D01*
X19397570Y-19879171D02*
X19397570Y-19707742D01*
X19578523Y-19898219D02*
X19559475Y-19907742D01*
X19559475Y-19907742D02*
X19521380Y-19907742D01*
X19521380Y-19907742D02*
X19502332Y-19898219D01*
X19502332Y-19898219D02*
X19492808Y-19879171D01*
X19492808Y-19879171D02*
X19492808Y-19802981D01*
X19492808Y-19802981D02*
X19502332Y-19783933D01*
X19502332Y-19783933D02*
X19521380Y-19774409D01*
X19521380Y-19774409D02*
X19559475Y-19774409D01*
X19559475Y-19774409D02*
X19578523Y-19783933D01*
X19578523Y-19783933D02*
X19588046Y-19802981D01*
X19588046Y-19802981D02*
X19588046Y-19822028D01*
X19588046Y-19822028D02*
X19492808Y-19841076D01*
X19664237Y-19898219D02*
X19683284Y-19907742D01*
X19683284Y-19907742D02*
X19721380Y-19907742D01*
X19721380Y-19907742D02*
X19740427Y-19898219D01*
X19740427Y-19898219D02*
X19749951Y-19879171D01*
X19749951Y-19879171D02*
X19749951Y-19869647D01*
X19749951Y-19869647D02*
X19740427Y-19850600D01*
X19740427Y-19850600D02*
X19721380Y-19841076D01*
X19721380Y-19841076D02*
X19692808Y-19841076D01*
X19692808Y-19841076D02*
X19673761Y-19831552D01*
X19673761Y-19831552D02*
X19664237Y-19812504D01*
X19664237Y-19812504D02*
X19664237Y-19802981D01*
X19664237Y-19802981D02*
X19673761Y-19783933D01*
X19673761Y-19783933D02*
X19692808Y-19774409D01*
X19692808Y-19774409D02*
X19721380Y-19774409D01*
X19721380Y-19774409D02*
X19740427Y-19783933D01*
X19816618Y-19983933D02*
X19826142Y-19974409D01*
X19826142Y-19974409D02*
X19845189Y-19945838D01*
X19845189Y-19945838D02*
X19854713Y-19926790D01*
X19854713Y-19926790D02*
X19864237Y-19898219D01*
X19864237Y-19898219D02*
X19873761Y-19850600D01*
X19873761Y-19850600D02*
X19873761Y-19812504D01*
X19873761Y-19812504D02*
X19864237Y-19764885D01*
X19864237Y-19764885D02*
X19854713Y-19736314D01*
X19854713Y-19736314D02*
X19845189Y-19717266D01*
X19845189Y-19717266D02*
X19826142Y-19688695D01*
X19826142Y-19688695D02*
X19816618Y-19679171D01*
X20178523Y-19983933D02*
X20168999Y-19974409D01*
X20168999Y-19974409D02*
X20149951Y-19945838D01*
X20149951Y-19945838D02*
X20140427Y-19926790D01*
X20140427Y-19926790D02*
X20130904Y-19898219D01*
X20130904Y-19898219D02*
X20121380Y-19850600D01*
X20121380Y-19850600D02*
X20121380Y-19812504D01*
X20121380Y-19812504D02*
X20130904Y-19764885D01*
X20130904Y-19764885D02*
X20140427Y-19736314D01*
X20140427Y-19736314D02*
X20149951Y-19717266D01*
X20149951Y-19717266D02*
X20168999Y-19688695D01*
X20168999Y-19688695D02*
X20178523Y-19679171D01*
X20254713Y-19774409D02*
X20254713Y-19907742D01*
X20254713Y-19793457D02*
X20264237Y-19783933D01*
X20264237Y-19783933D02*
X20283284Y-19774409D01*
X20283284Y-19774409D02*
X20311856Y-19774409D01*
X20311856Y-19774409D02*
X20330904Y-19783933D01*
X20330904Y-19783933D02*
X20340427Y-19802981D01*
X20340427Y-19802981D02*
X20340427Y-19907742D01*
X20464237Y-19907742D02*
X20445189Y-19898219D01*
X20445189Y-19898219D02*
X20435665Y-19888695D01*
X20435665Y-19888695D02*
X20426142Y-19869647D01*
X20426142Y-19869647D02*
X20426142Y-19812504D01*
X20426142Y-19812504D02*
X20435665Y-19793457D01*
X20435665Y-19793457D02*
X20445189Y-19783933D01*
X20445189Y-19783933D02*
X20464237Y-19774409D01*
X20464237Y-19774409D02*
X20492808Y-19774409D01*
X20492808Y-19774409D02*
X20511856Y-19783933D01*
X20511856Y-19783933D02*
X20521380Y-19793457D01*
X20521380Y-19793457D02*
X20530904Y-19812504D01*
X20530904Y-19812504D02*
X20530904Y-19869647D01*
X20530904Y-19869647D02*
X20521380Y-19888695D01*
X20521380Y-19888695D02*
X20511856Y-19898219D01*
X20511856Y-19898219D02*
X20492808Y-19907742D01*
X20492808Y-19907742D02*
X20464237Y-19907742D01*
X20588046Y-19774409D02*
X20664237Y-19774409D01*
X20616618Y-19707742D02*
X20616618Y-19879171D01*
X20616618Y-19879171D02*
X20626142Y-19898219D01*
X20626142Y-19898219D02*
X20645189Y-19907742D01*
X20645189Y-19907742D02*
X20664237Y-19907742D01*
X20883285Y-19774409D02*
X20883285Y-19974409D01*
X20883285Y-19783933D02*
X20902332Y-19774409D01*
X20902332Y-19774409D02*
X20940427Y-19774409D01*
X20940427Y-19774409D02*
X20959475Y-19783933D01*
X20959475Y-19783933D02*
X20968999Y-19793457D01*
X20968999Y-19793457D02*
X20978523Y-19812504D01*
X20978523Y-19812504D02*
X20978523Y-19869647D01*
X20978523Y-19869647D02*
X20968999Y-19888695D01*
X20968999Y-19888695D02*
X20959475Y-19898219D01*
X20959475Y-19898219D02*
X20940427Y-19907742D01*
X20940427Y-19907742D02*
X20902332Y-19907742D01*
X20902332Y-19907742D02*
X20883285Y-19898219D01*
X21092808Y-19907742D02*
X21073761Y-19898219D01*
X21073761Y-19898219D02*
X21064237Y-19879171D01*
X21064237Y-19879171D02*
X21064237Y-19707742D01*
X21254713Y-19907742D02*
X21254713Y-19802981D01*
X21254713Y-19802981D02*
X21245189Y-19783933D01*
X21245189Y-19783933D02*
X21226142Y-19774409D01*
X21226142Y-19774409D02*
X21188046Y-19774409D01*
X21188046Y-19774409D02*
X21168999Y-19783933D01*
X21254713Y-19898219D02*
X21235666Y-19907742D01*
X21235666Y-19907742D02*
X21188046Y-19907742D01*
X21188046Y-19907742D02*
X21168999Y-19898219D01*
X21168999Y-19898219D02*
X21159475Y-19879171D01*
X21159475Y-19879171D02*
X21159475Y-19860123D01*
X21159475Y-19860123D02*
X21168999Y-19841076D01*
X21168999Y-19841076D02*
X21188046Y-19831552D01*
X21188046Y-19831552D02*
X21235666Y-19831552D01*
X21235666Y-19831552D02*
X21254713Y-19822028D01*
X21321380Y-19774409D02*
X21397570Y-19774409D01*
X21349951Y-19707742D02*
X21349951Y-19879171D01*
X21349951Y-19879171D02*
X21359475Y-19898219D01*
X21359475Y-19898219D02*
X21378523Y-19907742D01*
X21378523Y-19907742D02*
X21397570Y-19907742D01*
X21540427Y-19898219D02*
X21521380Y-19907742D01*
X21521380Y-19907742D02*
X21483285Y-19907742D01*
X21483285Y-19907742D02*
X21464237Y-19898219D01*
X21464237Y-19898219D02*
X21454713Y-19879171D01*
X21454713Y-19879171D02*
X21454713Y-19802981D01*
X21454713Y-19802981D02*
X21464237Y-19783933D01*
X21464237Y-19783933D02*
X21483285Y-19774409D01*
X21483285Y-19774409D02*
X21521380Y-19774409D01*
X21521380Y-19774409D02*
X21540427Y-19783933D01*
X21540427Y-19783933D02*
X21549951Y-19802981D01*
X21549951Y-19802981D02*
X21549951Y-19822028D01*
X21549951Y-19822028D02*
X21454713Y-19841076D01*
X21721380Y-19907742D02*
X21721380Y-19707742D01*
X21721380Y-19898219D02*
X21702332Y-19907742D01*
X21702332Y-19907742D02*
X21664237Y-19907742D01*
X21664237Y-19907742D02*
X21645189Y-19898219D01*
X21645189Y-19898219D02*
X21635666Y-19888695D01*
X21635666Y-19888695D02*
X21626142Y-19869647D01*
X21626142Y-19869647D02*
X21626142Y-19812504D01*
X21626142Y-19812504D02*
X21635666Y-19793457D01*
X21635666Y-19793457D02*
X21645189Y-19783933D01*
X21645189Y-19783933D02*
X21664237Y-19774409D01*
X21664237Y-19774409D02*
X21702332Y-19774409D01*
X21702332Y-19774409D02*
X21721380Y-19783933D01*
X21797570Y-19983933D02*
X21807094Y-19974409D01*
X21807094Y-19974409D02*
X21826142Y-19945838D01*
X21826142Y-19945838D02*
X21835666Y-19926790D01*
X21835666Y-19926790D02*
X21845189Y-19898219D01*
X21845189Y-19898219D02*
X21854713Y-19850600D01*
X21854713Y-19850600D02*
X21854713Y-19812504D01*
X21854713Y-19812504D02*
X21845189Y-19764885D01*
X21845189Y-19764885D02*
X21835666Y-19736314D01*
X21835666Y-19736314D02*
X21826142Y-19717266D01*
X21826142Y-19717266D02*
X21807094Y-19688695D01*
X21807094Y-19688695D02*
X21797570Y-19679171D01*
M02*
