%TF.GenerationSoftware,KiCad,Pcbnew,8.0.1*%
%TF.CreationDate,2024-11-14T23:23:20-08:00*%
%TF.ProjectId,roo_left_auto_routed,726f6f5f-6c65-4667-945f-6175746f5f72,0.1.0*%
%TF.SameCoordinates,Original*%
%TF.FileFunction,Soldermask,Top*%
%TF.FilePolarity,Negative*%
%FSLAX46Y46*%
G04 Gerber Fmt 4.6, Leading zero omitted, Abs format (unit mm)*
G04 Created by KiCad (PCBNEW 8.0.1) date 2024-11-14 23:23:20*
%MOMM*%
%LPD*%
G01*
G04 APERTURE LIST*
%ADD10C,1.701800*%
%ADD11C,3.000000*%
%ADD12C,3.429000*%
%ADD13R,1.752600X1.752600*%
%ADD14C,1.752600*%
G04 APERTURE END LIST*
D10*
%TO.C,S13*%
X212085800Y-173585800D03*
D11*
X217585800Y-167635800D03*
D12*
X217585800Y-173585800D03*
D11*
X222585800Y-169835800D03*
D10*
X223085800Y-173585800D03*
%TD*%
%TO.C,S10*%
X212085800Y-154585800D03*
D11*
X217585800Y-148635800D03*
D12*
X217585800Y-154585800D03*
D11*
X222585800Y-150835800D03*
D10*
X223085800Y-154585800D03*
%TD*%
%TO.C,S11*%
X212085800Y-135585800D03*
D11*
X217585800Y-129635800D03*
D12*
X217585800Y-135585800D03*
D11*
X222585800Y-131835800D03*
D10*
X223085800Y-135585800D03*
%TD*%
%TO.C,S5*%
X174085800Y-135585800D03*
D11*
X179585800Y-129635800D03*
D12*
X179585800Y-135585800D03*
D11*
X184585800Y-131835800D03*
D10*
X185085800Y-135585800D03*
%TD*%
D13*
%TO.C,MCU1*%
X244205800Y-131115800D03*
D14*
X244205800Y-133655800D03*
X244205800Y-136195800D03*
X244205800Y-138735800D03*
X244205800Y-141275800D03*
X244205800Y-143815800D03*
X244205800Y-146355800D03*
X244205800Y-148895800D03*
X244205800Y-151435800D03*
X244205800Y-153975800D03*
X244205800Y-156515800D03*
X244205800Y-159055800D03*
X228965800Y-131115800D03*
X228965800Y-133655800D03*
X228965800Y-136195800D03*
X228965800Y-138735800D03*
X228965800Y-141275800D03*
X228965800Y-143815800D03*
X228965800Y-146355800D03*
X228965800Y-148895800D03*
X228965800Y-151435800D03*
X228965800Y-153975800D03*
X228965800Y-156515800D03*
X228965800Y-159055800D03*
%TD*%
D10*
%TO.C,S1*%
X155085800Y-168835800D03*
D11*
X160585800Y-162885800D03*
D12*
X160585800Y-168835800D03*
D11*
X165585800Y-165085800D03*
D10*
X166085800Y-168835800D03*
%TD*%
%TO.C,S7*%
X193085800Y-145085800D03*
D11*
X198585800Y-139135800D03*
D12*
X198585800Y-145085800D03*
D11*
X203585800Y-141335800D03*
D10*
X204085800Y-145085800D03*
%TD*%
%TO.C,S3*%
X155085800Y-130835800D03*
D11*
X160585800Y-124885800D03*
D12*
X160585800Y-130835800D03*
D11*
X165585800Y-127085800D03*
D10*
X166085800Y-130835800D03*
%TD*%
%TO.C,S14*%
X231085800Y-173585800D03*
D11*
X236585800Y-167635800D03*
D12*
X236585800Y-173585800D03*
D11*
X241585800Y-169835800D03*
D10*
X242085800Y-173585800D03*
%TD*%
%TO.C,S8*%
X193085800Y-126085800D03*
D11*
X198585800Y-120135800D03*
D12*
X198585800Y-126085800D03*
D11*
X203585800Y-122335800D03*
D10*
X204085800Y-126085800D03*
%TD*%
%TO.C,S9*%
X193085800Y-107085800D03*
D11*
X198585800Y-101135800D03*
D12*
X198585800Y-107085800D03*
D11*
X203585800Y-103335800D03*
D10*
X204085800Y-107085800D03*
%TD*%
%TO.C,S12*%
X212085800Y-116585800D03*
D11*
X217585800Y-110635800D03*
D12*
X217585800Y-116585800D03*
D11*
X222585800Y-112835800D03*
D10*
X223085800Y-116585800D03*
%TD*%
%TO.C,S4*%
X174085800Y-154585800D03*
D11*
X179585800Y-148635800D03*
D12*
X179585800Y-154585800D03*
D11*
X184585800Y-150835800D03*
D10*
X185085800Y-154585800D03*
%TD*%
%TO.C,S2*%
X155085800Y-149835800D03*
D11*
X160585800Y-143885800D03*
D12*
X160585800Y-149835800D03*
D11*
X165585800Y-146085800D03*
D10*
X166085800Y-149835800D03*
%TD*%
%TO.C,S6*%
X174085800Y-116585800D03*
D11*
X179585800Y-110635800D03*
D12*
X179585800Y-116585800D03*
D11*
X184585800Y-112835800D03*
D10*
X185085800Y-116585800D03*
%TD*%
M02*
