%TF.GenerationSoftware,KiCad,Pcbnew,8.0.1*%
%TF.CreationDate,2024-11-14T23:02:20-08:00*%
%TF.ProjectId,roo_right_autorouted,726f6f5f-7269-4676-9874-5f6175746f72,0.1.0*%
%TF.SameCoordinates,Original*%
%TF.FileFunction,NonPlated,1,2,NPTH,Drill*%
%TF.FilePolarity,Positive*%
%FSLAX46Y46*%
G04 Gerber Fmt 4.6, Leading zero omitted, Abs format (unit mm)*
G04 Created by KiCad (PCBNEW 8.0.1) date 2024-11-14 23:02:20*
%MOMM*%
%LPD*%
G01*
G04 APERTURE LIST*
%TA.AperFunction,ComponentDrill*%
%ADD10C,1.701800*%
%TD*%
%TA.AperFunction,ComponentDrill*%
%ADD11C,3.000000*%
%TD*%
%TA.AperFunction,ComponentDrill*%
%ADD12C,3.429000*%
%TD*%
G04 APERTURE END LIST*
D10*
%TO.C,S14*%
X169085800Y-169335800D03*
X180085800Y-169335800D03*
%TO.C,S12*%
X188085800Y-112335800D03*
%TO.C,S11*%
X188085800Y-131335800D03*
%TO.C,S10*%
X188085800Y-150335800D03*
%TO.C,S13*%
X188085800Y-169335800D03*
%TO.C,S12*%
X199085800Y-112335800D03*
%TO.C,S11*%
X199085800Y-131335800D03*
%TO.C,S10*%
X199085800Y-150335800D03*
%TO.C,S13*%
X199085800Y-169335800D03*
%TO.C,S9*%
X207085800Y-102835800D03*
%TO.C,S8*%
X207085800Y-121835800D03*
%TO.C,S7*%
X207085800Y-140835800D03*
%TO.C,S9*%
X218085800Y-102835800D03*
%TO.C,S8*%
X218085800Y-121835800D03*
%TO.C,S7*%
X218085800Y-140835800D03*
%TO.C,S6*%
X226085800Y-112335800D03*
%TO.C,S5*%
X226085800Y-131335800D03*
%TO.C,S4*%
X226085800Y-150335800D03*
%TO.C,S6*%
X237085800Y-112335800D03*
%TO.C,S5*%
X237085800Y-131335800D03*
%TO.C,S4*%
X237085800Y-150335800D03*
%TO.C,S3*%
X245085800Y-126585800D03*
%TO.C,S2*%
X245085800Y-145585800D03*
%TO.C,S1*%
X245085800Y-164585800D03*
%TO.C,S3*%
X256085800Y-126585800D03*
%TO.C,S2*%
X256085800Y-145585800D03*
%TO.C,S1*%
X256085800Y-164585800D03*
D11*
%TO.C,S14*%
X174585800Y-163385800D03*
X179585800Y-165585800D03*
%TO.C,S12*%
X193585800Y-106385800D03*
%TO.C,S11*%
X193585800Y-125385800D03*
%TO.C,S10*%
X193585800Y-144385800D03*
%TO.C,S13*%
X193585800Y-163385800D03*
%TO.C,S12*%
X198585800Y-108585800D03*
%TO.C,S11*%
X198585800Y-127585800D03*
%TO.C,S10*%
X198585800Y-146585800D03*
%TO.C,S13*%
X198585800Y-165585800D03*
%TO.C,S9*%
X212585800Y-96885800D03*
%TO.C,S8*%
X212585800Y-115885800D03*
%TO.C,S7*%
X212585800Y-134885800D03*
%TO.C,S9*%
X217585800Y-99085800D03*
%TO.C,S8*%
X217585800Y-118085800D03*
%TO.C,S7*%
X217585800Y-137085800D03*
%TO.C,S6*%
X231585800Y-106385800D03*
%TO.C,S5*%
X231585800Y-125385800D03*
%TO.C,S4*%
X231585800Y-144385800D03*
%TO.C,S6*%
X236585800Y-108585800D03*
%TO.C,S5*%
X236585800Y-127585800D03*
%TO.C,S4*%
X236585800Y-146585800D03*
%TO.C,S3*%
X250585800Y-120635800D03*
%TO.C,S2*%
X250585800Y-139635800D03*
%TO.C,S1*%
X250585800Y-158635800D03*
%TO.C,S3*%
X255585800Y-122835800D03*
%TO.C,S2*%
X255585800Y-141835800D03*
%TO.C,S1*%
X255585800Y-160835800D03*
D12*
%TO.C,S14*%
X174585800Y-169335800D03*
%TO.C,S12*%
X193585800Y-112335800D03*
%TO.C,S11*%
X193585800Y-131335800D03*
%TO.C,S10*%
X193585800Y-150335800D03*
%TO.C,S13*%
X193585800Y-169335800D03*
%TO.C,S9*%
X212585800Y-102835800D03*
%TO.C,S8*%
X212585800Y-121835800D03*
%TO.C,S7*%
X212585800Y-140835800D03*
%TO.C,S6*%
X231585800Y-112335800D03*
%TO.C,S5*%
X231585800Y-131335800D03*
%TO.C,S4*%
X231585800Y-150335800D03*
%TO.C,S3*%
X250585800Y-126585800D03*
%TO.C,S2*%
X250585800Y-145585800D03*
%TO.C,S1*%
X250585800Y-164585800D03*
M02*
