%TF.GenerationSoftware,KiCad,Pcbnew,8.0.1*%
%TF.CreationDate,2024-11-14T23:02:23-08:00*%
%TF.ProjectId,roo_right_autorouted,726f6f5f-7269-4676-9874-5f6175746f72,0.1.0*%
%TF.SameCoordinates,Original*%
%TF.FileFunction,Drillmap*%
%TF.FilePolarity,Positive*%
%FSLAX45Y45*%
G04 Gerber Fmt 4.5, Leading zero omitted, Abs format (unit mm)*
G04 Created by KiCad (PCBNEW 8.0.1) date 2024-11-14 23:02:23*
%MOMM*%
%LPD*%
G01*
G04 APERTURE LIST*
%ADD10C,0.150000*%
%ADD11C,0.200000*%
%ADD12C,0.170180*%
%ADD13C,0.300000*%
%ADD14C,0.342900*%
G04 APERTURE END LIST*
D10*
X24058579Y-17658579D02*
X26058579Y-17658579D01*
X26258579Y-17458579D02*
G75*
G02*
X26058579Y-17658579I-200000J0D01*
G01*
X26258579Y-17458579D02*
X26258579Y-11658579D01*
X26058579Y-11458579D02*
G75*
G02*
X26258579Y-11658579I0J-200000D01*
G01*
X26058579Y-11458579D02*
X24358579Y-11458579D01*
X24358579Y-11458579D02*
X24358579Y-10233579D01*
X24158579Y-10033579D02*
G75*
G02*
X24358579Y-10233579I0J-200000D01*
G01*
X24158579Y-10033579D02*
X22458579Y-10033579D01*
X22458579Y-10033579D02*
X22458579Y-9283579D01*
X22258579Y-9083579D02*
G75*
G02*
X22458579Y-9283579I0J-200000D01*
G01*
X22258579Y-9083579D02*
X20258579Y-9083579D01*
X20058579Y-9283579D02*
G75*
G02*
X20258579Y-9083579I200000J0D01*
G01*
X20058579Y-9283579D02*
X20058579Y-10033579D01*
X20058579Y-10033579D02*
X18358579Y-10033579D01*
X18158579Y-10233579D02*
G75*
G02*
X18358579Y-10033579I200000J0D01*
G01*
X18158579Y-12183579D02*
X18158579Y-10233579D01*
X16258579Y-15933579D02*
G75*
G02*
X16273174Y-15858579I200002J0D01*
G01*
X16258579Y-15933579D02*
X16258579Y-17933579D01*
X16458579Y-18133579D02*
G75*
G02*
X16258579Y-17933579I0J200000D01*
G01*
X16458579Y-18133579D02*
X20358579Y-18133579D01*
X20558579Y-17933579D02*
G75*
G02*
X20358579Y-18133579I-200000J0D01*
G01*
X20558579Y-17933579D02*
X20558579Y-15283579D01*
X20558579Y-15283579D02*
X21958579Y-15283579D01*
X21958579Y-15283579D02*
X21958579Y-16033579D01*
X22158579Y-16233579D02*
G75*
G02*
X21958579Y-16033579I0J200000D01*
G01*
X22158579Y-16233579D02*
X23858579Y-16233579D01*
X23858579Y-16233579D02*
X23858579Y-17458579D01*
X24058579Y-17658579D02*
G75*
G02*
X23858579Y-17458579I0J200000D01*
G01*
X18158579Y-12183579D02*
X16458579Y-12183579D01*
X16258579Y-12383579D02*
G75*
G02*
X16458579Y-12183579I200000J0D01*
G01*
X16258579Y-12383579D02*
X16258579Y-15783579D01*
X16273174Y-15858579D02*
G75*
G02*
X16258579Y-15783579I185408J75001D01*
G01*
X24408579Y-15508579D02*
G75*
G02*
X23808579Y-15508579I-300000J0D01*
G01*
X23808579Y-15508579D02*
G75*
G02*
X24408579Y-15508579I300000J0D01*
G01*
X24408579Y-13608579D02*
G75*
G02*
X23808579Y-13608579I-300000J0D01*
G01*
X23808579Y-13608579D02*
G75*
G02*
X24408579Y-13608579I300000J0D01*
G01*
X20508579Y-14083579D02*
G75*
G02*
X19908579Y-14083579I-300000J0D01*
G01*
X19908579Y-14083579D02*
G75*
G02*
X20508579Y-14083579I300000J0D01*
G01*
X22408579Y-11233579D02*
G75*
G02*
X21808579Y-11233579I-300000J0D01*
G01*
X21808579Y-11233579D02*
G75*
G02*
X22408579Y-11233579I300000J0D01*
G01*
X18708579Y-17408579D02*
G75*
G02*
X18108579Y-17408579I-300000J0D01*
G01*
X18108579Y-17408579D02*
G75*
G02*
X18708579Y-17408579I300000J0D01*
G01*
X19183579Y-11983579D02*
G75*
G02*
X18583579Y-11983579I-300000J0D01*
G01*
X18583579Y-11983579D02*
G75*
G02*
X19183579Y-11983579I300000J0D01*
G01*
D11*
D12*
X16823490Y-16848490D02*
X16993670Y-17018670D01*
X16993670Y-16848490D02*
X16823490Y-17018670D01*
X17923490Y-16848490D02*
X18093670Y-17018670D01*
X18093670Y-16848490D02*
X17923490Y-17018670D01*
X18723490Y-11148490D02*
X18893670Y-11318670D01*
X18893670Y-11148490D02*
X18723490Y-11318670D01*
X18723490Y-13048490D02*
X18893670Y-13218670D01*
X18893670Y-13048490D02*
X18723490Y-13218670D01*
X18723490Y-14948490D02*
X18893670Y-15118670D01*
X18893670Y-14948490D02*
X18723490Y-15118670D01*
X18723490Y-16848490D02*
X18893670Y-17018670D01*
X18893670Y-16848490D02*
X18723490Y-17018670D01*
X19823490Y-11148490D02*
X19993670Y-11318670D01*
X19993670Y-11148490D02*
X19823490Y-11318670D01*
X19823490Y-13048490D02*
X19993670Y-13218670D01*
X19993670Y-13048490D02*
X19823490Y-13218670D01*
X19823490Y-14948490D02*
X19993670Y-15118670D01*
X19993670Y-14948490D02*
X19823490Y-15118670D01*
X19823490Y-16848490D02*
X19993670Y-17018670D01*
X19993670Y-16848490D02*
X19823490Y-17018670D01*
X20623490Y-10198490D02*
X20793670Y-10368670D01*
X20793670Y-10198490D02*
X20623490Y-10368670D01*
X20623490Y-12098490D02*
X20793670Y-12268670D01*
X20793670Y-12098490D02*
X20623490Y-12268670D01*
X20623490Y-13998490D02*
X20793670Y-14168670D01*
X20793670Y-13998490D02*
X20623490Y-14168670D01*
X21723490Y-10198490D02*
X21893670Y-10368670D01*
X21893670Y-10198490D02*
X21723490Y-10368670D01*
X21723490Y-12098490D02*
X21893670Y-12268670D01*
X21893670Y-12098490D02*
X21723490Y-12268670D01*
X21723490Y-13998490D02*
X21893670Y-14168670D01*
X21893670Y-13998490D02*
X21723490Y-14168670D01*
X22523490Y-11148490D02*
X22693670Y-11318670D01*
X22693670Y-11148490D02*
X22523490Y-11318670D01*
X22523490Y-13048490D02*
X22693670Y-13218670D01*
X22693670Y-13048490D02*
X22523490Y-13218670D01*
X22523490Y-14948490D02*
X22693670Y-15118670D01*
X22693670Y-14948490D02*
X22523490Y-15118670D01*
X23623490Y-11148490D02*
X23793670Y-11318670D01*
X23793670Y-11148490D02*
X23623490Y-11318670D01*
X23623490Y-13048490D02*
X23793670Y-13218670D01*
X23793670Y-13048490D02*
X23623490Y-13218670D01*
X23623490Y-14948490D02*
X23793670Y-15118670D01*
X23793670Y-14948490D02*
X23623490Y-15118670D01*
X24423490Y-12573490D02*
X24593670Y-12743670D01*
X24593670Y-12573490D02*
X24423490Y-12743670D01*
X24423490Y-14473490D02*
X24593670Y-14643670D01*
X24593670Y-14473490D02*
X24423490Y-14643670D01*
X24423490Y-16373490D02*
X24593670Y-16543670D01*
X24593670Y-16373490D02*
X24423490Y-16543670D01*
X25523490Y-12573490D02*
X25693670Y-12743670D01*
X25693670Y-12573490D02*
X25523490Y-12743670D01*
X25523490Y-14473490D02*
X25693670Y-14643670D01*
X25693670Y-14473490D02*
X25523490Y-14643670D01*
X25523490Y-16373490D02*
X25693670Y-16543670D01*
X25693670Y-16373490D02*
X25523490Y-16543670D01*
D13*
X17608580Y-16338580D02*
G75*
G02*
X17308580Y-16338580I-150000J0D01*
G01*
X17308580Y-16338580D02*
G75*
G02*
X17608580Y-16338580I150000J0D01*
G01*
X18108580Y-16558580D02*
G75*
G02*
X17808580Y-16558580I-150000J0D01*
G01*
X17808580Y-16558580D02*
G75*
G02*
X18108580Y-16558580I150000J0D01*
G01*
X19508580Y-10638580D02*
G75*
G02*
X19208580Y-10638580I-150000J0D01*
G01*
X19208580Y-10638580D02*
G75*
G02*
X19508580Y-10638580I150000J0D01*
G01*
X19508580Y-12538580D02*
G75*
G02*
X19208580Y-12538580I-150000J0D01*
G01*
X19208580Y-12538580D02*
G75*
G02*
X19508580Y-12538580I150000J0D01*
G01*
X19508580Y-14438580D02*
G75*
G02*
X19208580Y-14438580I-150000J0D01*
G01*
X19208580Y-14438580D02*
G75*
G02*
X19508580Y-14438580I150000J0D01*
G01*
X19508580Y-16338580D02*
G75*
G02*
X19208580Y-16338580I-150000J0D01*
G01*
X19208580Y-16338580D02*
G75*
G02*
X19508580Y-16338580I150000J0D01*
G01*
X20008580Y-10858580D02*
G75*
G02*
X19708580Y-10858580I-150000J0D01*
G01*
X19708580Y-10858580D02*
G75*
G02*
X20008580Y-10858580I150000J0D01*
G01*
X20008580Y-12758580D02*
G75*
G02*
X19708580Y-12758580I-150000J0D01*
G01*
X19708580Y-12758580D02*
G75*
G02*
X20008580Y-12758580I150000J0D01*
G01*
X20008580Y-14658580D02*
G75*
G02*
X19708580Y-14658580I-150000J0D01*
G01*
X19708580Y-14658580D02*
G75*
G02*
X20008580Y-14658580I150000J0D01*
G01*
X20008580Y-16558580D02*
G75*
G02*
X19708580Y-16558580I-150000J0D01*
G01*
X19708580Y-16558580D02*
G75*
G02*
X20008580Y-16558580I150000J0D01*
G01*
X21408580Y-9688580D02*
G75*
G02*
X21108580Y-9688580I-150000J0D01*
G01*
X21108580Y-9688580D02*
G75*
G02*
X21408580Y-9688580I150000J0D01*
G01*
X21408580Y-11588580D02*
G75*
G02*
X21108580Y-11588580I-150000J0D01*
G01*
X21108580Y-11588580D02*
G75*
G02*
X21408580Y-11588580I150000J0D01*
G01*
X21408580Y-13488580D02*
G75*
G02*
X21108580Y-13488580I-150000J0D01*
G01*
X21108580Y-13488580D02*
G75*
G02*
X21408580Y-13488580I150000J0D01*
G01*
X21908580Y-9908580D02*
G75*
G02*
X21608580Y-9908580I-150000J0D01*
G01*
X21608580Y-9908580D02*
G75*
G02*
X21908580Y-9908580I150000J0D01*
G01*
X21908580Y-11808580D02*
G75*
G02*
X21608580Y-11808580I-150000J0D01*
G01*
X21608580Y-11808580D02*
G75*
G02*
X21908580Y-11808580I150000J0D01*
G01*
X21908580Y-13708580D02*
G75*
G02*
X21608580Y-13708580I-150000J0D01*
G01*
X21608580Y-13708580D02*
G75*
G02*
X21908580Y-13708580I150000J0D01*
G01*
X23308580Y-10638580D02*
G75*
G02*
X23008580Y-10638580I-150000J0D01*
G01*
X23008580Y-10638580D02*
G75*
G02*
X23308580Y-10638580I150000J0D01*
G01*
X23308580Y-12538580D02*
G75*
G02*
X23008580Y-12538580I-150000J0D01*
G01*
X23008580Y-12538580D02*
G75*
G02*
X23308580Y-12538580I150000J0D01*
G01*
X23308580Y-14438580D02*
G75*
G02*
X23008580Y-14438580I-150000J0D01*
G01*
X23008580Y-14438580D02*
G75*
G02*
X23308580Y-14438580I150000J0D01*
G01*
X23808580Y-10858580D02*
G75*
G02*
X23508580Y-10858580I-150000J0D01*
G01*
X23508580Y-10858580D02*
G75*
G02*
X23808580Y-10858580I150000J0D01*
G01*
X23808580Y-12758580D02*
G75*
G02*
X23508580Y-12758580I-150000J0D01*
G01*
X23508580Y-12758580D02*
G75*
G02*
X23808580Y-12758580I150000J0D01*
G01*
X23808580Y-14658580D02*
G75*
G02*
X23508580Y-14658580I-150000J0D01*
G01*
X23508580Y-14658580D02*
G75*
G02*
X23808580Y-14658580I150000J0D01*
G01*
X25208580Y-12063580D02*
G75*
G02*
X24908580Y-12063580I-150000J0D01*
G01*
X24908580Y-12063580D02*
G75*
G02*
X25208580Y-12063580I150000J0D01*
G01*
X25208580Y-13963580D02*
G75*
G02*
X24908580Y-13963580I-150000J0D01*
G01*
X24908580Y-13963580D02*
G75*
G02*
X25208580Y-13963580I150000J0D01*
G01*
X25208580Y-15863580D02*
G75*
G02*
X24908580Y-15863580I-150000J0D01*
G01*
X24908580Y-15863580D02*
G75*
G02*
X25208580Y-15863580I150000J0D01*
G01*
X25708580Y-12283580D02*
G75*
G02*
X25408580Y-12283580I-150000J0D01*
G01*
X25408580Y-12283580D02*
G75*
G02*
X25708580Y-12283580I150000J0D01*
G01*
X25708580Y-14183580D02*
G75*
G02*
X25408580Y-14183580I-150000J0D01*
G01*
X25408580Y-14183580D02*
G75*
G02*
X25708580Y-14183580I150000J0D01*
G01*
X25708580Y-16083580D02*
G75*
G02*
X25408580Y-16083580I-150000J0D01*
G01*
X25408580Y-16083580D02*
G75*
G02*
X25708580Y-16083580I150000J0D01*
G01*
D14*
X17458580Y-16762130D02*
X17458580Y-17105030D01*
X17287130Y-16933580D02*
X17630030Y-16933580D01*
X19358580Y-11062130D02*
X19358580Y-11405030D01*
X19187130Y-11233580D02*
X19530030Y-11233580D01*
X19358580Y-12962130D02*
X19358580Y-13305030D01*
X19187130Y-13133580D02*
X19530030Y-13133580D01*
X19358580Y-14862130D02*
X19358580Y-15205030D01*
X19187130Y-15033580D02*
X19530030Y-15033580D01*
X19358580Y-16762130D02*
X19358580Y-17105030D01*
X19187130Y-16933580D02*
X19530030Y-16933580D01*
X21258580Y-10112130D02*
X21258580Y-10455030D01*
X21087130Y-10283580D02*
X21430030Y-10283580D01*
X21258580Y-12012130D02*
X21258580Y-12355030D01*
X21087130Y-12183580D02*
X21430030Y-12183580D01*
X21258580Y-13912130D02*
X21258580Y-14255030D01*
X21087130Y-14083580D02*
X21430030Y-14083580D01*
X23158580Y-11062130D02*
X23158580Y-11405030D01*
X22987130Y-11233580D02*
X23330030Y-11233580D01*
X23158580Y-12962130D02*
X23158580Y-13305030D01*
X22987130Y-13133580D02*
X23330030Y-13133580D01*
X23158580Y-14862130D02*
X23158580Y-15205030D01*
X22987130Y-15033580D02*
X23330030Y-15033580D01*
X25058580Y-12487130D02*
X25058580Y-12830030D01*
X24887130Y-12658580D02*
X25230030Y-12658580D01*
X25058580Y-14387130D02*
X25058580Y-14730030D01*
X24887130Y-14558580D02*
X25230030Y-14558580D01*
X25058580Y-16287130D02*
X25058580Y-16630030D01*
X24887130Y-16458580D02*
X25230030Y-16458580D01*
D11*
X16511855Y-18452562D02*
X16511855Y-18252562D01*
X16511855Y-18252562D02*
X16559474Y-18252562D01*
X16559474Y-18252562D02*
X16588046Y-18262086D01*
X16588046Y-18262086D02*
X16607093Y-18281134D01*
X16607093Y-18281134D02*
X16616617Y-18300181D01*
X16616617Y-18300181D02*
X16626141Y-18338277D01*
X16626141Y-18338277D02*
X16626141Y-18366848D01*
X16626141Y-18366848D02*
X16616617Y-18404943D01*
X16616617Y-18404943D02*
X16607093Y-18423991D01*
X16607093Y-18423991D02*
X16588046Y-18443039D01*
X16588046Y-18443039D02*
X16559474Y-18452562D01*
X16559474Y-18452562D02*
X16511855Y-18452562D01*
X16711855Y-18452562D02*
X16711855Y-18319229D01*
X16711855Y-18357324D02*
X16721379Y-18338277D01*
X16721379Y-18338277D02*
X16730903Y-18328753D01*
X16730903Y-18328753D02*
X16749951Y-18319229D01*
X16749951Y-18319229D02*
X16768998Y-18319229D01*
X16835665Y-18452562D02*
X16835665Y-18319229D01*
X16835665Y-18252562D02*
X16826141Y-18262086D01*
X16826141Y-18262086D02*
X16835665Y-18271610D01*
X16835665Y-18271610D02*
X16845189Y-18262086D01*
X16845189Y-18262086D02*
X16835665Y-18252562D01*
X16835665Y-18252562D02*
X16835665Y-18271610D01*
X16959474Y-18452562D02*
X16940427Y-18443039D01*
X16940427Y-18443039D02*
X16930903Y-18423991D01*
X16930903Y-18423991D02*
X16930903Y-18252562D01*
X17064236Y-18452562D02*
X17045189Y-18443039D01*
X17045189Y-18443039D02*
X17035665Y-18423991D01*
X17035665Y-18423991D02*
X17035665Y-18252562D01*
X17292808Y-18452562D02*
X17292808Y-18252562D01*
X17292808Y-18252562D02*
X17359475Y-18395420D01*
X17359475Y-18395420D02*
X17426141Y-18252562D01*
X17426141Y-18252562D02*
X17426141Y-18452562D01*
X17607094Y-18452562D02*
X17607094Y-18347801D01*
X17607094Y-18347801D02*
X17597570Y-18328753D01*
X17597570Y-18328753D02*
X17578522Y-18319229D01*
X17578522Y-18319229D02*
X17540427Y-18319229D01*
X17540427Y-18319229D02*
X17521379Y-18328753D01*
X17607094Y-18443039D02*
X17588046Y-18452562D01*
X17588046Y-18452562D02*
X17540427Y-18452562D01*
X17540427Y-18452562D02*
X17521379Y-18443039D01*
X17521379Y-18443039D02*
X17511855Y-18423991D01*
X17511855Y-18423991D02*
X17511855Y-18404943D01*
X17511855Y-18404943D02*
X17521379Y-18385896D01*
X17521379Y-18385896D02*
X17540427Y-18376372D01*
X17540427Y-18376372D02*
X17588046Y-18376372D01*
X17588046Y-18376372D02*
X17607094Y-18366848D01*
X17702332Y-18319229D02*
X17702332Y-18519229D01*
X17702332Y-18328753D02*
X17721379Y-18319229D01*
X17721379Y-18319229D02*
X17759475Y-18319229D01*
X17759475Y-18319229D02*
X17778522Y-18328753D01*
X17778522Y-18328753D02*
X17788046Y-18338277D01*
X17788046Y-18338277D02*
X17797570Y-18357324D01*
X17797570Y-18357324D02*
X17797570Y-18414467D01*
X17797570Y-18414467D02*
X17788046Y-18433515D01*
X17788046Y-18433515D02*
X17778522Y-18443039D01*
X17778522Y-18443039D02*
X17759475Y-18452562D01*
X17759475Y-18452562D02*
X17721379Y-18452562D01*
X17721379Y-18452562D02*
X17702332Y-18443039D01*
X17883284Y-18433515D02*
X17892808Y-18443039D01*
X17892808Y-18443039D02*
X17883284Y-18452562D01*
X17883284Y-18452562D02*
X17873760Y-18443039D01*
X17873760Y-18443039D02*
X17883284Y-18433515D01*
X17883284Y-18433515D02*
X17883284Y-18452562D01*
X17883284Y-18328753D02*
X17892808Y-18338277D01*
X17892808Y-18338277D02*
X17883284Y-18347801D01*
X17883284Y-18347801D02*
X17873760Y-18338277D01*
X17873760Y-18338277D02*
X17883284Y-18328753D01*
X17883284Y-18328753D02*
X17883284Y-18347801D01*
D12*
X16080899Y-18695989D02*
X16251079Y-18866169D01*
X16251079Y-18695989D02*
X16080899Y-18866169D01*
D11*
X16616617Y-18872562D02*
X16502332Y-18872562D01*
X16559474Y-18872562D02*
X16559474Y-18672562D01*
X16559474Y-18672562D02*
X16540427Y-18701134D01*
X16540427Y-18701134D02*
X16521379Y-18720181D01*
X16521379Y-18720181D02*
X16502332Y-18729705D01*
X16702332Y-18853515D02*
X16711855Y-18863039D01*
X16711855Y-18863039D02*
X16702332Y-18872562D01*
X16702332Y-18872562D02*
X16692808Y-18863039D01*
X16692808Y-18863039D02*
X16702332Y-18853515D01*
X16702332Y-18853515D02*
X16702332Y-18872562D01*
X16778522Y-18672562D02*
X16911855Y-18672562D01*
X16911855Y-18672562D02*
X16826141Y-18872562D01*
X17026141Y-18672562D02*
X17045189Y-18672562D01*
X17045189Y-18672562D02*
X17064236Y-18682086D01*
X17064236Y-18682086D02*
X17073760Y-18691610D01*
X17073760Y-18691610D02*
X17083284Y-18710658D01*
X17083284Y-18710658D02*
X17092808Y-18748753D01*
X17092808Y-18748753D02*
X17092808Y-18796372D01*
X17092808Y-18796372D02*
X17083284Y-18834467D01*
X17083284Y-18834467D02*
X17073760Y-18853515D01*
X17073760Y-18853515D02*
X17064236Y-18863039D01*
X17064236Y-18863039D02*
X17045189Y-18872562D01*
X17045189Y-18872562D02*
X17026141Y-18872562D01*
X17026141Y-18872562D02*
X17007094Y-18863039D01*
X17007094Y-18863039D02*
X16997570Y-18853515D01*
X16997570Y-18853515D02*
X16988046Y-18834467D01*
X16988046Y-18834467D02*
X16978522Y-18796372D01*
X16978522Y-18796372D02*
X16978522Y-18748753D01*
X16978522Y-18748753D02*
X16988046Y-18710658D01*
X16988046Y-18710658D02*
X16997570Y-18691610D01*
X16997570Y-18691610D02*
X17007094Y-18682086D01*
X17007094Y-18682086D02*
X17026141Y-18672562D01*
X17168998Y-18691610D02*
X17178522Y-18682086D01*
X17178522Y-18682086D02*
X17197570Y-18672562D01*
X17197570Y-18672562D02*
X17245189Y-18672562D01*
X17245189Y-18672562D02*
X17264236Y-18682086D01*
X17264236Y-18682086D02*
X17273760Y-18691610D01*
X17273760Y-18691610D02*
X17283284Y-18710658D01*
X17283284Y-18710658D02*
X17283284Y-18729705D01*
X17283284Y-18729705D02*
X17273760Y-18758277D01*
X17273760Y-18758277D02*
X17159475Y-18872562D01*
X17159475Y-18872562D02*
X17283284Y-18872562D01*
X17368998Y-18872562D02*
X17368998Y-18739229D01*
X17368998Y-18758277D02*
X17378522Y-18748753D01*
X17378522Y-18748753D02*
X17397570Y-18739229D01*
X17397570Y-18739229D02*
X17426141Y-18739229D01*
X17426141Y-18739229D02*
X17445189Y-18748753D01*
X17445189Y-18748753D02*
X17454713Y-18767801D01*
X17454713Y-18767801D02*
X17454713Y-18872562D01*
X17454713Y-18767801D02*
X17464236Y-18748753D01*
X17464236Y-18748753D02*
X17483284Y-18739229D01*
X17483284Y-18739229D02*
X17511855Y-18739229D01*
X17511855Y-18739229D02*
X17530903Y-18748753D01*
X17530903Y-18748753D02*
X17540427Y-18767801D01*
X17540427Y-18767801D02*
X17540427Y-18872562D01*
X17635665Y-18872562D02*
X17635665Y-18739229D01*
X17635665Y-18758277D02*
X17645189Y-18748753D01*
X17645189Y-18748753D02*
X17664236Y-18739229D01*
X17664236Y-18739229D02*
X17692808Y-18739229D01*
X17692808Y-18739229D02*
X17711856Y-18748753D01*
X17711856Y-18748753D02*
X17721379Y-18767801D01*
X17721379Y-18767801D02*
X17721379Y-18872562D01*
X17721379Y-18767801D02*
X17730903Y-18748753D01*
X17730903Y-18748753D02*
X17749951Y-18739229D01*
X17749951Y-18739229D02*
X17778522Y-18739229D01*
X17778522Y-18739229D02*
X17797570Y-18748753D01*
X17797570Y-18748753D02*
X17807094Y-18767801D01*
X17807094Y-18767801D02*
X17807094Y-18872562D01*
X18197570Y-18663039D02*
X18026141Y-18920181D01*
X18454713Y-18672562D02*
X18473760Y-18672562D01*
X18473760Y-18672562D02*
X18492808Y-18682086D01*
X18492808Y-18682086D02*
X18502332Y-18691610D01*
X18502332Y-18691610D02*
X18511856Y-18710658D01*
X18511856Y-18710658D02*
X18521379Y-18748753D01*
X18521379Y-18748753D02*
X18521379Y-18796372D01*
X18521379Y-18796372D02*
X18511856Y-18834467D01*
X18511856Y-18834467D02*
X18502332Y-18853515D01*
X18502332Y-18853515D02*
X18492808Y-18863039D01*
X18492808Y-18863039D02*
X18473760Y-18872562D01*
X18473760Y-18872562D02*
X18454713Y-18872562D01*
X18454713Y-18872562D02*
X18435665Y-18863039D01*
X18435665Y-18863039D02*
X18426141Y-18853515D01*
X18426141Y-18853515D02*
X18416618Y-18834467D01*
X18416618Y-18834467D02*
X18407094Y-18796372D01*
X18407094Y-18796372D02*
X18407094Y-18748753D01*
X18407094Y-18748753D02*
X18416618Y-18710658D01*
X18416618Y-18710658D02*
X18426141Y-18691610D01*
X18426141Y-18691610D02*
X18435665Y-18682086D01*
X18435665Y-18682086D02*
X18454713Y-18672562D01*
X18607094Y-18853515D02*
X18616618Y-18863039D01*
X18616618Y-18863039D02*
X18607094Y-18872562D01*
X18607094Y-18872562D02*
X18597570Y-18863039D01*
X18597570Y-18863039D02*
X18607094Y-18853515D01*
X18607094Y-18853515D02*
X18607094Y-18872562D01*
X18740427Y-18672562D02*
X18759475Y-18672562D01*
X18759475Y-18672562D02*
X18778522Y-18682086D01*
X18778522Y-18682086D02*
X18788046Y-18691610D01*
X18788046Y-18691610D02*
X18797570Y-18710658D01*
X18797570Y-18710658D02*
X18807094Y-18748753D01*
X18807094Y-18748753D02*
X18807094Y-18796372D01*
X18807094Y-18796372D02*
X18797570Y-18834467D01*
X18797570Y-18834467D02*
X18788046Y-18853515D01*
X18788046Y-18853515D02*
X18778522Y-18863039D01*
X18778522Y-18863039D02*
X18759475Y-18872562D01*
X18759475Y-18872562D02*
X18740427Y-18872562D01*
X18740427Y-18872562D02*
X18721379Y-18863039D01*
X18721379Y-18863039D02*
X18711856Y-18853515D01*
X18711856Y-18853515D02*
X18702332Y-18834467D01*
X18702332Y-18834467D02*
X18692808Y-18796372D01*
X18692808Y-18796372D02*
X18692808Y-18748753D01*
X18692808Y-18748753D02*
X18702332Y-18710658D01*
X18702332Y-18710658D02*
X18711856Y-18691610D01*
X18711856Y-18691610D02*
X18721379Y-18682086D01*
X18721379Y-18682086D02*
X18740427Y-18672562D01*
X18978522Y-18672562D02*
X18940427Y-18672562D01*
X18940427Y-18672562D02*
X18921379Y-18682086D01*
X18921379Y-18682086D02*
X18911856Y-18691610D01*
X18911856Y-18691610D02*
X18892808Y-18720181D01*
X18892808Y-18720181D02*
X18883284Y-18758277D01*
X18883284Y-18758277D02*
X18883284Y-18834467D01*
X18883284Y-18834467D02*
X18892808Y-18853515D01*
X18892808Y-18853515D02*
X18902332Y-18863039D01*
X18902332Y-18863039D02*
X18921379Y-18872562D01*
X18921379Y-18872562D02*
X18959475Y-18872562D01*
X18959475Y-18872562D02*
X18978522Y-18863039D01*
X18978522Y-18863039D02*
X18988046Y-18853515D01*
X18988046Y-18853515D02*
X18997570Y-18834467D01*
X18997570Y-18834467D02*
X18997570Y-18786848D01*
X18997570Y-18786848D02*
X18988046Y-18767801D01*
X18988046Y-18767801D02*
X18978522Y-18758277D01*
X18978522Y-18758277D02*
X18959475Y-18748753D01*
X18959475Y-18748753D02*
X18921379Y-18748753D01*
X18921379Y-18748753D02*
X18902332Y-18758277D01*
X18902332Y-18758277D02*
X18892808Y-18767801D01*
X18892808Y-18767801D02*
X18883284Y-18786848D01*
X19064237Y-18672562D02*
X19197570Y-18672562D01*
X19197570Y-18672562D02*
X19111856Y-18872562D01*
X19311856Y-18672562D02*
X19330903Y-18672562D01*
X19330903Y-18672562D02*
X19349951Y-18682086D01*
X19349951Y-18682086D02*
X19359475Y-18691610D01*
X19359475Y-18691610D02*
X19368999Y-18710658D01*
X19368999Y-18710658D02*
X19378522Y-18748753D01*
X19378522Y-18748753D02*
X19378522Y-18796372D01*
X19378522Y-18796372D02*
X19368999Y-18834467D01*
X19368999Y-18834467D02*
X19359475Y-18853515D01*
X19359475Y-18853515D02*
X19349951Y-18863039D01*
X19349951Y-18863039D02*
X19330903Y-18872562D01*
X19330903Y-18872562D02*
X19311856Y-18872562D01*
X19311856Y-18872562D02*
X19292808Y-18863039D01*
X19292808Y-18863039D02*
X19283284Y-18853515D01*
X19283284Y-18853515D02*
X19273760Y-18834467D01*
X19273760Y-18834467D02*
X19264237Y-18796372D01*
X19264237Y-18796372D02*
X19264237Y-18748753D01*
X19264237Y-18748753D02*
X19273760Y-18710658D01*
X19273760Y-18710658D02*
X19283284Y-18691610D01*
X19283284Y-18691610D02*
X19292808Y-18682086D01*
X19292808Y-18682086D02*
X19311856Y-18672562D01*
X19454713Y-18672562D02*
X19454713Y-18710658D01*
X19530903Y-18672562D02*
X19530903Y-18710658D01*
X19826142Y-18948753D02*
X19816618Y-18939229D01*
X19816618Y-18939229D02*
X19797570Y-18910658D01*
X19797570Y-18910658D02*
X19788046Y-18891610D01*
X19788046Y-18891610D02*
X19778522Y-18863039D01*
X19778522Y-18863039D02*
X19768999Y-18815420D01*
X19768999Y-18815420D02*
X19768999Y-18777324D01*
X19768999Y-18777324D02*
X19778522Y-18729705D01*
X19778522Y-18729705D02*
X19788046Y-18701134D01*
X19788046Y-18701134D02*
X19797570Y-18682086D01*
X19797570Y-18682086D02*
X19816618Y-18653515D01*
X19816618Y-18653515D02*
X19826142Y-18643991D01*
X19892808Y-18691610D02*
X19902332Y-18682086D01*
X19902332Y-18682086D02*
X19921380Y-18672562D01*
X19921380Y-18672562D02*
X19968999Y-18672562D01*
X19968999Y-18672562D02*
X19988046Y-18682086D01*
X19988046Y-18682086D02*
X19997570Y-18691610D01*
X19997570Y-18691610D02*
X20007094Y-18710658D01*
X20007094Y-18710658D02*
X20007094Y-18729705D01*
X20007094Y-18729705D02*
X19997570Y-18758277D01*
X19997570Y-18758277D02*
X19883284Y-18872562D01*
X19883284Y-18872562D02*
X20007094Y-18872562D01*
X20121380Y-18758277D02*
X20102332Y-18748753D01*
X20102332Y-18748753D02*
X20092808Y-18739229D01*
X20092808Y-18739229D02*
X20083284Y-18720181D01*
X20083284Y-18720181D02*
X20083284Y-18710658D01*
X20083284Y-18710658D02*
X20092808Y-18691610D01*
X20092808Y-18691610D02*
X20102332Y-18682086D01*
X20102332Y-18682086D02*
X20121380Y-18672562D01*
X20121380Y-18672562D02*
X20159475Y-18672562D01*
X20159475Y-18672562D02*
X20178522Y-18682086D01*
X20178522Y-18682086D02*
X20188046Y-18691610D01*
X20188046Y-18691610D02*
X20197570Y-18710658D01*
X20197570Y-18710658D02*
X20197570Y-18720181D01*
X20197570Y-18720181D02*
X20188046Y-18739229D01*
X20188046Y-18739229D02*
X20178522Y-18748753D01*
X20178522Y-18748753D02*
X20159475Y-18758277D01*
X20159475Y-18758277D02*
X20121380Y-18758277D01*
X20121380Y-18758277D02*
X20102332Y-18767801D01*
X20102332Y-18767801D02*
X20092808Y-18777324D01*
X20092808Y-18777324D02*
X20083284Y-18796372D01*
X20083284Y-18796372D02*
X20083284Y-18834467D01*
X20083284Y-18834467D02*
X20092808Y-18853515D01*
X20092808Y-18853515D02*
X20102332Y-18863039D01*
X20102332Y-18863039D02*
X20121380Y-18872562D01*
X20121380Y-18872562D02*
X20159475Y-18872562D01*
X20159475Y-18872562D02*
X20178522Y-18863039D01*
X20178522Y-18863039D02*
X20188046Y-18853515D01*
X20188046Y-18853515D02*
X20197570Y-18834467D01*
X20197570Y-18834467D02*
X20197570Y-18796372D01*
X20197570Y-18796372D02*
X20188046Y-18777324D01*
X20188046Y-18777324D02*
X20178522Y-18767801D01*
X20178522Y-18767801D02*
X20159475Y-18758277D01*
X20435665Y-18872562D02*
X20435665Y-18672562D01*
X20521380Y-18872562D02*
X20521380Y-18767801D01*
X20521380Y-18767801D02*
X20511856Y-18748753D01*
X20511856Y-18748753D02*
X20492808Y-18739229D01*
X20492808Y-18739229D02*
X20464237Y-18739229D01*
X20464237Y-18739229D02*
X20445189Y-18748753D01*
X20445189Y-18748753D02*
X20435665Y-18758277D01*
X20645189Y-18872562D02*
X20626142Y-18863039D01*
X20626142Y-18863039D02*
X20616618Y-18853515D01*
X20616618Y-18853515D02*
X20607094Y-18834467D01*
X20607094Y-18834467D02*
X20607094Y-18777324D01*
X20607094Y-18777324D02*
X20616618Y-18758277D01*
X20616618Y-18758277D02*
X20626142Y-18748753D01*
X20626142Y-18748753D02*
X20645189Y-18739229D01*
X20645189Y-18739229D02*
X20673761Y-18739229D01*
X20673761Y-18739229D02*
X20692808Y-18748753D01*
X20692808Y-18748753D02*
X20702332Y-18758277D01*
X20702332Y-18758277D02*
X20711856Y-18777324D01*
X20711856Y-18777324D02*
X20711856Y-18834467D01*
X20711856Y-18834467D02*
X20702332Y-18853515D01*
X20702332Y-18853515D02*
X20692808Y-18863039D01*
X20692808Y-18863039D02*
X20673761Y-18872562D01*
X20673761Y-18872562D02*
X20645189Y-18872562D01*
X20826142Y-18872562D02*
X20807094Y-18863039D01*
X20807094Y-18863039D02*
X20797570Y-18843991D01*
X20797570Y-18843991D02*
X20797570Y-18672562D01*
X20978523Y-18863039D02*
X20959475Y-18872562D01*
X20959475Y-18872562D02*
X20921380Y-18872562D01*
X20921380Y-18872562D02*
X20902332Y-18863039D01*
X20902332Y-18863039D02*
X20892808Y-18843991D01*
X20892808Y-18843991D02*
X20892808Y-18767801D01*
X20892808Y-18767801D02*
X20902332Y-18748753D01*
X20902332Y-18748753D02*
X20921380Y-18739229D01*
X20921380Y-18739229D02*
X20959475Y-18739229D01*
X20959475Y-18739229D02*
X20978523Y-18748753D01*
X20978523Y-18748753D02*
X20988046Y-18767801D01*
X20988046Y-18767801D02*
X20988046Y-18786848D01*
X20988046Y-18786848D02*
X20892808Y-18805896D01*
X21064237Y-18863039D02*
X21083284Y-18872562D01*
X21083284Y-18872562D02*
X21121380Y-18872562D01*
X21121380Y-18872562D02*
X21140427Y-18863039D01*
X21140427Y-18863039D02*
X21149951Y-18843991D01*
X21149951Y-18843991D02*
X21149951Y-18834467D01*
X21149951Y-18834467D02*
X21140427Y-18815420D01*
X21140427Y-18815420D02*
X21121380Y-18805896D01*
X21121380Y-18805896D02*
X21092808Y-18805896D01*
X21092808Y-18805896D02*
X21073761Y-18796372D01*
X21073761Y-18796372D02*
X21064237Y-18777324D01*
X21064237Y-18777324D02*
X21064237Y-18767801D01*
X21064237Y-18767801D02*
X21073761Y-18748753D01*
X21073761Y-18748753D02*
X21092808Y-18739229D01*
X21092808Y-18739229D02*
X21121380Y-18739229D01*
X21121380Y-18739229D02*
X21140427Y-18748753D01*
X21216618Y-18948753D02*
X21226142Y-18939229D01*
X21226142Y-18939229D02*
X21245189Y-18910658D01*
X21245189Y-18910658D02*
X21254713Y-18891610D01*
X21254713Y-18891610D02*
X21264237Y-18863039D01*
X21264237Y-18863039D02*
X21273761Y-18815420D01*
X21273761Y-18815420D02*
X21273761Y-18777324D01*
X21273761Y-18777324D02*
X21264237Y-18729705D01*
X21264237Y-18729705D02*
X21254713Y-18701134D01*
X21254713Y-18701134D02*
X21245189Y-18682086D01*
X21245189Y-18682086D02*
X21226142Y-18653515D01*
X21226142Y-18653515D02*
X21216618Y-18643991D01*
X21578523Y-18948753D02*
X21568999Y-18939229D01*
X21568999Y-18939229D02*
X21549951Y-18910658D01*
X21549951Y-18910658D02*
X21540427Y-18891610D01*
X21540427Y-18891610D02*
X21530904Y-18863039D01*
X21530904Y-18863039D02*
X21521380Y-18815420D01*
X21521380Y-18815420D02*
X21521380Y-18777324D01*
X21521380Y-18777324D02*
X21530904Y-18729705D01*
X21530904Y-18729705D02*
X21540427Y-18701134D01*
X21540427Y-18701134D02*
X21549951Y-18682086D01*
X21549951Y-18682086D02*
X21568999Y-18653515D01*
X21568999Y-18653515D02*
X21578523Y-18643991D01*
X21654713Y-18739229D02*
X21654713Y-18872562D01*
X21654713Y-18758277D02*
X21664237Y-18748753D01*
X21664237Y-18748753D02*
X21683284Y-18739229D01*
X21683284Y-18739229D02*
X21711856Y-18739229D01*
X21711856Y-18739229D02*
X21730904Y-18748753D01*
X21730904Y-18748753D02*
X21740427Y-18767801D01*
X21740427Y-18767801D02*
X21740427Y-18872562D01*
X21864237Y-18872562D02*
X21845189Y-18863039D01*
X21845189Y-18863039D02*
X21835665Y-18853515D01*
X21835665Y-18853515D02*
X21826142Y-18834467D01*
X21826142Y-18834467D02*
X21826142Y-18777324D01*
X21826142Y-18777324D02*
X21835665Y-18758277D01*
X21835665Y-18758277D02*
X21845189Y-18748753D01*
X21845189Y-18748753D02*
X21864237Y-18739229D01*
X21864237Y-18739229D02*
X21892808Y-18739229D01*
X21892808Y-18739229D02*
X21911856Y-18748753D01*
X21911856Y-18748753D02*
X21921380Y-18758277D01*
X21921380Y-18758277D02*
X21930904Y-18777324D01*
X21930904Y-18777324D02*
X21930904Y-18834467D01*
X21930904Y-18834467D02*
X21921380Y-18853515D01*
X21921380Y-18853515D02*
X21911856Y-18863039D01*
X21911856Y-18863039D02*
X21892808Y-18872562D01*
X21892808Y-18872562D02*
X21864237Y-18872562D01*
X21988046Y-18739229D02*
X22064237Y-18739229D01*
X22016618Y-18672562D02*
X22016618Y-18843991D01*
X22016618Y-18843991D02*
X22026142Y-18863039D01*
X22026142Y-18863039D02*
X22045189Y-18872562D01*
X22045189Y-18872562D02*
X22064237Y-18872562D01*
X22283285Y-18739229D02*
X22283285Y-18939229D01*
X22283285Y-18748753D02*
X22302332Y-18739229D01*
X22302332Y-18739229D02*
X22340427Y-18739229D01*
X22340427Y-18739229D02*
X22359475Y-18748753D01*
X22359475Y-18748753D02*
X22368999Y-18758277D01*
X22368999Y-18758277D02*
X22378523Y-18777324D01*
X22378523Y-18777324D02*
X22378523Y-18834467D01*
X22378523Y-18834467D02*
X22368999Y-18853515D01*
X22368999Y-18853515D02*
X22359475Y-18863039D01*
X22359475Y-18863039D02*
X22340427Y-18872562D01*
X22340427Y-18872562D02*
X22302332Y-18872562D01*
X22302332Y-18872562D02*
X22283285Y-18863039D01*
X22492808Y-18872562D02*
X22473761Y-18863039D01*
X22473761Y-18863039D02*
X22464237Y-18843991D01*
X22464237Y-18843991D02*
X22464237Y-18672562D01*
X22654713Y-18872562D02*
X22654713Y-18767801D01*
X22654713Y-18767801D02*
X22645189Y-18748753D01*
X22645189Y-18748753D02*
X22626142Y-18739229D01*
X22626142Y-18739229D02*
X22588046Y-18739229D01*
X22588046Y-18739229D02*
X22568999Y-18748753D01*
X22654713Y-18863039D02*
X22635665Y-18872562D01*
X22635665Y-18872562D02*
X22588046Y-18872562D01*
X22588046Y-18872562D02*
X22568999Y-18863039D01*
X22568999Y-18863039D02*
X22559475Y-18843991D01*
X22559475Y-18843991D02*
X22559475Y-18824943D01*
X22559475Y-18824943D02*
X22568999Y-18805896D01*
X22568999Y-18805896D02*
X22588046Y-18796372D01*
X22588046Y-18796372D02*
X22635665Y-18796372D01*
X22635665Y-18796372D02*
X22654713Y-18786848D01*
X22721380Y-18739229D02*
X22797570Y-18739229D01*
X22749951Y-18672562D02*
X22749951Y-18843991D01*
X22749951Y-18843991D02*
X22759475Y-18863039D01*
X22759475Y-18863039D02*
X22778523Y-18872562D01*
X22778523Y-18872562D02*
X22797570Y-18872562D01*
X22940427Y-18863039D02*
X22921380Y-18872562D01*
X22921380Y-18872562D02*
X22883284Y-18872562D01*
X22883284Y-18872562D02*
X22864237Y-18863039D01*
X22864237Y-18863039D02*
X22854713Y-18843991D01*
X22854713Y-18843991D02*
X22854713Y-18767801D01*
X22854713Y-18767801D02*
X22864237Y-18748753D01*
X22864237Y-18748753D02*
X22883284Y-18739229D01*
X22883284Y-18739229D02*
X22921380Y-18739229D01*
X22921380Y-18739229D02*
X22940427Y-18748753D01*
X22940427Y-18748753D02*
X22949951Y-18767801D01*
X22949951Y-18767801D02*
X22949951Y-18786848D01*
X22949951Y-18786848D02*
X22854713Y-18805896D01*
X23121380Y-18872562D02*
X23121380Y-18672562D01*
X23121380Y-18863039D02*
X23102332Y-18872562D01*
X23102332Y-18872562D02*
X23064237Y-18872562D01*
X23064237Y-18872562D02*
X23045189Y-18863039D01*
X23045189Y-18863039D02*
X23035665Y-18853515D01*
X23035665Y-18853515D02*
X23026142Y-18834467D01*
X23026142Y-18834467D02*
X23026142Y-18777324D01*
X23026142Y-18777324D02*
X23035665Y-18758277D01*
X23035665Y-18758277D02*
X23045189Y-18748753D01*
X23045189Y-18748753D02*
X23064237Y-18739229D01*
X23064237Y-18739229D02*
X23102332Y-18739229D01*
X23102332Y-18739229D02*
X23121380Y-18748753D01*
X23197570Y-18948753D02*
X23207094Y-18939229D01*
X23207094Y-18939229D02*
X23226142Y-18910658D01*
X23226142Y-18910658D02*
X23235665Y-18891610D01*
X23235665Y-18891610D02*
X23245189Y-18863039D01*
X23245189Y-18863039D02*
X23254713Y-18815420D01*
X23254713Y-18815420D02*
X23254713Y-18777324D01*
X23254713Y-18777324D02*
X23245189Y-18729705D01*
X23245189Y-18729705D02*
X23235665Y-18701134D01*
X23235665Y-18701134D02*
X23226142Y-18682086D01*
X23226142Y-18682086D02*
X23207094Y-18653515D01*
X23207094Y-18653515D02*
X23197570Y-18643991D01*
X16251079Y-19071259D02*
G75*
G02*
X16051079Y-19071259I-100000J0D01*
G01*
X16051079Y-19071259D02*
G75*
G02*
X16251079Y-19071259I100000J0D01*
G01*
X16492808Y-18962742D02*
X16616617Y-18962742D01*
X16616617Y-18962742D02*
X16549951Y-19038933D01*
X16549951Y-19038933D02*
X16578522Y-19038933D01*
X16578522Y-19038933D02*
X16597570Y-19048457D01*
X16597570Y-19048457D02*
X16607093Y-19057981D01*
X16607093Y-19057981D02*
X16616617Y-19077028D01*
X16616617Y-19077028D02*
X16616617Y-19124647D01*
X16616617Y-19124647D02*
X16607093Y-19143695D01*
X16607093Y-19143695D02*
X16597570Y-19153219D01*
X16597570Y-19153219D02*
X16578522Y-19162742D01*
X16578522Y-19162742D02*
X16521379Y-19162742D01*
X16521379Y-19162742D02*
X16502332Y-19153219D01*
X16502332Y-19153219D02*
X16492808Y-19143695D01*
X16702332Y-19143695D02*
X16711855Y-19153219D01*
X16711855Y-19153219D02*
X16702332Y-19162742D01*
X16702332Y-19162742D02*
X16692808Y-19153219D01*
X16692808Y-19153219D02*
X16702332Y-19143695D01*
X16702332Y-19143695D02*
X16702332Y-19162742D01*
X16835665Y-18962742D02*
X16854713Y-18962742D01*
X16854713Y-18962742D02*
X16873760Y-18972266D01*
X16873760Y-18972266D02*
X16883284Y-18981790D01*
X16883284Y-18981790D02*
X16892808Y-19000838D01*
X16892808Y-19000838D02*
X16902332Y-19038933D01*
X16902332Y-19038933D02*
X16902332Y-19086552D01*
X16902332Y-19086552D02*
X16892808Y-19124647D01*
X16892808Y-19124647D02*
X16883284Y-19143695D01*
X16883284Y-19143695D02*
X16873760Y-19153219D01*
X16873760Y-19153219D02*
X16854713Y-19162742D01*
X16854713Y-19162742D02*
X16835665Y-19162742D01*
X16835665Y-19162742D02*
X16816617Y-19153219D01*
X16816617Y-19153219D02*
X16807094Y-19143695D01*
X16807094Y-19143695D02*
X16797570Y-19124647D01*
X16797570Y-19124647D02*
X16788046Y-19086552D01*
X16788046Y-19086552D02*
X16788046Y-19038933D01*
X16788046Y-19038933D02*
X16797570Y-19000838D01*
X16797570Y-19000838D02*
X16807094Y-18981790D01*
X16807094Y-18981790D02*
X16816617Y-18972266D01*
X16816617Y-18972266D02*
X16835665Y-18962742D01*
X17026141Y-18962742D02*
X17045189Y-18962742D01*
X17045189Y-18962742D02*
X17064236Y-18972266D01*
X17064236Y-18972266D02*
X17073760Y-18981790D01*
X17073760Y-18981790D02*
X17083284Y-19000838D01*
X17083284Y-19000838D02*
X17092808Y-19038933D01*
X17092808Y-19038933D02*
X17092808Y-19086552D01*
X17092808Y-19086552D02*
X17083284Y-19124647D01*
X17083284Y-19124647D02*
X17073760Y-19143695D01*
X17073760Y-19143695D02*
X17064236Y-19153219D01*
X17064236Y-19153219D02*
X17045189Y-19162742D01*
X17045189Y-19162742D02*
X17026141Y-19162742D01*
X17026141Y-19162742D02*
X17007094Y-19153219D01*
X17007094Y-19153219D02*
X16997570Y-19143695D01*
X16997570Y-19143695D02*
X16988046Y-19124647D01*
X16988046Y-19124647D02*
X16978522Y-19086552D01*
X16978522Y-19086552D02*
X16978522Y-19038933D01*
X16978522Y-19038933D02*
X16988046Y-19000838D01*
X16988046Y-19000838D02*
X16997570Y-18981790D01*
X16997570Y-18981790D02*
X17007094Y-18972266D01*
X17007094Y-18972266D02*
X17026141Y-18962742D01*
X17216617Y-18962742D02*
X17235665Y-18962742D01*
X17235665Y-18962742D02*
X17254713Y-18972266D01*
X17254713Y-18972266D02*
X17264236Y-18981790D01*
X17264236Y-18981790D02*
X17273760Y-19000838D01*
X17273760Y-19000838D02*
X17283284Y-19038933D01*
X17283284Y-19038933D02*
X17283284Y-19086552D01*
X17283284Y-19086552D02*
X17273760Y-19124647D01*
X17273760Y-19124647D02*
X17264236Y-19143695D01*
X17264236Y-19143695D02*
X17254713Y-19153219D01*
X17254713Y-19153219D02*
X17235665Y-19162742D01*
X17235665Y-19162742D02*
X17216617Y-19162742D01*
X17216617Y-19162742D02*
X17197570Y-19153219D01*
X17197570Y-19153219D02*
X17188046Y-19143695D01*
X17188046Y-19143695D02*
X17178522Y-19124647D01*
X17178522Y-19124647D02*
X17168998Y-19086552D01*
X17168998Y-19086552D02*
X17168998Y-19038933D01*
X17168998Y-19038933D02*
X17178522Y-19000838D01*
X17178522Y-19000838D02*
X17188046Y-18981790D01*
X17188046Y-18981790D02*
X17197570Y-18972266D01*
X17197570Y-18972266D02*
X17216617Y-18962742D01*
X17368998Y-19162742D02*
X17368998Y-19029409D01*
X17368998Y-19048457D02*
X17378522Y-19038933D01*
X17378522Y-19038933D02*
X17397570Y-19029409D01*
X17397570Y-19029409D02*
X17426141Y-19029409D01*
X17426141Y-19029409D02*
X17445189Y-19038933D01*
X17445189Y-19038933D02*
X17454713Y-19057981D01*
X17454713Y-19057981D02*
X17454713Y-19162742D01*
X17454713Y-19057981D02*
X17464236Y-19038933D01*
X17464236Y-19038933D02*
X17483284Y-19029409D01*
X17483284Y-19029409D02*
X17511855Y-19029409D01*
X17511855Y-19029409D02*
X17530903Y-19038933D01*
X17530903Y-19038933D02*
X17540427Y-19057981D01*
X17540427Y-19057981D02*
X17540427Y-19162742D01*
X17635665Y-19162742D02*
X17635665Y-19029409D01*
X17635665Y-19048457D02*
X17645189Y-19038933D01*
X17645189Y-19038933D02*
X17664236Y-19029409D01*
X17664236Y-19029409D02*
X17692808Y-19029409D01*
X17692808Y-19029409D02*
X17711856Y-19038933D01*
X17711856Y-19038933D02*
X17721379Y-19057981D01*
X17721379Y-19057981D02*
X17721379Y-19162742D01*
X17721379Y-19057981D02*
X17730903Y-19038933D01*
X17730903Y-19038933D02*
X17749951Y-19029409D01*
X17749951Y-19029409D02*
X17778522Y-19029409D01*
X17778522Y-19029409D02*
X17797570Y-19038933D01*
X17797570Y-19038933D02*
X17807094Y-19057981D01*
X17807094Y-19057981D02*
X17807094Y-19162742D01*
X18197570Y-18953219D02*
X18026141Y-19210361D01*
X18454713Y-18962742D02*
X18473760Y-18962742D01*
X18473760Y-18962742D02*
X18492808Y-18972266D01*
X18492808Y-18972266D02*
X18502332Y-18981790D01*
X18502332Y-18981790D02*
X18511856Y-19000838D01*
X18511856Y-19000838D02*
X18521379Y-19038933D01*
X18521379Y-19038933D02*
X18521379Y-19086552D01*
X18521379Y-19086552D02*
X18511856Y-19124647D01*
X18511856Y-19124647D02*
X18502332Y-19143695D01*
X18502332Y-19143695D02*
X18492808Y-19153219D01*
X18492808Y-19153219D02*
X18473760Y-19162742D01*
X18473760Y-19162742D02*
X18454713Y-19162742D01*
X18454713Y-19162742D02*
X18435665Y-19153219D01*
X18435665Y-19153219D02*
X18426141Y-19143695D01*
X18426141Y-19143695D02*
X18416618Y-19124647D01*
X18416618Y-19124647D02*
X18407094Y-19086552D01*
X18407094Y-19086552D02*
X18407094Y-19038933D01*
X18407094Y-19038933D02*
X18416618Y-19000838D01*
X18416618Y-19000838D02*
X18426141Y-18981790D01*
X18426141Y-18981790D02*
X18435665Y-18972266D01*
X18435665Y-18972266D02*
X18454713Y-18962742D01*
X18607094Y-19143695D02*
X18616618Y-19153219D01*
X18616618Y-19153219D02*
X18607094Y-19162742D01*
X18607094Y-19162742D02*
X18597570Y-19153219D01*
X18597570Y-19153219D02*
X18607094Y-19143695D01*
X18607094Y-19143695D02*
X18607094Y-19162742D01*
X18807094Y-19162742D02*
X18692808Y-19162742D01*
X18749951Y-19162742D02*
X18749951Y-18962742D01*
X18749951Y-18962742D02*
X18730903Y-18991314D01*
X18730903Y-18991314D02*
X18711856Y-19010361D01*
X18711856Y-19010361D02*
X18692808Y-19019885D01*
X18997570Y-19162742D02*
X18883284Y-19162742D01*
X18940427Y-19162742D02*
X18940427Y-18962742D01*
X18940427Y-18962742D02*
X18921379Y-18991314D01*
X18921379Y-18991314D02*
X18902332Y-19010361D01*
X18902332Y-19010361D02*
X18883284Y-19019885D01*
X19111856Y-19048457D02*
X19092808Y-19038933D01*
X19092808Y-19038933D02*
X19083284Y-19029409D01*
X19083284Y-19029409D02*
X19073760Y-19010361D01*
X19073760Y-19010361D02*
X19073760Y-19000838D01*
X19073760Y-19000838D02*
X19083284Y-18981790D01*
X19083284Y-18981790D02*
X19092808Y-18972266D01*
X19092808Y-18972266D02*
X19111856Y-18962742D01*
X19111856Y-18962742D02*
X19149951Y-18962742D01*
X19149951Y-18962742D02*
X19168999Y-18972266D01*
X19168999Y-18972266D02*
X19178522Y-18981790D01*
X19178522Y-18981790D02*
X19188046Y-19000838D01*
X19188046Y-19000838D02*
X19188046Y-19010361D01*
X19188046Y-19010361D02*
X19178522Y-19029409D01*
X19178522Y-19029409D02*
X19168999Y-19038933D01*
X19168999Y-19038933D02*
X19149951Y-19048457D01*
X19149951Y-19048457D02*
X19111856Y-19048457D01*
X19111856Y-19048457D02*
X19092808Y-19057981D01*
X19092808Y-19057981D02*
X19083284Y-19067504D01*
X19083284Y-19067504D02*
X19073760Y-19086552D01*
X19073760Y-19086552D02*
X19073760Y-19124647D01*
X19073760Y-19124647D02*
X19083284Y-19143695D01*
X19083284Y-19143695D02*
X19092808Y-19153219D01*
X19092808Y-19153219D02*
X19111856Y-19162742D01*
X19111856Y-19162742D02*
X19149951Y-19162742D01*
X19149951Y-19162742D02*
X19168999Y-19153219D01*
X19168999Y-19153219D02*
X19178522Y-19143695D01*
X19178522Y-19143695D02*
X19188046Y-19124647D01*
X19188046Y-19124647D02*
X19188046Y-19086552D01*
X19188046Y-19086552D02*
X19178522Y-19067504D01*
X19178522Y-19067504D02*
X19168999Y-19057981D01*
X19168999Y-19057981D02*
X19149951Y-19048457D01*
X19378522Y-19162742D02*
X19264237Y-19162742D01*
X19321379Y-19162742D02*
X19321379Y-18962742D01*
X19321379Y-18962742D02*
X19302332Y-18991314D01*
X19302332Y-18991314D02*
X19283284Y-19010361D01*
X19283284Y-19010361D02*
X19264237Y-19019885D01*
X19454713Y-18962742D02*
X19454713Y-19000838D01*
X19530903Y-18962742D02*
X19530903Y-19000838D01*
X19826142Y-19238933D02*
X19816618Y-19229409D01*
X19816618Y-19229409D02*
X19797570Y-19200838D01*
X19797570Y-19200838D02*
X19788046Y-19181790D01*
X19788046Y-19181790D02*
X19778522Y-19153219D01*
X19778522Y-19153219D02*
X19768999Y-19105600D01*
X19768999Y-19105600D02*
X19768999Y-19067504D01*
X19768999Y-19067504D02*
X19778522Y-19019885D01*
X19778522Y-19019885D02*
X19788046Y-18991314D01*
X19788046Y-18991314D02*
X19797570Y-18972266D01*
X19797570Y-18972266D02*
X19816618Y-18943695D01*
X19816618Y-18943695D02*
X19826142Y-18934171D01*
X19892808Y-18981790D02*
X19902332Y-18972266D01*
X19902332Y-18972266D02*
X19921380Y-18962742D01*
X19921380Y-18962742D02*
X19968999Y-18962742D01*
X19968999Y-18962742D02*
X19988046Y-18972266D01*
X19988046Y-18972266D02*
X19997570Y-18981790D01*
X19997570Y-18981790D02*
X20007094Y-19000838D01*
X20007094Y-19000838D02*
X20007094Y-19019885D01*
X20007094Y-19019885D02*
X19997570Y-19048457D01*
X19997570Y-19048457D02*
X19883284Y-19162742D01*
X19883284Y-19162742D02*
X20007094Y-19162742D01*
X20121380Y-19048457D02*
X20102332Y-19038933D01*
X20102332Y-19038933D02*
X20092808Y-19029409D01*
X20092808Y-19029409D02*
X20083284Y-19010361D01*
X20083284Y-19010361D02*
X20083284Y-19000838D01*
X20083284Y-19000838D02*
X20092808Y-18981790D01*
X20092808Y-18981790D02*
X20102332Y-18972266D01*
X20102332Y-18972266D02*
X20121380Y-18962742D01*
X20121380Y-18962742D02*
X20159475Y-18962742D01*
X20159475Y-18962742D02*
X20178522Y-18972266D01*
X20178522Y-18972266D02*
X20188046Y-18981790D01*
X20188046Y-18981790D02*
X20197570Y-19000838D01*
X20197570Y-19000838D02*
X20197570Y-19010361D01*
X20197570Y-19010361D02*
X20188046Y-19029409D01*
X20188046Y-19029409D02*
X20178522Y-19038933D01*
X20178522Y-19038933D02*
X20159475Y-19048457D01*
X20159475Y-19048457D02*
X20121380Y-19048457D01*
X20121380Y-19048457D02*
X20102332Y-19057981D01*
X20102332Y-19057981D02*
X20092808Y-19067504D01*
X20092808Y-19067504D02*
X20083284Y-19086552D01*
X20083284Y-19086552D02*
X20083284Y-19124647D01*
X20083284Y-19124647D02*
X20092808Y-19143695D01*
X20092808Y-19143695D02*
X20102332Y-19153219D01*
X20102332Y-19153219D02*
X20121380Y-19162742D01*
X20121380Y-19162742D02*
X20159475Y-19162742D01*
X20159475Y-19162742D02*
X20178522Y-19153219D01*
X20178522Y-19153219D02*
X20188046Y-19143695D01*
X20188046Y-19143695D02*
X20197570Y-19124647D01*
X20197570Y-19124647D02*
X20197570Y-19086552D01*
X20197570Y-19086552D02*
X20188046Y-19067504D01*
X20188046Y-19067504D02*
X20178522Y-19057981D01*
X20178522Y-19057981D02*
X20159475Y-19048457D01*
X20435665Y-19162742D02*
X20435665Y-18962742D01*
X20521380Y-19162742D02*
X20521380Y-19057981D01*
X20521380Y-19057981D02*
X20511856Y-19038933D01*
X20511856Y-19038933D02*
X20492808Y-19029409D01*
X20492808Y-19029409D02*
X20464237Y-19029409D01*
X20464237Y-19029409D02*
X20445189Y-19038933D01*
X20445189Y-19038933D02*
X20435665Y-19048457D01*
X20645189Y-19162742D02*
X20626142Y-19153219D01*
X20626142Y-19153219D02*
X20616618Y-19143695D01*
X20616618Y-19143695D02*
X20607094Y-19124647D01*
X20607094Y-19124647D02*
X20607094Y-19067504D01*
X20607094Y-19067504D02*
X20616618Y-19048457D01*
X20616618Y-19048457D02*
X20626142Y-19038933D01*
X20626142Y-19038933D02*
X20645189Y-19029409D01*
X20645189Y-19029409D02*
X20673761Y-19029409D01*
X20673761Y-19029409D02*
X20692808Y-19038933D01*
X20692808Y-19038933D02*
X20702332Y-19048457D01*
X20702332Y-19048457D02*
X20711856Y-19067504D01*
X20711856Y-19067504D02*
X20711856Y-19124647D01*
X20711856Y-19124647D02*
X20702332Y-19143695D01*
X20702332Y-19143695D02*
X20692808Y-19153219D01*
X20692808Y-19153219D02*
X20673761Y-19162742D01*
X20673761Y-19162742D02*
X20645189Y-19162742D01*
X20826142Y-19162742D02*
X20807094Y-19153219D01*
X20807094Y-19153219D02*
X20797570Y-19134171D01*
X20797570Y-19134171D02*
X20797570Y-18962742D01*
X20978523Y-19153219D02*
X20959475Y-19162742D01*
X20959475Y-19162742D02*
X20921380Y-19162742D01*
X20921380Y-19162742D02*
X20902332Y-19153219D01*
X20902332Y-19153219D02*
X20892808Y-19134171D01*
X20892808Y-19134171D02*
X20892808Y-19057981D01*
X20892808Y-19057981D02*
X20902332Y-19038933D01*
X20902332Y-19038933D02*
X20921380Y-19029409D01*
X20921380Y-19029409D02*
X20959475Y-19029409D01*
X20959475Y-19029409D02*
X20978523Y-19038933D01*
X20978523Y-19038933D02*
X20988046Y-19057981D01*
X20988046Y-19057981D02*
X20988046Y-19077028D01*
X20988046Y-19077028D02*
X20892808Y-19096076D01*
X21064237Y-19153219D02*
X21083284Y-19162742D01*
X21083284Y-19162742D02*
X21121380Y-19162742D01*
X21121380Y-19162742D02*
X21140427Y-19153219D01*
X21140427Y-19153219D02*
X21149951Y-19134171D01*
X21149951Y-19134171D02*
X21149951Y-19124647D01*
X21149951Y-19124647D02*
X21140427Y-19105600D01*
X21140427Y-19105600D02*
X21121380Y-19096076D01*
X21121380Y-19096076D02*
X21092808Y-19096076D01*
X21092808Y-19096076D02*
X21073761Y-19086552D01*
X21073761Y-19086552D02*
X21064237Y-19067504D01*
X21064237Y-19067504D02*
X21064237Y-19057981D01*
X21064237Y-19057981D02*
X21073761Y-19038933D01*
X21073761Y-19038933D02*
X21092808Y-19029409D01*
X21092808Y-19029409D02*
X21121380Y-19029409D01*
X21121380Y-19029409D02*
X21140427Y-19038933D01*
X21216618Y-19238933D02*
X21226142Y-19229409D01*
X21226142Y-19229409D02*
X21245189Y-19200838D01*
X21245189Y-19200838D02*
X21254713Y-19181790D01*
X21254713Y-19181790D02*
X21264237Y-19153219D01*
X21264237Y-19153219D02*
X21273761Y-19105600D01*
X21273761Y-19105600D02*
X21273761Y-19067504D01*
X21273761Y-19067504D02*
X21264237Y-19019885D01*
X21264237Y-19019885D02*
X21254713Y-18991314D01*
X21254713Y-18991314D02*
X21245189Y-18972266D01*
X21245189Y-18972266D02*
X21226142Y-18943695D01*
X21226142Y-18943695D02*
X21216618Y-18934171D01*
X21578523Y-19238933D02*
X21568999Y-19229409D01*
X21568999Y-19229409D02*
X21549951Y-19200838D01*
X21549951Y-19200838D02*
X21540427Y-19181790D01*
X21540427Y-19181790D02*
X21530904Y-19153219D01*
X21530904Y-19153219D02*
X21521380Y-19105600D01*
X21521380Y-19105600D02*
X21521380Y-19067504D01*
X21521380Y-19067504D02*
X21530904Y-19019885D01*
X21530904Y-19019885D02*
X21540427Y-18991314D01*
X21540427Y-18991314D02*
X21549951Y-18972266D01*
X21549951Y-18972266D02*
X21568999Y-18943695D01*
X21568999Y-18943695D02*
X21578523Y-18934171D01*
X21654713Y-19029409D02*
X21654713Y-19162742D01*
X21654713Y-19048457D02*
X21664237Y-19038933D01*
X21664237Y-19038933D02*
X21683284Y-19029409D01*
X21683284Y-19029409D02*
X21711856Y-19029409D01*
X21711856Y-19029409D02*
X21730904Y-19038933D01*
X21730904Y-19038933D02*
X21740427Y-19057981D01*
X21740427Y-19057981D02*
X21740427Y-19162742D01*
X21864237Y-19162742D02*
X21845189Y-19153219D01*
X21845189Y-19153219D02*
X21835665Y-19143695D01*
X21835665Y-19143695D02*
X21826142Y-19124647D01*
X21826142Y-19124647D02*
X21826142Y-19067504D01*
X21826142Y-19067504D02*
X21835665Y-19048457D01*
X21835665Y-19048457D02*
X21845189Y-19038933D01*
X21845189Y-19038933D02*
X21864237Y-19029409D01*
X21864237Y-19029409D02*
X21892808Y-19029409D01*
X21892808Y-19029409D02*
X21911856Y-19038933D01*
X21911856Y-19038933D02*
X21921380Y-19048457D01*
X21921380Y-19048457D02*
X21930904Y-19067504D01*
X21930904Y-19067504D02*
X21930904Y-19124647D01*
X21930904Y-19124647D02*
X21921380Y-19143695D01*
X21921380Y-19143695D02*
X21911856Y-19153219D01*
X21911856Y-19153219D02*
X21892808Y-19162742D01*
X21892808Y-19162742D02*
X21864237Y-19162742D01*
X21988046Y-19029409D02*
X22064237Y-19029409D01*
X22016618Y-18962742D02*
X22016618Y-19134171D01*
X22016618Y-19134171D02*
X22026142Y-19153219D01*
X22026142Y-19153219D02*
X22045189Y-19162742D01*
X22045189Y-19162742D02*
X22064237Y-19162742D01*
X22283285Y-19029409D02*
X22283285Y-19229409D01*
X22283285Y-19038933D02*
X22302332Y-19029409D01*
X22302332Y-19029409D02*
X22340427Y-19029409D01*
X22340427Y-19029409D02*
X22359475Y-19038933D01*
X22359475Y-19038933D02*
X22368999Y-19048457D01*
X22368999Y-19048457D02*
X22378523Y-19067504D01*
X22378523Y-19067504D02*
X22378523Y-19124647D01*
X22378523Y-19124647D02*
X22368999Y-19143695D01*
X22368999Y-19143695D02*
X22359475Y-19153219D01*
X22359475Y-19153219D02*
X22340427Y-19162742D01*
X22340427Y-19162742D02*
X22302332Y-19162742D01*
X22302332Y-19162742D02*
X22283285Y-19153219D01*
X22492808Y-19162742D02*
X22473761Y-19153219D01*
X22473761Y-19153219D02*
X22464237Y-19134171D01*
X22464237Y-19134171D02*
X22464237Y-18962742D01*
X22654713Y-19162742D02*
X22654713Y-19057981D01*
X22654713Y-19057981D02*
X22645189Y-19038933D01*
X22645189Y-19038933D02*
X22626142Y-19029409D01*
X22626142Y-19029409D02*
X22588046Y-19029409D01*
X22588046Y-19029409D02*
X22568999Y-19038933D01*
X22654713Y-19153219D02*
X22635665Y-19162742D01*
X22635665Y-19162742D02*
X22588046Y-19162742D01*
X22588046Y-19162742D02*
X22568999Y-19153219D01*
X22568999Y-19153219D02*
X22559475Y-19134171D01*
X22559475Y-19134171D02*
X22559475Y-19115123D01*
X22559475Y-19115123D02*
X22568999Y-19096076D01*
X22568999Y-19096076D02*
X22588046Y-19086552D01*
X22588046Y-19086552D02*
X22635665Y-19086552D01*
X22635665Y-19086552D02*
X22654713Y-19077028D01*
X22721380Y-19029409D02*
X22797570Y-19029409D01*
X22749951Y-18962742D02*
X22749951Y-19134171D01*
X22749951Y-19134171D02*
X22759475Y-19153219D01*
X22759475Y-19153219D02*
X22778523Y-19162742D01*
X22778523Y-19162742D02*
X22797570Y-19162742D01*
X22940427Y-19153219D02*
X22921380Y-19162742D01*
X22921380Y-19162742D02*
X22883284Y-19162742D01*
X22883284Y-19162742D02*
X22864237Y-19153219D01*
X22864237Y-19153219D02*
X22854713Y-19134171D01*
X22854713Y-19134171D02*
X22854713Y-19057981D01*
X22854713Y-19057981D02*
X22864237Y-19038933D01*
X22864237Y-19038933D02*
X22883284Y-19029409D01*
X22883284Y-19029409D02*
X22921380Y-19029409D01*
X22921380Y-19029409D02*
X22940427Y-19038933D01*
X22940427Y-19038933D02*
X22949951Y-19057981D01*
X22949951Y-19057981D02*
X22949951Y-19077028D01*
X22949951Y-19077028D02*
X22854713Y-19096076D01*
X23121380Y-19162742D02*
X23121380Y-18962742D01*
X23121380Y-19153219D02*
X23102332Y-19162742D01*
X23102332Y-19162742D02*
X23064237Y-19162742D01*
X23064237Y-19162742D02*
X23045189Y-19153219D01*
X23045189Y-19153219D02*
X23035665Y-19143695D01*
X23035665Y-19143695D02*
X23026142Y-19124647D01*
X23026142Y-19124647D02*
X23026142Y-19067504D01*
X23026142Y-19067504D02*
X23035665Y-19048457D01*
X23035665Y-19048457D02*
X23045189Y-19038933D01*
X23045189Y-19038933D02*
X23064237Y-19029409D01*
X23064237Y-19029409D02*
X23102332Y-19029409D01*
X23102332Y-19029409D02*
X23121380Y-19038933D01*
X23197570Y-19238933D02*
X23207094Y-19229409D01*
X23207094Y-19229409D02*
X23226142Y-19200838D01*
X23226142Y-19200838D02*
X23235665Y-19181790D01*
X23235665Y-19181790D02*
X23245189Y-19153219D01*
X23245189Y-19153219D02*
X23254713Y-19105600D01*
X23254713Y-19105600D02*
X23254713Y-19067504D01*
X23254713Y-19067504D02*
X23245189Y-19019885D01*
X23245189Y-19019885D02*
X23235665Y-18991314D01*
X23235665Y-18991314D02*
X23226142Y-18972266D01*
X23226142Y-18972266D02*
X23207094Y-18943695D01*
X23207094Y-18943695D02*
X23197570Y-18934171D01*
X16151079Y-19291259D02*
X16151079Y-19491259D01*
X16051079Y-19391259D02*
X16251079Y-19391259D01*
X16492808Y-19282742D02*
X16616617Y-19282742D01*
X16616617Y-19282742D02*
X16549951Y-19358933D01*
X16549951Y-19358933D02*
X16578522Y-19358933D01*
X16578522Y-19358933D02*
X16597570Y-19368457D01*
X16597570Y-19368457D02*
X16607093Y-19377981D01*
X16607093Y-19377981D02*
X16616617Y-19397028D01*
X16616617Y-19397028D02*
X16616617Y-19444647D01*
X16616617Y-19444647D02*
X16607093Y-19463695D01*
X16607093Y-19463695D02*
X16597570Y-19473219D01*
X16597570Y-19473219D02*
X16578522Y-19482742D01*
X16578522Y-19482742D02*
X16521379Y-19482742D01*
X16521379Y-19482742D02*
X16502332Y-19473219D01*
X16502332Y-19473219D02*
X16492808Y-19463695D01*
X16702332Y-19463695D02*
X16711855Y-19473219D01*
X16711855Y-19473219D02*
X16702332Y-19482742D01*
X16702332Y-19482742D02*
X16692808Y-19473219D01*
X16692808Y-19473219D02*
X16702332Y-19463695D01*
X16702332Y-19463695D02*
X16702332Y-19482742D01*
X16883284Y-19349409D02*
X16883284Y-19482742D01*
X16835665Y-19273219D02*
X16788046Y-19416076D01*
X16788046Y-19416076D02*
X16911855Y-19416076D01*
X16978522Y-19301790D02*
X16988046Y-19292266D01*
X16988046Y-19292266D02*
X17007094Y-19282742D01*
X17007094Y-19282742D02*
X17054713Y-19282742D01*
X17054713Y-19282742D02*
X17073760Y-19292266D01*
X17073760Y-19292266D02*
X17083284Y-19301790D01*
X17083284Y-19301790D02*
X17092808Y-19320838D01*
X17092808Y-19320838D02*
X17092808Y-19339885D01*
X17092808Y-19339885D02*
X17083284Y-19368457D01*
X17083284Y-19368457D02*
X16968998Y-19482742D01*
X16968998Y-19482742D02*
X17092808Y-19482742D01*
X17188046Y-19482742D02*
X17226141Y-19482742D01*
X17226141Y-19482742D02*
X17245189Y-19473219D01*
X17245189Y-19473219D02*
X17254713Y-19463695D01*
X17254713Y-19463695D02*
X17273760Y-19435123D01*
X17273760Y-19435123D02*
X17283284Y-19397028D01*
X17283284Y-19397028D02*
X17283284Y-19320838D01*
X17283284Y-19320838D02*
X17273760Y-19301790D01*
X17273760Y-19301790D02*
X17264236Y-19292266D01*
X17264236Y-19292266D02*
X17245189Y-19282742D01*
X17245189Y-19282742D02*
X17207094Y-19282742D01*
X17207094Y-19282742D02*
X17188046Y-19292266D01*
X17188046Y-19292266D02*
X17178522Y-19301790D01*
X17178522Y-19301790D02*
X17168998Y-19320838D01*
X17168998Y-19320838D02*
X17168998Y-19368457D01*
X17168998Y-19368457D02*
X17178522Y-19387504D01*
X17178522Y-19387504D02*
X17188046Y-19397028D01*
X17188046Y-19397028D02*
X17207094Y-19406552D01*
X17207094Y-19406552D02*
X17245189Y-19406552D01*
X17245189Y-19406552D02*
X17264236Y-19397028D01*
X17264236Y-19397028D02*
X17273760Y-19387504D01*
X17273760Y-19387504D02*
X17283284Y-19368457D01*
X17368998Y-19482742D02*
X17368998Y-19349409D01*
X17368998Y-19368457D02*
X17378522Y-19358933D01*
X17378522Y-19358933D02*
X17397570Y-19349409D01*
X17397570Y-19349409D02*
X17426141Y-19349409D01*
X17426141Y-19349409D02*
X17445189Y-19358933D01*
X17445189Y-19358933D02*
X17454713Y-19377981D01*
X17454713Y-19377981D02*
X17454713Y-19482742D01*
X17454713Y-19377981D02*
X17464236Y-19358933D01*
X17464236Y-19358933D02*
X17483284Y-19349409D01*
X17483284Y-19349409D02*
X17511855Y-19349409D01*
X17511855Y-19349409D02*
X17530903Y-19358933D01*
X17530903Y-19358933D02*
X17540427Y-19377981D01*
X17540427Y-19377981D02*
X17540427Y-19482742D01*
X17635665Y-19482742D02*
X17635665Y-19349409D01*
X17635665Y-19368457D02*
X17645189Y-19358933D01*
X17645189Y-19358933D02*
X17664236Y-19349409D01*
X17664236Y-19349409D02*
X17692808Y-19349409D01*
X17692808Y-19349409D02*
X17711856Y-19358933D01*
X17711856Y-19358933D02*
X17721379Y-19377981D01*
X17721379Y-19377981D02*
X17721379Y-19482742D01*
X17721379Y-19377981D02*
X17730903Y-19358933D01*
X17730903Y-19358933D02*
X17749951Y-19349409D01*
X17749951Y-19349409D02*
X17778522Y-19349409D01*
X17778522Y-19349409D02*
X17797570Y-19358933D01*
X17797570Y-19358933D02*
X17807094Y-19377981D01*
X17807094Y-19377981D02*
X17807094Y-19482742D01*
X18197570Y-19273219D02*
X18026141Y-19530361D01*
X18454713Y-19282742D02*
X18473760Y-19282742D01*
X18473760Y-19282742D02*
X18492808Y-19292266D01*
X18492808Y-19292266D02*
X18502332Y-19301790D01*
X18502332Y-19301790D02*
X18511856Y-19320838D01*
X18511856Y-19320838D02*
X18521379Y-19358933D01*
X18521379Y-19358933D02*
X18521379Y-19406552D01*
X18521379Y-19406552D02*
X18511856Y-19444647D01*
X18511856Y-19444647D02*
X18502332Y-19463695D01*
X18502332Y-19463695D02*
X18492808Y-19473219D01*
X18492808Y-19473219D02*
X18473760Y-19482742D01*
X18473760Y-19482742D02*
X18454713Y-19482742D01*
X18454713Y-19482742D02*
X18435665Y-19473219D01*
X18435665Y-19473219D02*
X18426141Y-19463695D01*
X18426141Y-19463695D02*
X18416618Y-19444647D01*
X18416618Y-19444647D02*
X18407094Y-19406552D01*
X18407094Y-19406552D02*
X18407094Y-19358933D01*
X18407094Y-19358933D02*
X18416618Y-19320838D01*
X18416618Y-19320838D02*
X18426141Y-19301790D01*
X18426141Y-19301790D02*
X18435665Y-19292266D01*
X18435665Y-19292266D02*
X18454713Y-19282742D01*
X18607094Y-19463695D02*
X18616618Y-19473219D01*
X18616618Y-19473219D02*
X18607094Y-19482742D01*
X18607094Y-19482742D02*
X18597570Y-19473219D01*
X18597570Y-19473219D02*
X18607094Y-19463695D01*
X18607094Y-19463695D02*
X18607094Y-19482742D01*
X18807094Y-19482742D02*
X18692808Y-19482742D01*
X18749951Y-19482742D02*
X18749951Y-19282742D01*
X18749951Y-19282742D02*
X18730903Y-19311314D01*
X18730903Y-19311314D02*
X18711856Y-19330361D01*
X18711856Y-19330361D02*
X18692808Y-19339885D01*
X18873760Y-19282742D02*
X18997570Y-19282742D01*
X18997570Y-19282742D02*
X18930903Y-19358933D01*
X18930903Y-19358933D02*
X18959475Y-19358933D01*
X18959475Y-19358933D02*
X18978522Y-19368457D01*
X18978522Y-19368457D02*
X18988046Y-19377981D01*
X18988046Y-19377981D02*
X18997570Y-19397028D01*
X18997570Y-19397028D02*
X18997570Y-19444647D01*
X18997570Y-19444647D02*
X18988046Y-19463695D01*
X18988046Y-19463695D02*
X18978522Y-19473219D01*
X18978522Y-19473219D02*
X18959475Y-19482742D01*
X18959475Y-19482742D02*
X18902332Y-19482742D01*
X18902332Y-19482742D02*
X18883284Y-19473219D01*
X18883284Y-19473219D02*
X18873760Y-19463695D01*
X19178522Y-19282742D02*
X19083284Y-19282742D01*
X19083284Y-19282742D02*
X19073760Y-19377981D01*
X19073760Y-19377981D02*
X19083284Y-19368457D01*
X19083284Y-19368457D02*
X19102332Y-19358933D01*
X19102332Y-19358933D02*
X19149951Y-19358933D01*
X19149951Y-19358933D02*
X19168999Y-19368457D01*
X19168999Y-19368457D02*
X19178522Y-19377981D01*
X19178522Y-19377981D02*
X19188046Y-19397028D01*
X19188046Y-19397028D02*
X19188046Y-19444647D01*
X19188046Y-19444647D02*
X19178522Y-19463695D01*
X19178522Y-19463695D02*
X19168999Y-19473219D01*
X19168999Y-19473219D02*
X19149951Y-19482742D01*
X19149951Y-19482742D02*
X19102332Y-19482742D01*
X19102332Y-19482742D02*
X19083284Y-19473219D01*
X19083284Y-19473219D02*
X19073760Y-19463695D01*
X19311856Y-19282742D02*
X19330903Y-19282742D01*
X19330903Y-19282742D02*
X19349951Y-19292266D01*
X19349951Y-19292266D02*
X19359475Y-19301790D01*
X19359475Y-19301790D02*
X19368999Y-19320838D01*
X19368999Y-19320838D02*
X19378522Y-19358933D01*
X19378522Y-19358933D02*
X19378522Y-19406552D01*
X19378522Y-19406552D02*
X19368999Y-19444647D01*
X19368999Y-19444647D02*
X19359475Y-19463695D01*
X19359475Y-19463695D02*
X19349951Y-19473219D01*
X19349951Y-19473219D02*
X19330903Y-19482742D01*
X19330903Y-19482742D02*
X19311856Y-19482742D01*
X19311856Y-19482742D02*
X19292808Y-19473219D01*
X19292808Y-19473219D02*
X19283284Y-19463695D01*
X19283284Y-19463695D02*
X19273760Y-19444647D01*
X19273760Y-19444647D02*
X19264237Y-19406552D01*
X19264237Y-19406552D02*
X19264237Y-19358933D01*
X19264237Y-19358933D02*
X19273760Y-19320838D01*
X19273760Y-19320838D02*
X19283284Y-19301790D01*
X19283284Y-19301790D02*
X19292808Y-19292266D01*
X19292808Y-19292266D02*
X19311856Y-19282742D01*
X19454713Y-19282742D02*
X19454713Y-19320838D01*
X19530903Y-19282742D02*
X19530903Y-19320838D01*
X19826142Y-19558933D02*
X19816618Y-19549409D01*
X19816618Y-19549409D02*
X19797570Y-19520838D01*
X19797570Y-19520838D02*
X19788046Y-19501790D01*
X19788046Y-19501790D02*
X19778522Y-19473219D01*
X19778522Y-19473219D02*
X19768999Y-19425600D01*
X19768999Y-19425600D02*
X19768999Y-19387504D01*
X19768999Y-19387504D02*
X19778522Y-19339885D01*
X19778522Y-19339885D02*
X19788046Y-19311314D01*
X19788046Y-19311314D02*
X19797570Y-19292266D01*
X19797570Y-19292266D02*
X19816618Y-19263695D01*
X19816618Y-19263695D02*
X19826142Y-19254171D01*
X20007094Y-19482742D02*
X19892808Y-19482742D01*
X19949951Y-19482742D02*
X19949951Y-19282742D01*
X19949951Y-19282742D02*
X19930903Y-19311314D01*
X19930903Y-19311314D02*
X19911856Y-19330361D01*
X19911856Y-19330361D02*
X19892808Y-19339885D01*
X20178522Y-19349409D02*
X20178522Y-19482742D01*
X20130903Y-19273219D02*
X20083284Y-19416076D01*
X20083284Y-19416076D02*
X20207094Y-19416076D01*
X20435665Y-19482742D02*
X20435665Y-19282742D01*
X20521380Y-19482742D02*
X20521380Y-19377981D01*
X20521380Y-19377981D02*
X20511856Y-19358933D01*
X20511856Y-19358933D02*
X20492808Y-19349409D01*
X20492808Y-19349409D02*
X20464237Y-19349409D01*
X20464237Y-19349409D02*
X20445189Y-19358933D01*
X20445189Y-19358933D02*
X20435665Y-19368457D01*
X20645189Y-19482742D02*
X20626142Y-19473219D01*
X20626142Y-19473219D02*
X20616618Y-19463695D01*
X20616618Y-19463695D02*
X20607094Y-19444647D01*
X20607094Y-19444647D02*
X20607094Y-19387504D01*
X20607094Y-19387504D02*
X20616618Y-19368457D01*
X20616618Y-19368457D02*
X20626142Y-19358933D01*
X20626142Y-19358933D02*
X20645189Y-19349409D01*
X20645189Y-19349409D02*
X20673761Y-19349409D01*
X20673761Y-19349409D02*
X20692808Y-19358933D01*
X20692808Y-19358933D02*
X20702332Y-19368457D01*
X20702332Y-19368457D02*
X20711856Y-19387504D01*
X20711856Y-19387504D02*
X20711856Y-19444647D01*
X20711856Y-19444647D02*
X20702332Y-19463695D01*
X20702332Y-19463695D02*
X20692808Y-19473219D01*
X20692808Y-19473219D02*
X20673761Y-19482742D01*
X20673761Y-19482742D02*
X20645189Y-19482742D01*
X20826142Y-19482742D02*
X20807094Y-19473219D01*
X20807094Y-19473219D02*
X20797570Y-19454171D01*
X20797570Y-19454171D02*
X20797570Y-19282742D01*
X20978523Y-19473219D02*
X20959475Y-19482742D01*
X20959475Y-19482742D02*
X20921380Y-19482742D01*
X20921380Y-19482742D02*
X20902332Y-19473219D01*
X20902332Y-19473219D02*
X20892808Y-19454171D01*
X20892808Y-19454171D02*
X20892808Y-19377981D01*
X20892808Y-19377981D02*
X20902332Y-19358933D01*
X20902332Y-19358933D02*
X20921380Y-19349409D01*
X20921380Y-19349409D02*
X20959475Y-19349409D01*
X20959475Y-19349409D02*
X20978523Y-19358933D01*
X20978523Y-19358933D02*
X20988046Y-19377981D01*
X20988046Y-19377981D02*
X20988046Y-19397028D01*
X20988046Y-19397028D02*
X20892808Y-19416076D01*
X21064237Y-19473219D02*
X21083284Y-19482742D01*
X21083284Y-19482742D02*
X21121380Y-19482742D01*
X21121380Y-19482742D02*
X21140427Y-19473219D01*
X21140427Y-19473219D02*
X21149951Y-19454171D01*
X21149951Y-19454171D02*
X21149951Y-19444647D01*
X21149951Y-19444647D02*
X21140427Y-19425600D01*
X21140427Y-19425600D02*
X21121380Y-19416076D01*
X21121380Y-19416076D02*
X21092808Y-19416076D01*
X21092808Y-19416076D02*
X21073761Y-19406552D01*
X21073761Y-19406552D02*
X21064237Y-19387504D01*
X21064237Y-19387504D02*
X21064237Y-19377981D01*
X21064237Y-19377981D02*
X21073761Y-19358933D01*
X21073761Y-19358933D02*
X21092808Y-19349409D01*
X21092808Y-19349409D02*
X21121380Y-19349409D01*
X21121380Y-19349409D02*
X21140427Y-19358933D01*
X21216618Y-19558933D02*
X21226142Y-19549409D01*
X21226142Y-19549409D02*
X21245189Y-19520838D01*
X21245189Y-19520838D02*
X21254713Y-19501790D01*
X21254713Y-19501790D02*
X21264237Y-19473219D01*
X21264237Y-19473219D02*
X21273761Y-19425600D01*
X21273761Y-19425600D02*
X21273761Y-19387504D01*
X21273761Y-19387504D02*
X21264237Y-19339885D01*
X21264237Y-19339885D02*
X21254713Y-19311314D01*
X21254713Y-19311314D02*
X21245189Y-19292266D01*
X21245189Y-19292266D02*
X21226142Y-19263695D01*
X21226142Y-19263695D02*
X21216618Y-19254171D01*
X21578523Y-19558933D02*
X21568999Y-19549409D01*
X21568999Y-19549409D02*
X21549951Y-19520838D01*
X21549951Y-19520838D02*
X21540427Y-19501790D01*
X21540427Y-19501790D02*
X21530904Y-19473219D01*
X21530904Y-19473219D02*
X21521380Y-19425600D01*
X21521380Y-19425600D02*
X21521380Y-19387504D01*
X21521380Y-19387504D02*
X21530904Y-19339885D01*
X21530904Y-19339885D02*
X21540427Y-19311314D01*
X21540427Y-19311314D02*
X21549951Y-19292266D01*
X21549951Y-19292266D02*
X21568999Y-19263695D01*
X21568999Y-19263695D02*
X21578523Y-19254171D01*
X21654713Y-19349409D02*
X21654713Y-19482742D01*
X21654713Y-19368457D02*
X21664237Y-19358933D01*
X21664237Y-19358933D02*
X21683284Y-19349409D01*
X21683284Y-19349409D02*
X21711856Y-19349409D01*
X21711856Y-19349409D02*
X21730904Y-19358933D01*
X21730904Y-19358933D02*
X21740427Y-19377981D01*
X21740427Y-19377981D02*
X21740427Y-19482742D01*
X21864237Y-19482742D02*
X21845189Y-19473219D01*
X21845189Y-19473219D02*
X21835665Y-19463695D01*
X21835665Y-19463695D02*
X21826142Y-19444647D01*
X21826142Y-19444647D02*
X21826142Y-19387504D01*
X21826142Y-19387504D02*
X21835665Y-19368457D01*
X21835665Y-19368457D02*
X21845189Y-19358933D01*
X21845189Y-19358933D02*
X21864237Y-19349409D01*
X21864237Y-19349409D02*
X21892808Y-19349409D01*
X21892808Y-19349409D02*
X21911856Y-19358933D01*
X21911856Y-19358933D02*
X21921380Y-19368457D01*
X21921380Y-19368457D02*
X21930904Y-19387504D01*
X21930904Y-19387504D02*
X21930904Y-19444647D01*
X21930904Y-19444647D02*
X21921380Y-19463695D01*
X21921380Y-19463695D02*
X21911856Y-19473219D01*
X21911856Y-19473219D02*
X21892808Y-19482742D01*
X21892808Y-19482742D02*
X21864237Y-19482742D01*
X21988046Y-19349409D02*
X22064237Y-19349409D01*
X22016618Y-19282742D02*
X22016618Y-19454171D01*
X22016618Y-19454171D02*
X22026142Y-19473219D01*
X22026142Y-19473219D02*
X22045189Y-19482742D01*
X22045189Y-19482742D02*
X22064237Y-19482742D01*
X22283285Y-19349409D02*
X22283285Y-19549409D01*
X22283285Y-19358933D02*
X22302332Y-19349409D01*
X22302332Y-19349409D02*
X22340427Y-19349409D01*
X22340427Y-19349409D02*
X22359475Y-19358933D01*
X22359475Y-19358933D02*
X22368999Y-19368457D01*
X22368999Y-19368457D02*
X22378523Y-19387504D01*
X22378523Y-19387504D02*
X22378523Y-19444647D01*
X22378523Y-19444647D02*
X22368999Y-19463695D01*
X22368999Y-19463695D02*
X22359475Y-19473219D01*
X22359475Y-19473219D02*
X22340427Y-19482742D01*
X22340427Y-19482742D02*
X22302332Y-19482742D01*
X22302332Y-19482742D02*
X22283285Y-19473219D01*
X22492808Y-19482742D02*
X22473761Y-19473219D01*
X22473761Y-19473219D02*
X22464237Y-19454171D01*
X22464237Y-19454171D02*
X22464237Y-19282742D01*
X22654713Y-19482742D02*
X22654713Y-19377981D01*
X22654713Y-19377981D02*
X22645189Y-19358933D01*
X22645189Y-19358933D02*
X22626142Y-19349409D01*
X22626142Y-19349409D02*
X22588046Y-19349409D01*
X22588046Y-19349409D02*
X22568999Y-19358933D01*
X22654713Y-19473219D02*
X22635665Y-19482742D01*
X22635665Y-19482742D02*
X22588046Y-19482742D01*
X22588046Y-19482742D02*
X22568999Y-19473219D01*
X22568999Y-19473219D02*
X22559475Y-19454171D01*
X22559475Y-19454171D02*
X22559475Y-19435123D01*
X22559475Y-19435123D02*
X22568999Y-19416076D01*
X22568999Y-19416076D02*
X22588046Y-19406552D01*
X22588046Y-19406552D02*
X22635665Y-19406552D01*
X22635665Y-19406552D02*
X22654713Y-19397028D01*
X22721380Y-19349409D02*
X22797570Y-19349409D01*
X22749951Y-19282742D02*
X22749951Y-19454171D01*
X22749951Y-19454171D02*
X22759475Y-19473219D01*
X22759475Y-19473219D02*
X22778523Y-19482742D01*
X22778523Y-19482742D02*
X22797570Y-19482742D01*
X22940427Y-19473219D02*
X22921380Y-19482742D01*
X22921380Y-19482742D02*
X22883284Y-19482742D01*
X22883284Y-19482742D02*
X22864237Y-19473219D01*
X22864237Y-19473219D02*
X22854713Y-19454171D01*
X22854713Y-19454171D02*
X22854713Y-19377981D01*
X22854713Y-19377981D02*
X22864237Y-19358933D01*
X22864237Y-19358933D02*
X22883284Y-19349409D01*
X22883284Y-19349409D02*
X22921380Y-19349409D01*
X22921380Y-19349409D02*
X22940427Y-19358933D01*
X22940427Y-19358933D02*
X22949951Y-19377981D01*
X22949951Y-19377981D02*
X22949951Y-19397028D01*
X22949951Y-19397028D02*
X22854713Y-19416076D01*
X23121380Y-19482742D02*
X23121380Y-19282742D01*
X23121380Y-19473219D02*
X23102332Y-19482742D01*
X23102332Y-19482742D02*
X23064237Y-19482742D01*
X23064237Y-19482742D02*
X23045189Y-19473219D01*
X23045189Y-19473219D02*
X23035665Y-19463695D01*
X23035665Y-19463695D02*
X23026142Y-19444647D01*
X23026142Y-19444647D02*
X23026142Y-19387504D01*
X23026142Y-19387504D02*
X23035665Y-19368457D01*
X23035665Y-19368457D02*
X23045189Y-19358933D01*
X23045189Y-19358933D02*
X23064237Y-19349409D01*
X23064237Y-19349409D02*
X23102332Y-19349409D01*
X23102332Y-19349409D02*
X23121380Y-19358933D01*
X23197570Y-19558933D02*
X23207094Y-19549409D01*
X23207094Y-19549409D02*
X23226142Y-19520838D01*
X23226142Y-19520838D02*
X23235665Y-19501790D01*
X23235665Y-19501790D02*
X23245189Y-19473219D01*
X23245189Y-19473219D02*
X23254713Y-19425600D01*
X23254713Y-19425600D02*
X23254713Y-19387504D01*
X23254713Y-19387504D02*
X23245189Y-19339885D01*
X23245189Y-19339885D02*
X23235665Y-19311314D01*
X23235665Y-19311314D02*
X23226142Y-19292266D01*
X23226142Y-19292266D02*
X23207094Y-19263695D01*
X23207094Y-19263695D02*
X23197570Y-19254171D01*
M02*
