%TF.GenerationSoftware,KiCad,Pcbnew,8.0.1*%
%TF.CreationDate,2024-11-14T23:06:04-08:00*%
%TF.ProjectId,roo_right_autorouted,726f6f5f-7269-4676-9874-5f6175746f72,0.1.0*%
%TF.SameCoordinates,Original*%
%TF.FileFunction,Profile,NP*%
%FSLAX46Y46*%
G04 Gerber Fmt 4.6, Leading zero omitted, Abs format (unit mm)*
G04 Created by KiCad (PCBNEW 8.0.1) date 2024-11-14 23:06:04*
%MOMM*%
%LPD*%
G01*
G04 APERTURE LIST*
%TA.AperFunction,Profile*%
%ADD10C,0.150000*%
%TD*%
G04 APERTURE END LIST*
D10*
X240585786Y-176585786D02*
X260585786Y-176585786D01*
X262585786Y-174585786D02*
G75*
G02*
X260585786Y-176585786I-2000000J0D01*
G01*
X262585786Y-174585786D02*
X262585786Y-116585786D01*
X260585786Y-114585786D02*
G75*
G02*
X262585786Y-116585786I0J-2000000D01*
G01*
X260585786Y-114585786D02*
X243585786Y-114585786D01*
X243585786Y-114585786D02*
X243585786Y-102335786D01*
X241585786Y-100335786D02*
G75*
G02*
X243585786Y-102335786I1J-1999999D01*
G01*
X241585786Y-100335786D02*
X224585786Y-100335786D01*
X224585786Y-100335786D02*
X224585786Y-92835786D01*
X222585786Y-90835786D02*
G75*
G02*
X224585786Y-92835786I1J-1999999D01*
G01*
X222585786Y-90835786D02*
X202585786Y-90835786D01*
X200585786Y-92835786D02*
G75*
G02*
X202585786Y-90835786I1999999J1D01*
G01*
X200585786Y-92835786D02*
X200585786Y-100335786D01*
X200585786Y-100335786D02*
X183585786Y-100335786D01*
X181585786Y-102335786D02*
G75*
G02*
X183585786Y-100335786I1999999J1D01*
G01*
X181585786Y-121835786D02*
X181585786Y-102335786D01*
X162585786Y-159335786D02*
G75*
G02*
X162731736Y-158585786I2000023J-4D01*
G01*
X162585786Y-159335786D02*
X162585786Y-179335786D01*
X164585786Y-181335786D02*
G75*
G02*
X162585786Y-179335786I-1J1999999D01*
G01*
X164585786Y-181335786D02*
X203585786Y-181335786D01*
X205585786Y-179335786D02*
G75*
G02*
X203585786Y-181335786I-1999999J-1D01*
G01*
X205585786Y-179335786D02*
X205585786Y-152835786D01*
X205585786Y-152835786D02*
X219585786Y-152835786D01*
X219585786Y-152835786D02*
X219585786Y-160335786D01*
X221585786Y-162335786D02*
G75*
G02*
X219585786Y-160335786I-1J1999999D01*
G01*
X221585786Y-162335786D02*
X238585786Y-162335786D01*
X238585786Y-162335786D02*
X238585786Y-174585786D01*
X240585786Y-176585786D02*
G75*
G02*
X238585786Y-174585786I-1J1999999D01*
G01*
X181585786Y-121835786D02*
X164585786Y-121835786D01*
X162585786Y-123835786D02*
G75*
G02*
X164585786Y-121835786I1999999J1D01*
G01*
X162585786Y-123835786D02*
X162585786Y-157835786D01*
X162731736Y-158585786D02*
G75*
G02*
X162585786Y-157835786I1854083J750006D01*
G01*
X244085786Y-155085786D02*
G75*
G02*
X238085786Y-155085786I-3000000J0D01*
G01*
X238085786Y-155085786D02*
G75*
G02*
X244085786Y-155085786I3000000J0D01*
G01*
X244085786Y-136085786D02*
G75*
G02*
X238085786Y-136085786I-3000000J0D01*
G01*
X238085786Y-136085786D02*
G75*
G02*
X244085786Y-136085786I3000000J0D01*
G01*
X205085786Y-140835786D02*
G75*
G02*
X199085786Y-140835786I-3000000J0D01*
G01*
X199085786Y-140835786D02*
G75*
G02*
X205085786Y-140835786I3000000J0D01*
G01*
X224085786Y-112335786D02*
G75*
G02*
X218085786Y-112335786I-3000000J0D01*
G01*
X218085786Y-112335786D02*
G75*
G02*
X224085786Y-112335786I3000000J0D01*
G01*
X187085786Y-174085786D02*
G75*
G02*
X181085786Y-174085786I-3000000J0D01*
G01*
X181085786Y-174085786D02*
G75*
G02*
X187085786Y-174085786I3000000J0D01*
G01*
X191835786Y-119835786D02*
G75*
G02*
X185835786Y-119835786I-3000000J0D01*
G01*
X185835786Y-119835786D02*
G75*
G02*
X191835786Y-119835786I3000000J0D01*
G01*
M02*
